<svg enable-background="new 0 0 234.72 144" version="1.1" viewBox="0 0 1100 450" xmlns="http://www.w3.org/2000/svg"><defs><filter id="a" x="-.057299" y="-.11265" width="1.1146" height="1.2253" style="color-interpolation-filters:sRGB"><feGaussianBlur stdDeviation="8.9351949"/></filter><filter id="b" x="-.06363" y="-.087948" width="1.129" height="1.1726" style="color-interpolation-filters:sRGB"><feGaussianBlur stdDeviation="6.580259"/></filter></defs><path transform="matrix(.96164 0 0 .96164 504.59 -6.2444)" d="m81.17 145.29c-5.2331 0.0408-9.8259 3.3438-11.564 8.2637-0.56825 1.5996-0.73438 3.2187-0.73438 4.8965v164.92c0.19351 6.8719 5.5697 12.231 12.379 12.248 14.273 0.0189 43.666-0.0508 43.666-0.0508l-0.0527-12.764h-42.871c-0.22753-1.371-0.17072-162.77 0.05078-163.51 1.3133-0.18331 346.9-0.11711 347.66 0.0606 0.209 1.2448 0.14852 162.66-0.0801 163.51h-289.02v12.766s1.1283-1e-3 1.6445 0.0176h288.62c5.1761-0.0514 9.763-3.2979 11.527-8.1777 0.5682-1.5544 0.73047-3.1562 0.73047-4.7949v-165.23c-0.1088-5.4584-3.823-10.252-9.0781-11.703h-0.0176c-1.3916-0.37228-2.779-0.43945-4.2168-0.43945zm160.93 48.426c-0.10811 0.2075-0.1858 0.35815-0.22852 0.5-11.713 31.409-23.414 62.832-35.123 94.236-0.0514 0.0514-0.0508 0.14852-0.0508 0.20899v0.0996c0 0.0408 0.0514 0.0602 0.0605 0.10742h16.078l0.0293 6e-3c0.12396-0.35829 0.26691-0.66657 0.375-1 2.4896-7.073 4.9821-14.134 7.4785-21.213 0.41529-1.1378 0.82782-2.2814 1.2031-3.4238 0.14854-0.4769 0.39164-0.72641 0.89453-0.66601 0.1629 0.0189 0.35207 0 0.51757 0h35.145c3.1769 8.8018 6.3315 17.54 9.4746 26.279h16.451c-11.868-31.798-23.685-63.47-35.48-95.135zm-61.836 0.32031c-0.91684 0-1.4947 0.26694-2.0996 0.97851-12.25 14.507-24.53 29.016-36.809 43.506-0.16289 0.18556-0.37472 0.35157-0.72852 0.67774v-36.088c0-2.987 0.0514-5.9842 0-8.9727h-15.406v94.629c1.223 0.21468 14.605 0.1695 15.43-0.0527v-1.2031l-0.043-6e-3v-33.008c0-0.74445 0.21031-1.2683 0.81836-1.7402 2.5493-2.0159 5.0644-4.0885 7.5801-6.1465 0.25096-0.18633 0.49365-0.35168 0.80664-0.58008 0.27137 0.35074 0.50023 0.63776 0.71094 0.95313 4.2762 6.1693 8.5566 12.333 12.83 18.492 5.2437 7.5874 10.496 15.14 15.729 22.691 0.29065 0.43835 0.55681 0.76953 1.2012 0.76953 5.5098-0.0189 11.014-0.0176 16.518-0.0176 0.18218 0 0.36992-0.0612 0.66016-0.12695-12.185-17.746-24.32-35.37-36.492-53.1 2.4488-2.8427 4.8172-5.5772 7.1836-8.3809 2.3725-2.7449 4.7368-5.4997 7.1055-8.2637 2.3651-2.757 4.7127-5.5175 7.084-8.2774 2.3664-2.7662 4.7366-5.5268 7.0762-8.2852 2.3558-2.7376 4.6943-5.4764 7.1914-8.4297h-1.3887c-4.9863 0-9.97 0.0296-14.957-0.0195zm124.84 0.0996c-0.25701 1.1832-0.19489 93.964 0.0508 94.742h55.42v-13.184h-26.734c-2.2474 0-4.5106 0.0189-6.748 0-2.2054-0.0189-4.4021 0.0815-6.6895-0.0508v-74.188l-0.0137-0.0137c0-2.4505 0.0907-4.8794-0.0703-7.3066zm66.014 0.0293v94.686h15.348c0.051-0.15912 0.0899-0.24422 0.0899-0.35156v-93.781l-8e-3 2e-3c0-0.14702 2.1e-4 -0.26933-0.0508-0.42187 0-0.0408-0.0527-0.051-0.0527-0.0801 0-0.0189-0.0605-0.0527-0.0605-0.0527zm-120.77 13.252c0.16291 0.24869 0.28976 0.40065 0.33399 0.56445 2.5735 9.6091 6.0907 18.932 9.2852 28.357 1.327 3.922 2.7018 7.8218 4.0527 11.746 0.1028 0.35112 0.20536 0.70253 0.33007 1.1367h-27.605c0.12319-0.40895 0.22823-0.76152 0.34765-1.1133 3.24-9.3819 6.5265-18.722 9.6836-28.129 1.2668-3.7807 2.2224-7.6812 3.3008-11.537 0.0911-0.29216 0.14864-0.58553 0.27148-1.0254z" style="clip-rule:evenodd;fill-rule:evenodd;filter:url(#a);opacity:.3;stroke-width:1.5037"/><path d="m921.98 133.9c-1.3382-0.358-2.6732-0.42376-4.0558-0.42376h-335.28c-5.0324 0.0392-9.4499 3.2165-11.121 7.9477-0.54645 1.5382-0.70535 3.0952-0.70535 4.7086v158.59c0.18608 6.6083 5.3563 11.762 11.904 11.778 13.726 0.0182 41.99-0.0494 41.99-0.0494l-0.0498-12.273h-41.227c-0.21879-1.3184-0.16319-156.53 0.0498-157.24 1.2629-0.17627 333.59-0.11266 334.33 0.0582 0.20098 1.197 0.1429 156.42-0.0769 157.24h-277.93v12.274s1.0847 0 1.5812 0.0182h277.55c4.9776-0.0494 9.3878-3.1718 11.084-7.8644 0.5464-1.4948 0.70345-3.0357 0.70345-4.6116v-158.89c-0.10463-5.249-3.677-9.8597-8.7306-11.255zm-282.17 136.33v-31.741c0-0.7159 0.20098-1.2186 0.78571-1.6725 2.4515-1.9386 4.87-3.9323 7.2891-5.9112 0.24133-0.17918 0.47597-0.33837 0.77696-0.55801 0.26096 0.33728 0.48044 0.61333 0.68307 0.9166 4.1122 5.9327 8.2275 11.859 12.337 17.782 5.0426 7.2964 10.093 14.559 15.126 21.822 0.2795 0.42154 0.53595 0.74116 1.1556 0.74116 5.2985-0.0182 10.592-0.0182 15.883-0.0182 0.17519 0 0.35546-0.0582 0.63456-0.12139-11.718-17.065-23.387-34.012-35.092-51.062 2.3549-2.7337 4.633-5.3646 6.9085-8.0607 2.2815-2.6396 4.5548-5.2883 6.8326-7.9462 2.2744-2.6513 4.5323-5.3068 6.8127-7.9608 2.2756-2.6601 4.5548-5.314 6.8046-7.9666 2.2654-2.6326 4.5145-5.2664 6.9159-8.1065h-1.335c-4.795 0-9.5876 0.029-14.383-0.0182-0.88167 0-1.4377 0.2555-2.0194 0.93978-11.78 13.951-23.589 27.903-35.396 41.837-0.15664 0.17844-0.36018 0.33837-0.70041 0.65203v-34.704c0-2.8724 0.0494-5.7535 0-8.6274h-14.815v90.998c1.1761 0.20645 14.045 0.16429 14.838-0.0494v-1.1578zm79.103 1.3171c0.11921-0.34454 0.25551-0.64047 0.35945-0.96111 2.3941-6.8017 4.7907-13.592 7.1914-20.399 0.39936-1.0942 0.79644-2.1944 1.1573-3.2931 0.14284-0.4586 0.37672-0.69855 0.86032-0.64047 0.15666 0.0182 0.33875 0 0.49791 0h33.796c3.055 8.4642 6.0889 16.867 9.1115 25.271h15.821c-11.413-30.578-22.777-61.036-34.12-91.485h-16.178c-0.10396 0.19954-0.18028 0.34492-0.22136 0.48133-11.264 30.204-22.515 60.421-33.775 90.621-0.0494 0.0494-0.0494 0.14285-0.0494 0.201v0.0967c0 0.0392 0.0494 0.0582 0.0582 0.10358h15.461zm13.677-39.202c3.1157-9.022 6.2758-18.004 9.3118-27.05 1.2182-3.6357 2.1365-7.3858 3.1736-11.094 0.0876-0.28095 0.14284-0.56293 0.26097-0.98588 0.15665 0.23916 0.27914 0.38502 0.32166 0.54254 2.4748 9.2405 5.8578 18.206 8.9297 27.27 1.2761 3.7716 2.5978 7.5202 3.897 11.294 0.0988 0.33765 0.19662 0.67538 0.31656 1.0929h-26.546c0.11848-0.39327 0.2188-0.7315 0.33365-1.0697zm80.106-44.876c0-2.3565 0.0868-4.6915-0.068-7.0256h-14.631c-0.24715 1.1378-0.18682 90.359 0.0494 91.107h53.293v-12.676h-25.708c-2.1612 0-4.3393 0.0182-6.491 0-2.1208-0.0182-4.2328 0.0778-6.4324-0.0494v-71.342zm63.619-6.4647c0-0.14139 0-0.25878-0.049-0.40547 0-0.0392-0.0491-0.0494-0.0491-0.0774 0-0.0182-0.0587-0.0494-0.0587-0.0494h-14.681v91.053h14.759c0.049-0.15301 0.0865-0.23443 0.0865-0.33765v-90.184z" style="clip-rule:evenodd;fill-rule:evenodd;fill:#fff;stroke-width:.96164"/><path transform="matrix(1.9268 0 0 1.9268 -873.43 -341.33)" d="m603.05 230.43s-20.662-1.3748-55.846 9.6346c-35.856 11.219-56.192 27.122-56.192 27.122s53.443-29.839 113.76-31.535zm77.066 32.443 2.6862-0.17522s-15.389-18.672-44.846-27.767c16.558 6.7308 30.97 15.649 42.159 27.941zm4.3961 7.758c0.41303-0.71604 1.7462 2.2748 2.7584 3.5312 0.0424 0.25089 0.11332 0.40399-0.47286 0.28321-0.0488-0.25791-0.13358-0.33272-0.13358-0.33272s-1.4167-0.84302-1.8511-1.441c-0.43485-0.59799-0.5119-1.644-0.30008-2.0406zm36.15 88.882s3.267-37.507-55.662-46.155c-7.4689-1.0959-16.914-1.9393-26.468-1.9635-47.231 0.62447-48.953-54.475-13.362-57.257 14.75-1.217 32.362 6.7397 49.58 14.758-0.0644 2.1384 0.0239 4.0386 1.4293 5.7947 1.4046 1.7554 6.7998 3.6706 8.5236 4.6598 1.7239 0.98955 7.2468 4.5008 10.631 8.9058 0.73402-1.3729 6.8631-5.3625 6.8631-5.3625s-1.4683 0.032-4.8841-1.2447c-3.4164-1.2766-7.4701-5.1393-7.566-5.3625-0.095-0.22361-0.1598-0.57462 0.63894-0.73433 0.60598-0.51039-0.76679-2.1704-1.3734-2.7766-0.60617-0.60658-4.6607-7.5009-4.7562-7.6607-0.0951-0.15965-0.12749-0.31906-0.41498-0.51074-0.8941-0.28751-4.8205 0.4149-4.8205 0.4149s-6.0388-2.9659-8.1204-9.3604c0.0304 1.12-1.0355 2.3429 0 4.9161-3.1487-1.332-5.8533-3.6037-7.9862-9.2174-1.2697 3.1929 0 5.2231 0 5.2231s-7.4145-2.0718-8.6008-8.9097c-1.302 3.0695 0 4.9157 0 4.9157s-12.088-6.307-32.172-6.3984c-13.447-1.2334-16.246-24.888-15.001-28.87 0 0-19.395-10.222-57.574-14.738-38.179-4.5163-69.491-0.68058-69.491-0.68058s67.62-3.2451 121.79 18.686c1.8416 8.2365 7.3813 21.955 10.365 28.548-8.5376 5.9029-18.165 11.454-19.664 31.14-1.4986 19.686 15.426 37.002 36.415 37.536 19.93 1.0616 33.7 1.2124 50.39 9.8653 15.931 8.8087 28.993 35.65 30.286 59.79 1.3963-17.911-5.3252-56.427-36.69-68.122 43.838 7.6716 47.695 40.17 47.695 40.17zm-118.64-132.02-1.5774-5.0879s-26.027-4.622-61.022-2.1346-70.327 14.737-70.327 14.737 72.295-18.191 132.92-7.515" style="filter:url(#b);opacity:.3;paint-order:stroke fill markers;stroke-width:1.3229;stroke:#000"/><path d="m288.54 102.66s-39.812-2.649-107.61 18.564c-69.088 21.617-108.27 52.259-108.27 52.259s102.97-57.494 219.19-60.762zm148.49 62.512 5.1758-0.33761s-29.652-35.978-86.41-53.502c31.904 12.969 59.673 30.153 81.233 53.837zm8.4705 14.948c0.79583-1.3797 3.3646 4.3831 5.3149 6.804 0.0816 0.48342 0.21835 0.77842-0.91111 0.5457-0.094-0.49695-0.25738-0.64109-0.25738-0.64109s-2.7297-1.6244-3.5667-2.7765c-0.83787-1.1522-0.98634-3.1677-0.57821-3.9319zm69.654 171.26s6.2949-72.269-107.25-88.932c-14.391-2.1116-32.59-3.7366-50.999-3.7833-91.005 1.2032-94.323-104.96-25.746-110.32 28.42-2.3449 62.356 12.986 95.532 28.436-0.12414 4.1203 0.046 7.7816 2.754 11.165 2.7064 3.3823 13.102 7.0726 16.423 8.9786 3.3216 1.9067 13.963 8.6722 20.484 17.16 1.4143-2.6453 13.224-10.333 13.224-10.333s-2.8291 0.0614-9.4108-2.3983c-6.5828-2.4598-14.394-9.9025-14.578-10.333-0.18304-0.43086-0.3079-1.1072 1.2311-1.4149 1.1676-0.98343-1.4775-4.182-2.6463-5.35-1.168-1.1688-8.9803-14.453-9.1643-14.761-0.18323-0.30761-0.24564-0.61476-0.79957-0.98409-1.7228-0.55398-9.2882 0.79943-9.2882 0.79943s-11.636-5.7148-15.647-18.036c0.0584 2.158-1.9952 4.5144 0 9.4724-6.067-2.5665-11.278-6.9437-15.388-17.76-2.4465 6.1521 0 10.064 0 10.064s-14.286-3.992-16.572-17.167c-2.5087 5.9144 0 9.4716 0 9.4716s-23.291-12.152-61.99-12.329c-25.91-2.3765-31.303-47.955-28.904-55.627 0 0-37.371-19.696-110.93-28.397-73.564-8.7021-133.9-1.3114-133.9-1.3114s130.29-6.2527 234.67 36.004c3.5484 15.87 14.222 42.303 19.971 55.007-16.45 11.374-35.001 22.07-37.889 60.001-2.8875 37.931 29.723 71.296 70.165 72.325 38.401 2.0455 64.934 2.3361 97.092 19.009 30.696 16.973 55.864 68.691 58.356 115.2 2.6904-34.511-10.261-108.72-70.695-131.26 84.468 14.782 91.9 77.4 91.9 77.4zm-228.6-254.38-3.0394-9.8034s-50.149-8.9058-117.58-4.113c-67.429 4.7928-135.51 28.395-135.51 28.395s139.3-35.051 256.11-14.48" style="fill:#fff;paint-order:stroke fill markers;stroke-width:1.9268"/></svg>
