<svg xmlns="http://www.w3.org/2000/svg" viewBox="0 0 64 64">
  <defs>
    <linearGradient id="startGradient" x1="14" x2="50" y1="10" y2="54" gradientUnits="userSpaceOnUse">
      <stop offset="0" stop-color="#23bac2" />
      <stop offset="1" stop-color="#2777ff" />
    </linearGradient>
    <filter id="glow" x="-20%" y="-20%" width="140%" height="140%">
      <feGaussianBlur in="SourceGraphic" stdDeviation="1.8" result="blur" />
      <feMerge>
        <feMergeNode in="blur" />
        <feMergeNode in="SourceGraphic" />
      </feMerge>
    </filter>
  </defs>
  <circle cx="32" cy="32" r="26" fill="url(#startGradient)" />
  <path
    d="M19.2 18.6c-1.1.1-1.6 1.6-.8 2.4 4.8 4.7 11.8 9.1 18.9 11.4 2.1.7 2.4 3.6.4 4.5-4.8 2.2-10.6 2-15.4-.1-1.7-.7-3.3 1.5-1.9 2.8 5 4.7 13.2 6.4 19.8 4.1 6.5-2.2 10.1-8.4 7.9-14.8-2.5-7.1-10.1-11.3-17.5-12.7a35.9 35.9 0 0 0-11.4-.6z"
    fill="#fff"
    opacity="0.8"
    filter="url(#glow)"
  />
  <path
    d="M40.8 20.7c-.9.1-1.4 1.2-.7 1.9 1.8 1.6 3.3 3.8 3.9 6 .3 1.1 1.8 1.3 2.3.3.9-1.7.8-3.8-.1-5.5-1-1.8-3-2.8-5.4-2.7z"
    fill="#e8f6ff"
  />
  <circle cx="44.6" cy="41.4" r="3.4" fill="#fff" opacity="0.85" />
</svg>
