<svg viewBox="0 0 64 64" xmlns="http://www.w3.org/2000/svg">
  <rect width="64" height="64" fill="#2e3436"/>
  <g fill="#4caf50">
    <rect x="8" y="0" width="8" height="8"/>
    <rect x="16" y="0" width="8" height="8"/>
    <rect x="40" y="0" width="8" height="8"/>
    <rect x="48" y="0" width="8" height="8"/>
    <rect x="0" y="8" width="8" height="8"/>
    <rect x="8" y="8" width="8" height="8"/>
    <rect x="16" y="8" width="8" height="8"/>
    <rect x="24" y="8" width="8" height="8"/>
    <rect x="32" y="8" width="8" height="8"/>
    <rect x="40" y="8" width="8" height="8"/>
    <rect x="48" y="8" width="8" height="8"/>
    <rect x="56" y="8" width="8" height="8"/>
    <rect x="0" y="16" width="8" height="8"/>
    <rect x="8" y="16" width="8" height="8"/>
    <rect x="16" y="16" width="8" height="8"/>
    <rect x="24" y="16" width="8" height="8"/>
    <rect x="32" y="16" width="8" height="8"/>
    <rect x="40" y="16" width="8" height="8"/>
    <rect x="48" y="16" width="8" height="8"/>
    <rect x="56" y="16" width="8" height="8"/>
    <rect x="0" y="24" width="8" height="8"/>
    <rect x="8" y="24" width="8" height="8"/>
    <rect x="24" y="24" width="8" height="8"/>
    <rect x="32" y="24" width="8" height="8"/>
    <rect x="48" y="24" width="8" height="8"/>
    <rect x="56" y="24" width="8" height="8"/>
    <rect x="8" y="32" width="8" height="8"/>
    <rect x="16" y="32" width="8" height="8"/>
    <rect x="24" y="32" width="8" height="8"/>
    <rect x="32" y="32" width="8" height="8"/>
    <rect x="40" y="32" width="8" height="8"/>
    <rect x="48" y="32" width="8" height="8"/>
    <rect x="16" y="40" width="8" height="8"/>
    <rect x="40" y="40" width="8" height="8"/>
    <rect x="0" y="48" width="8" height="8"/>
    <rect x="56" y="48" width="8" height="8"/>
    <rect x="8" y="56" width="8" height="8"/>
    <rect x="48" y="56" width="8" height="8"/>
  </g>
</svg>
