<svg xmlns="http://www.w3.org/2000/svg" viewBox="0 0 512 512" role="img" aria-labelledby="title">
  <title id="title">Kali Linux dragon logo</title>
  <g transform="matrix(3.7795 0 0 3.7795 -3.4962 -612.19)">
    <path transform="matrix(.23254 0 0 .23254 8.202 169.74)" d="m69.184 14.77c6.7451 5.7054 13.729 11.741 20.234 17.621 29.037 26.247 64.943 62.164 93.586 93.617 27.831 30.562 31.815 33.067 52.729 33.092 10.659 0.0172 13.276-0.44248 12.861-2.2383-1.3996-6.0702-82.582-87.246-123.49-123.48-7.0879-6.2778-14.351-12.576-21.396-18.613zm-54.24 22.906v119.04l117.33 60.256c4.9936 2.579 8.6218 5.167 12.324 9.6035 3.7026 4.4366 2.7715 9.5964 2.1504 17.701-0.51211 7.1089-0.14267 14.507 0.14648 21.463 1.8 19.289 8.1788 35.748 18.121 45.545 8.5933 8.4671 27.82 20.52 66.527 41.705 18.804 10.292 42.153 23.999 51.885 30.461 22.624 15.02 46.113 34.011 67.65 54.375 0.0305 0.0301 0.0617 0.0627 0.0859 0.0859 14.723 13.992 29.518 29.602 41.588 44.191 10.088 12.243 16.963 19.274 18.477 18.893 1.6136-0.43257 19.77-12.389 40.988-26.787 52.336-35.514 54.282-36.971 52.352-39.297-0.62483-0.75328-3.6936-1.8925-7.5352-2.918-1.702-0.44986-3.4986-0.87366-4.9785-1.168-22.696-4.4904-53.322-17.682-77.611-33.422-9.2507-5.9942-20.992-15.037-32.125-24.381-11.3-9.8174-22.672-18.812-32.33-30.873l-5.0644-6.3926 3.2148-3.5332c9.5611-10.505 8.8039-15.438-6.2285-40.666-19.697-33.056-39.186-66.805-47.246-81.812-6.591-12.273-10.931-19.915-14.516-24.939-2.7432-3.8442-5.1349-6.0242-7.5703-7.8301-2.1533-1.5968-5.1574-3.2358-7.5254-3.5176-17.985-2.1396-44.548 4.9974-58.572-1.9434-4.5698-2.2616-8.7233-6.092-11.893-9.1367-9.0857-8.7757-17.802-19.445-24.807-27.637-15.374-17.979-32.42-38.118-37.879-44.748-14.672-17.826-25.508-29.394-28.162-30.105-0.63429-0.17072-0.58236-0.21145-0.66992 0.61523-0.27513 2.5984 0.72147 13.441 2.4531 25.914 2.2928 16.516 3.5099 24.99 3.1035 28.391-0.12049 1.0079-0.13402 1.2418-0.74804 1.5488-1.711 0.85528-5.2282-1.9066-12.104-6.584-30.647-20.851-55.447-42.544-76.553-66.996-0.89205-1.0699-2.8196-3.3416-3.4355-4.0898-0.29032-0.35272-0.55672-0.66823-0.84375-1.0156zm263.4 210.59c0.63584-0.0215 1.278 0.21082 2.1211 0.56641 6.7837 8.364 13.552 18.004 18.396 25.168 9.5467 14.145 17.282 26.912 17.439 28.357 0.21876 2.0028-0.53139 2.2158-0.8457 2.5703-2.4099 2.7181-9.4954 2.4994-19.168-0.99219-16.452-5.9389-25.238-13.014-27.535-22.166-2.4362-9.7064 2.2744-28.161 7.5078-32.535 0.82038-0.66684 1.4482-0.946 2.084-0.96875z" fill="#2777ff"/>
  </g>
</svg>
