<svg xmlns="http://www.w3.org/2000/svg">
<symbol id="terminal" viewBox="0 0 384 384">
<defs><filter id="b" x="-.14211" y="-.068693" width="1.2842" height="1.1374" color-interpolation-filters="sRGB"><feGaussianBlur stdDeviation="3.0262184"/></filter><filter id="a" x="-.15365" y="-.64559" width="1.3073" height="2.2912" color-interpolation-filters="sRGB"><feGaussianBlur stdDeviation="3.0262184"/></filter></defs><path d="m37.946 31.293c-12.198 0-22.246 9.9277-22.246 21.989v272.68c0 12.061 10.046 21.994 22.246 21.994h308.11c12.2 0 22.243-9.9338 22.243-21.994v-272.68c0-12.059-10.044-21.989-22.243-21.989zm0 14.383h308.11c4.3378 0 7.6936 3.3178 7.6936 7.6061v272.68c0 4.2884-3.3582 7.6119-7.6936 7.6119h-308.11c-4.3355 0-7.6994-3.3261-7.6994-7.6119v-272.68c0-4.2862 3.3621-7.6061 7.6994-7.6061z" color="#000000" color-rendering="auto" dominant-baseline="auto" fill="#fff" fill-rule="evenodd" image-rendering="auto" opacity=".2" shape-rendering="auto" solid-color="#000000" stroke="#000" stroke-linejoin="round" stroke-width="7.4593" style="font-feature-settings:normal;font-variant-alternates:normal;font-variant-caps:normal;font-variant-ligatures:normal;font-variant-numeric:normal;font-variant-position:normal;isolation:auto;mix-blend-mode:normal;shape-padding:0;text-decoration-color:#000000;text-decoration-line:none;text-decoration-style:solid;text-indent:0;text-orientation:mixed;text-transform:none;white-space:normal"/><path d="m37.986 39.387c-12.195 0-22.24 10.041-22.24 22.238v275.29c0 12.197 10.043 22.24 22.24 22.24h308.02c12.197 0 22.238-10.045 22.238-22.24v-275.29c0-12.195-10.043-22.238-22.238-22.238z" fill-rule="evenodd" opacity=".3"/><path d="m37.99 39.161h308.02c8.2658 0 14.965 6.6992 14.965 14.965v275.29c0 8.2658-6.6992 14.968-14.965 14.968h-308.02c-8.2658 0-14.968-6.7031-14.968-14.968v-275.29c0-8.2658 6.7031-14.965 14.968-14.965z" fill="#171717" fill-rule="evenodd" stroke="#fff" stroke-linejoin="round" stroke-width="14.544"/><path d="m175.71 177.88v11.25h-47.27v-11.25z" fill="#fff"/><path d="m91.919 83.696h-7.6084v15.689c-12.961 1.3118-19.939 9.3924-19.939 18.89 0 9.8122 6.559 16.056 19.939 20.516v26.288c-6.6639-0.52471-11.859-3.4631-16.371-7.7658l-6.2966 7.0837c4.8799 4.7225 12.541 9.235 22.668 9.9172v15.112h7.6084v-15.427c13.643-1.784 20.831-10.809 20.831-21.461 0-12.698-8.9727-18.523-20.831-22.458v-21.776c4.8799 0.52472 9.4449 2.5711 13.38 6.0867l6.4016-6.6639c-4.6175-4.0928-11.334-7.5559-19.782-8.343zm-7.6084 24.767v18.995c-6.8738-2.9384-8.5004-5.667-8.5004-10.022 0-4.9323 3.3057-8.0806 8.5004-8.9727zm7.6084 33.11c6.9263 3.0434 9.0776 6.6114 9.0776 11.806 0 6.2966-3.0958 10.075-9.0776 11.281z" fill="#fff" stroke-width=".75"/><path d="m175.71 177.88v11.25h-47.27v-11.25z" fill="#fff" filter="url(#a)"/><path d="m91.919 83.696h-7.6084v15.689c-12.961 1.3118-19.939 9.3924-19.939 18.89 0 9.8122 6.559 16.056 19.939 20.516v26.288c-6.6639-0.52471-11.859-3.4631-16.371-7.7658l-6.2966 7.0837c4.8799 4.7225 12.541 9.235 22.668 9.9172v15.112h7.6084v-15.427c13.643-1.784 20.831-10.809 20.831-21.461 0-12.698-8.9727-18.523-20.831-22.458v-21.776c4.8799 0.52472 9.4449 2.5711 13.38 6.0867l6.4016-6.6639c-4.6175-4.0928-11.334-7.5559-19.782-8.343zm-7.6084 24.767v18.995c-6.8738-2.9384-8.5004-5.667-8.5004-10.022 0-4.9323 3.3057-8.0806 8.5004-8.9727zm7.6084 33.11c6.9263 3.0434 9.0776 6.6114 9.0776 11.806 0 6.2966-3.0958 10.075-9.0776 11.281z" fill="#fff" filter="url(#b)" stroke-width=".75"/>
</symbol>
<symbol id="calculator" viewBox="0 0 384 384">
<defs><clipPath><rect width="384" height="384"/></clipPath><clipPath><rect width="384" height="384"/></clipPath><clipPath><rect width="384" height="384"/></clipPath><clipPath><rect width="384" height="384"/></clipPath></defs><path d="m192.02 23.25v168.75h-0.0156v-168.73h-141.43c-14.059 0.078125-25.547 10.5-27.328 24.074v144.68h0.03125v140.95c0 15.375 12.379 27.754 27.754 27.754h140.96v0.0312h141.18c15.156-0.082 27.34-12.184 27.582-27.297v-141.46h-0.0859v-141.04c-4e-5 -15.059-11.875-27.211-26.805-27.711z" fill="#5e616e"/><path d="m191.99 192v168.75h141.18c15.152-0.082 27.336-12.184 27.578-27.297v-141.46z" fill="#4a4c5c"/><path d="m23.281 192.01v140.95c0 15.375 12.379 27.754 27.754 27.754h140.97v-168.71z" fill="#73757f"/><path d="m23.25 184.52v7.5h0.03125v-7.5zm0.03125 140.95v7.5c0 15.375 12.379 27.754 27.754 27.754h140.96v0.0312h141.18c15.156-0.082 27.34-12.184 27.582-27.297v-7.5c-0.24219 15.113-12.426 27.215-27.582 27.297h-141.18v-0.0312h-140.96c-15.375 0-27.754-12.379-27.754-27.754z" fill="#4a4c5c"/><path d="m368.43 282.53c0 51.016-41.359 92.375-92.379 92.375s-92.379-41.359-92.379-92.375c0-51.02 41.359-92.379 92.379-92.379s92.379 41.359 92.379 92.379z" opacity=".3"/><path d="m368.43 275.03c0 51.016-41.359 92.375-92.379 92.375s-92.379-41.359-92.379-92.375c0-51.02 41.359-92.379 92.379-92.379s92.379 41.359 92.379 92.379z" fill="#b8174a"/><path d="m50.578 23.266c-14.059 0.078125-25.547 10.5-27.328 24.074v144.68h168.76v-168.75z" fill="#b3b3b3"/><path d="m114.32 79.055v29.453h29.344v13.266h-29.344v29.457h-13.375v-29.457h-29.344v-13.266h29.344v-29.453z" opacity=".3"/><path d="m114.32 71.555v29.453h29.344v13.266h-29.344v29.457h-13.375v-29.457h-29.344v-13.266h29.344v-29.453z" fill="#fff"/><path d="m250.49 112.43h70.375v14.5h-70.375z" opacity=".3"/><path d="m250.49 104.93h70.375v14.5h-70.375z" fill="#fff"/><path d="m141.48 259.53-24.398 24.395 24.398 24.281-9.4453 9.4453-24.395-24.285-24.395 24.285-9.4453-9.4453 24.395-24.281-24.395-24.395 9.4453-9.4453 24.395 24.395 24.395-24.395z" opacity=".3"/><path d="m141.48 252.03-24.398 24.395 24.398 24.281-9.4453 9.4453-24.395-24.285-24.395 24.285-9.4453-9.4453 24.395-24.281-24.395-24.395 9.4453-9.4453 24.395 24.395 24.395-24.395z" fill="#fff"/><path d="m240.02 263.08h72.062v13.207h-72.062zm0 25.574h72.062v13.324h-72.062z" opacity=".3"/><path d="m240.02 255.58h72.062v13.207h-72.062zm0 25.574h72.062v13.324h-72.062z" fill="#fff"/><path transform="scale(.75)" d="m256.03 31v10h189.12c19.906 0.66667 35.738 16.869 35.738 36.947v-10c-6e-5 -20.078-15.832-36.281-35.738-36.947h-189.12zm-188.59 0.021484c-18.745 0.10417-34.062 13.999-36.438 32.098v10c2.375-18.099 17.693-31.994 36.438-32.098h188.57v-10h-188.57zm188.57 224.97v10h0.02148v-10h-0.02148zm224.88 0v10h0.11523v-10h-0.11523z" fill="#fff" opacity=".3" stroke-width="1.3333"/>
</symbol>
</svg>
