<svg viewBox="0 0 128 128" xmlns="http://www.w3.org/2000/svg">
  <defs>
    <linearGradient id="bBishopBody" x1="0%" y1="0%" x2="0%" y2="100%">
      <stop offset="0%" stop-color="#3b4558" />
      <stop offset="40%" stop-color="#222836" />
      <stop offset="100%" stop-color="#11151d" />
    </linearGradient>
    <linearGradient id="bBishopBase" x1="0%" y1="0%" x2="0%" y2="100%">
      <stop offset="0%" stop-color="#161b27" />
      <stop offset="100%" stop-color="#090c12" />
    </linearGradient>
    <filter id="bBishopShadow" x="-15%" y="-20%" width="140%" height="160%" color-interpolation-filters="sRGB">
      <feDropShadow dx="0" dy="4" stdDeviation="6" flood-color="#010203" flood-opacity="0.7" />
    </filter>
  </defs>
  <g filter="url(#bBishopShadow)">
    <path
      d="M64 20c-12 0-22 10-22 24 0 10 4 16 10 20-8 6-14 16-12 34h48c2-18-4-28-12-34 6-4 10-10 10-20 0-14-10-24-22-24z"
      fill="url(#bBishopBody)"
    />
    <rect x="36" y="102" width="56" height="12" rx="6" fill="url(#bBishopBase)" />
    <rect x="28" y="112" width="72" height="10" rx="5" fill="#07090d" />
    <path d="M58 44l12 12" stroke="#1a202c" stroke-width="6" stroke-linecap="round" />
  </g>
</svg>
