<svg viewBox="0 0 128 128" xmlns="http://www.w3.org/2000/svg">
  <defs>
    <linearGradient id="bKnightBody" x1="0%" y1="0%" x2="0%" y2="100%">
      <stop offset="0%" stop-color="#3c4559" />
      <stop offset="45%" stop-color="#242a38" />
      <stop offset="100%" stop-color="#12161f" />
    </linearGradient>
    <linearGradient id="bKnightMane" x1="0%" y1="0%" x2="100%" y2="100%">
      <stop offset="0%" stop-color="#292f3f" />
      <stop offset="100%" stop-color="#141821" />
    </linearGradient>
    <filter id="bKnightShadow" x="-15%" y="-20%" width="140%" height="160%" color-interpolation-filters="sRGB">
      <feDropShadow dx="0" dy="4" stdDeviation="5" flood-color="#010203" flood-opacity="0.7" />
    </filter>
  </defs>
  <g filter="url(#bKnightShadow)">
    <path
      d="M36 108h60c6-26-2-46-16-58 4-6 10-10 10-18 0-10-6-18-24-18-18 0-28 10-28 24 0 10 6 17 12 22-12 6-18 20-14 48z"
      fill="url(#bKnightBody)"
    />
    <path
      d="M48 42c4-10 14-16 28-14-4 8-16 14-16 24 0 6 2 12 6 16l-14-6c-6-2-8-12-4-20z"
      fill="url(#bKnightMane)"
    />
    <circle cx="74" cy="40" r="5" fill="#10141c" />
    <rect x="32" y="108" width="64" height="10" rx="5" fill="#0b0e15" />
  </g>
</svg>
