<svg xmlns="http://www.w3.org/2000/svg" style="display:none">
  <symbol id="icon-network-good" viewBox="0 0 16 16">
    <g color="#000"><path fill="gray" d="M1001.003-265c-2.61 0-5.22.838-7.4 2.518l-.266.205.205.263 7.457 9.672 7.668-9.931-.264-.206a12.105 12.105 0 0 0-7.4-2.521zm0 1c2.181 0 4.344.672 6.227 1.951l-6.229 8.07-6.226-8.074c1.883-1.278 4.047-1.948 6.228-1.947z" font-family="sans-serif" font-weight="400" overflow="visible" transform="translate(-993 267)" white-space="normal" style="line-height:normal;font-variant-ligatures:none;font-variant-position:normal;font-variant-caps:normal;font-variant-numeric:normal;font-variant-alternates:normal;font-feature-settings:normal;text-indent:0;text-align:start;text-decoration-line:none;text-decoration-style:solid;text-decoration-color:#000;text-transform:none;shape-padding:0;isolation:auto;mix-blend-mode:normal;marker:none"/><path fill="#fff" d="M995.427-260.103a9.129 9.125 0 0 1 11.15.003l-5.577 7.225z" overflow="visible" transform="translate(-993 267)" style="marker:none"/></g>
  </symbol>
  <symbol id="icon-network-none" viewBox="0 0 16 16">
    <g transform="translate(-1053 267)">
      <path d="M1061.003-265c-2.61 0-5.22.838-7.4 2.518l-.266.205.205.263 7.457 9.672 7.668-9.931-.264-.206a12.105 12.105 0 0 0-7.4-2.521zm0 1c2.181 0 4.344.672 6.227 1.951l-6.229 8.07-6.226-8.074c1.883-1.278 4.047-1.948 6.228-1.947z" fill="gray" font-family="sans-serif" font-weight="400" overflow="visible" style="font-feature-settings:normal;font-variant-alternates:normal;font-variant-caps:normal;font-variant-ligatures:none;font-variant-numeric:normal;font-variant-position:normal;isolation:auto;mix-blend-mode:normal;shape-padding:0;text-decoration-color:#000;text-decoration-line:none;text-decoration-style:solid;text-indent:0;text-transform:none" white-space="normal"/>
    </g>
  </symbol>
  <symbol id="icon-volume-medium" viewBox="0 0 16 16">
    <g fill="#fff"><path d="M8 1.333L4.5 5H1.87S1 5.893 1 8.001C1 10.11 1.87 11 1.87 11H4.5L8 14.667z"/><path d="M10.524 4.926l-.707.707.354.354a2.999 2.999 0 0 1 0 4.242l-.354.353.707.707.354-.353a4 4 0 0 0 0-5.656z" color="#000" font-family="sans-serif" font-weight="400" overflow="visible" white-space="normal" style="line-height:normal;font-variant-ligatures:normal;font-variant-position:normal;font-variant-caps:normal;font-variant-numeric:normal;font-variant-alternates:normal;font-feature-settings:normal;text-indent:0;text-align:start;text-decoration-line:none;text-decoration-style:solid;text-decoration-color:#000;text-transform:none;text-orientation:mixed;shape-padding:0;isolation:auto;mix-blend-mode:normal"/><path d="M12.645 2.805l-.707.707.354.353a5.999 5.999 0 0 1 0 8.485l-.354.353.707.707.354-.353a7 7 0 0 0 0-9.899z" color="#000" font-family="sans-serif" font-weight="400" opacity=".5" overflow="visible" white-space="normal" style="line-height:normal;font-variant-ligatures:normal;font-variant-position:normal;font-variant-caps:normal;font-variant-numeric:normal;font-variant-alternates:normal;font-feature-settings:normal;text-indent:0;text-align:start;text-decoration-line:none;text-decoration-style:solid;text-decoration-color:#000;text-transform:none;text-orientation:mixed;shape-padding:0;isolation:auto;mix-blend-mode:normal"/></g>
  </symbol>
  <symbol id="icon-battery-good" viewBox="0 0 16 16">
    <g fill="#fff" color="#000"><path d="M5 13V6h6v7z" overflow="visible" style="marker:none"/><path d="M3 12.338c.01.839-.015 1.451.262 1.953.138.251.374.45.666.56.292.11.64.149 1.078.149H11c.439 0 .786-.039 1.078-.148.293-.11.526-.31.664-.56.277-.503.249-1.115.258-1.954V3.631c-.01-.839.02-1.453-.258-1.955a1.25 1.25 0 0 0-.664-.559C11.786 1.007 11.438 1 11 1h-1V0H6v1h-.994c-.438 0-.786.007-1.078.117-.292.11-.528.308-.666.559-.277.502-.252 1.116-.262 1.955v8.705zm1-.014V3.633c.01-.853.04-1.298.137-1.475.016-.028.057-.073.143-.105.06-.023.298-.053.726-.053H11c.428 0 .664.03.727.053.086.032.125.077.14.105.095.173.123.618.133 1.475v8.705c-.01.854-.038 1.298-.133 1.47-.016.03-.055.074-.14.106-.123.046-.349.086-.727.086H5.006c-.378 0-.604-.04-.726-.086-.086-.032-.127-.077-.143-.105-.098-.178-.126-.62-.137-1.485z" font-family="sans-serif" font-weight="400" overflow="visible" white-space="normal" style="line-height:normal;font-variant-ligatures:none;font-variant-position:normal;font-variant-caps:normal;font-variant-numeric:normal;font-variant-alternates:normal;font-feature-settings:normal;text-indent:0;text-align:start;text-decoration-line:none;text-decoration-style:solid;text-decoration-color:#000;text-transform:none;shape-padding:0;isolation:auto;mix-blend-mode:normal;marker:none"/></g>
  </symbol>
  <symbol id="icon-decompiler" viewBox="0 0 16 16" fill="none" stroke="currentColor" stroke-width="1">
    <rect x="1" y="3" width="4" height="10" />
    <path d="M6 8h8" />
    <path d="M11 5l3 3-3 3" />
  </symbol>
</svg>
