<svg xmlns="http://www.w3.org/2000/svg" aria-hidden="true" style="position:absolute;width:0;height:0;overflow:hidden">
  <symbol id="window-close" viewBox="0 0 16 16">
    <path
      fill="#fff"
      fill-rule="evenodd"
      d="M4.795 3.912l-.883.883.147.146L7.117 8 4.06 11.059l-.147.146.883.883.146-.147L8 8.883l3.059 3.058.146.147.883-.883-.147-.146L8.883 8l3.058-3.059.147-.146-.883-.883-.146.147L8 7.117 4.941 4.06z"
    />
  </symbol>
  <symbol id="window-minimize" viewBox="0 0 16 16">
    <path fill="#fff" d="M4 10v1h8v-1z" />
  </symbol>
  <symbol id="window-maximize" viewBox="0 0 16 16">
    <path fill="#fff" d="M4 4v8h8V4zm1 1h6v6H5z" />
  </symbol>
  <symbol id="window-restore" viewBox="0 0 16 16">
    <path fill="#fff" d="M4 6v6h6V6zm1 1h4v4H5z" />
    <path
      fill="#fff"
      opacity=".5"
      d="M6 4v1h5v5h1V4z"
    />
  </symbol>
  <symbol id="window-pin" viewBox="0 0 24 24">
    <path fill="currentColor" d="M16 9V4h-1V2H9v2H8v5L5 12v2h6v7l1 1 1-1v-7h6v-2l-3-3Z" />
  </symbol>
</svg>
