<svg xmlns="http://www.w3.org/2000/svg" viewBox="0 0 512 512">
  <path
    transform="scale(.75)"
    d="
      m331.32 31c-0.8614 0.030867-2.2131 0.38878-4.1602 0.92969-1.8788 0.52194-3.9033 1.6898-6.0371
      3.4531-2.2411 1.7129-4.4189 4.0352-6.7734 7.1836-0.82802 1.0544-1.6613 2.1589-2.5059 3.3574l-4.4102
      6.2578c-0.27518 0.25018-0.5426 0.45331-0.8086 0.62891l-13.191 2.0273c-7.4803 1.15-16.524
      2.5863-20.098 3.1914-5.7493 0.97335-6.5621
      0.93989-7.0352-0.29297-0.00452-0.011762-0.00571-0.047986-0.00977-0.0625-0.0562 1.0277-0.07399 1.8442
      0.00977 2.0625 0.47309 1.2329 1.2859 1.2663 7.0352 0.29297 3.5741-0.6051 12.617-2.0414
      20.098-3.1914l13.191-2.0273c0.266-0.1756 0.53342-0.37873 0.8086-0.62891l4.4102-6.2578c0.84455-1.1985
      1.6778-2.303 2.5059-3.3574 2.3546-3.1484 4.5323-5.4707 6.7734-7.1836 2.1338-1.7634 4.1583-2.9312
      6.0371-3.4531 1.9471-0.5409 3.2988-0.89882 4.1602-0.92969l0.00195 0.001953c0.33175-0.011853 0.58639
      0.028481 0.7793 0.12109 0.11218-0.013237 0.19867-0.01766 0.29101-0.023438 0.04631-0.095814
      0.09539-0.1973 0.13867-0.27734 0.79182-1.4794 0.95537-1.8627-0.42968-1.6992-0.19291-0.092613-
      0.44755-0.13295-0.7793-0.12109l-0.00195-0.001953zm-62.521 0.92773c-1.9588 0-11.724 10.153-14.057
      14.615-2.9018 5.5491-5.769 12.928-6.2676 15.967 0 0.0084-7.3e-4 0.01933-0.01758 0.027343-0.2181
      1.1676-0.7272 2.6619-1.3613 4.1172-0.6977 1.3793-1.6107 2.9752-2.6289 4.5254-3.4656 5.2765-5.0033
      9.5466-4.6426 12.877 0.29454-2.9895 1.8356-6.6032 4.6426-10.877 1.0182-1.5502 1.9312-3.1461
      2.6289-4.5254 0.63412-1.4552 1.1432-2.9496 1.3613-4.1172 0.01685-0.008013 0.01758-0.018943
      0.01758-0.027343 0.49863-3.0386 3.3658-10.418 6.2676-15.967 2.333-4.4619 12.098-14.615 14.057-14.615
      0.20021 0 0.35247 0.074913 0.46485 0.20312 0.01445-0.055667 0.03269-0.15686 0.04687-0.20898
      0.34143-1.2547 0.1521-1.9941-0.51172-1.9941zm54.932 27.445c-0.26218 1.7619 0.10091 2.9043 1
      4.623l0.37305 0.54883c6.9796 10.285 11.579 30.728 11.904 52.658 0.22344 4.4295 0.4368 8.1363 0.57031
      9.5977 1.4209-4.3111 4.5074-9.3445 8.25-13.439l0.03516-0.03906c0.17921-0.2027 0.36151-0.43131
      0.53906-0.6211 2.446-2.6151 3.3408-3.8053 3.3574-4.8359 0-0.08056-0.01758-0.1693-0.01758-0.2539-
      0.01173-0.10228-0.02859-0.20419-0.05859-0.30664l-0.07422-0.2168c-0.03266-0.08232-0.07352-0.16784-
      0.11133-0.25195-0.41297 0.87317-1.357 2.0064-3.0957 3.8652-0.17755 0.18979-0.35985 0.4184-0.53906
      0.6211l-0.03516 0.03906c-3.7426 4.0949-6.8291 9.1284-8.25 13.439-0.13351-1.4614-0.34687-5.1681-
      0.57031-9.5977-0.32574-21.931-4.9247-42.373-11.904-52.658l-0.37305-0.54883c-0.51806-0.99034-0.85336-
      1.7879-1-2.623zm33.766 11.584c-1.2334 0.034242-2.3403 0.47311-3.2031 1.3359-0.41768 0.4177-0.73897
      1.0524-0.96875 1.7676-0.15186 0.29304-0.24811 0.61733-0.29883 0.96875-0.06346 0.31688-0.08261
      0.64497-0.07421 0.98438-0.03338 0.46822-0.01398 0.914 0.03125 1.3379 0.01204-0.10815 0.02185-0.21685
      0.04296-0.32226 0.05072-0.35142 0.14697-0.6757 0.29883-0.96875 0.22978-0.71522 0.55107-1.3499
      0.96875-1.7676 1.7256-1.7257 4.4252-1.7604 7.1699-0.23828 0.84888 0.44073 1.7333 1.0414 2.6621
      1.8145 1.7689 1.472 3.0226 1.9437 8.9024 2.3262 0.74642 0.01268 1.5357 0.022851 2.457 0.03125 4.8715
      0.046056 12.046 0.47383 15.943 0.94922 8.052 0.98234 8.2862 1.124 11.611-0.050781 0.65714-0.30938
      1.3954-0.56538 2.1797-0.76367 2.9852-1.0031 4.328-1.0394 6.9356-0.27344 0.58255 0.12143 1.0928
      0.29034 1.5215 0.50195 1.3839 0.52703 1.8886 1.0516 2.0449 2.125 1e-4 -0.0129 0.00192-0.026178
      0.00195-0.039063 0.03333-0.32348 0.0625-0.64473 0.0625-0.92383 0-1.8303-0.33819-2.4876-2.1094-
      3.1621-0.42871-0.21161-0.93894-0.38052-1.5215-0.50195-2.6076-0.766-3.9504-0.7297-6.9356
      0.27344-0.7843 0.1983-1.5225 0.45429-2.1797 0.76367-3.3251 1.1748-3.5594 1.0331-11.611 0.050781-
      3.897-0.47539-11.072-0.90316-15.943-0.94922-0.92131-0.008399-1.7106-0.01857-2.457-0.03125-5.8798-
      0.38251-7.1335-0.85418-8.9024-2.3262-0.92881-0.77307-1.8132-1.3737-2.6621-1.8145-1.3724-0.76107-
      2.7334-1.1319-3.9668-1.0977zm-3.9922 10.061c-0.04445 0.14918-0.08832 0.29849-0.14648 0.45898-0.15352
      0.18186-0.34494 0.47201-0.54102 0.76758-3.3001 4.2616-5.1276 10.459-4.877 15.826 0.2199-4.8533
      1.9804-10.086 4.877-13.826 0.19608-0.29557 0.3875-0.58572 0.54102-0.76758 0.312-0.86088
      0.42224-1.5441 0.3789-2.2129-0.08423-0.067965-0.16175-0.15174-0.23242-0.24609zm61.059 6.041c-0.43791
      1.181-0.26015 2.007 1.1914 3.9238 1.0852 1.165 2.5522 2.9576 4.1523 5.0215 5.002 6.0651 8.7642
      11.528 11.221 16.313 1.0346 2.0151 3.3622 4.9587 5.6523 7.2422 1.9663 1.4601 4.118 3.5559 6.3418
      6.1562 6.1496 6.7354 11.681 15.667 16.58 26.797l1.8398 4.1777 0.65039-0.52539-2.4902-5.6523c-4.8992-
      11.13-10.43-20.062-16.58-26.797-2.2238-2.6004-4.3755-4.6961-6.3418-6.1562-2.2902-2.2834-4.6177-
      5.2271-5.6523-7.2422-2.4565-4.7849-6.2187-10.247-11.221-16.313-1.6001-2.0638-3.0672-3.8565-4.1523-
      5.0215-0.60252-0.79565-0.98056-1.4011-1.1914-1.9238zm-174.21 1.1602c-0.43032 1.0507-1.6017
      2.3787-4.0742 4.9082l-1.6035 1.6387-3.332
      3.1484h-2.6465l-3.6289-0.22461c-5.7942-0.35881-6.4114-0.28389-8.502 1.877-0.44705 0.327-0.80368
      0.70937-1.082 1.1465-1.3388 1.4827-1.554 2.117-1.0586 3.416 0.20809-0.40421 0.54197-0.84386
      1.0586-1.416 0.27835-0.43711 0.63498-0.81948 1.082-1.1465 2.0906-2.1608 2.7078-2.2358
      8.502-1.877l3.6289 0.22461h2.6465l3.332-3.1484 1.6035-1.6387c4.1176-4.2126 4.6882-5.1334
      4.0742-6.9082zm180.24 20.668c-0.08546 0.07714-0.16294 0.18268-0.22071 0.34766 0.02987 0.45601
      0.12944 1.1508 0.29297 2.1934 0.38431 2.4429 2.5684 6.9263 4.084 8.9473 0.74625 0.78634 1.2075
      0.98627 1.3476 0.56445-0.04325-0.39277-0.19647-1.0387-0.42382-1.8223-0.22864-0.0873-0.5368-0.33437-
      0.92383-0.74219-1.5156-2.021-3.6997-6.5043-4.084-8.9473-0.04033-0.25716-0.03985-0.32452-0.07226-
      0.54101zm-52.967 3.0391c-0.13045 0.72942-0.3558 1.4838-0.67969 2.2285-1.441 2.3748-4.1857
      4.9863-6.668 6.0234-0.14685 0.06124-0.24616 0.09589-0.38867 0.1543-1.7433 0.59494-3.1231
      0.70307-4.1523 0.30859-1.2999-0.92281-2.075-2.5339-2.2676-4.543-0.24227 2.9344 0.56038 5.331 2.2676
      6.543 1.0293 0.39448 2.409 0.28635 4.1523-0.30859 0.14251-0.05841 0.24182-0.09306 0.38867-0.1543
      2.4822-1.0371 5.227-3.6486 6.668-6.0234 0.59106-1.359 0.89494-2.7637
      0.78321-3.9551-0.02846-0.08679-0.07013-0.18268-0.10352-0.27344zm-222.71
      7.6894c-0.59959-0.05073-1.2827 0.13123-2.0098 0.53907-1.3442 0.6752-2.9518 2.0395-5.2715
      4.4121-7.531 7.7022-14.594 12.76-24.738 17.719-3.3648 1.6447-6.9545 3.6838-10.697 6.0547-2.672
      1.647-5.2863 3.3546-7.4922 4.9453-0.78647 0.56726-1.8308 1.3686-2.9883 2.2754-5.9413 4.4069-12.115
      9.486-18.32 15.096-5.8592 5.2969-13.508 11.623-16.998 14.059-1.8409 1.285-3.4751 2.4898-4.6445
      3.4062-0.43838 0.30371-1.6582 1.1239-1.7227 1.1777-0.038387 0.0312 7.53e-4 0.13182 0.0625
      0.26172-0.016694 0.0224-0.034622 0.0461-0.042969 0.0625l-0.23438 0.15625 0.97266
      1.002c0.39519-0.26888 0.71925-0.49001 0.96484-0.66016 1.1694-0.91649 2.8036-2.1212 4.6445-3.4062
      3.4896-2.4357 11.139-8.7617 16.998-14.059 6.2053-5.6097 12.379-10.689 18.32-15.096 1.1574-0.90674
      2.2018-1.7081 2.9883-2.2754 2.2059-1.5907 4.8202-3.2983 7.4922-4.9453 3.7428-2.3709 7.3324-4.41
      10.697-6.0547 10.144-4.9584 17.207-10.017 24.738-17.719 2.3197-2.3726 3.9273-3.7369 5.2715-4.4121
      0.72707-0.40784 1.4102-0.5898 2.0098-0.53907h0.02343c2.3384 0 2.4668 0.20855 2.4668
      4.0508v1.7461c0.16071 1.0739 0.38439 1.8364 0.59766 1.9844l4.4961-2.4394 5.0938-2.7656 0.15625
      0.19726 0.11914-0.0625 0.75195 1.1504 0.74805 0.9336c0.3042 0.37998 0.56135 0.67277 0.8125 0.92773
      0.86591 0.38229 2.2346 0.60233 4.6934 0.73633 0.58956-0.07551 1.2422-0.16666 2.0215-0.2793
      10.12-1.4624 22.669-0.94867 31.439 1.2871l5.582 1.4238
      2.3906-1.3906-7.9726-2.0332c-8.7704-2.2358-21.319-2.7496-31.439-1.2871-0.77929 0.11264-1.4319
      0.20379-2.0215 0.2793-2.4587-0.134-3.8274-0.35404-4.6934-0.73633-0.25115-0.25496-0.5083-0.54775-
      0.8125-0.92773l-0.74805-0.9336-0.75195-1.1504-0.11914 0.0625-0.15625-0.19726-5.0938 2.7656-4.4961 2.
      4394c-0.21327-0.14801-0.43695-0.91046-0.59766-1.9844v-1.7461c0-3.8422-0.12845-4.0508-2.4668-4.0508h-
      0.02343zm57.074 14.098c-0.75639 0.52707-1.3117 0.99493-1.4043 1.2246 0.12816 0.25388 1.2983 0.80118
      2.9453 1.4023 0.39483 0.12435 0.79219 0.25021 1.2266 0.36914 5.3835 1.4748 15.451 6.0353 20.662
      9.3613 0.33508 0.21383 0.60766 0.39417 0.88867 0.57813 0.15503 0.08922 0.33419 0.18348 0.48438
      0.27148 1.1258 0.65755 1.7629 1.0957 2.0742 1.582 0.56195-1.8105 0.22113-2.2413-2.0742-3.582-
      0.15019-0.088-0.32935-0.18226-0.48438-0.27148-0.28101-0.18396-0.55359-0.3643-0.88867-0.57813-5.2114-
      3.326-15.279-7.8866-20.662-9.3613-0.43437-0.11893-0.83173-0.24479-1.2266-0.36914-0.62109-0.22669-
      1.0857-0.42831-1.541-0.62695zm34.531 6.4297c-0.13605 0.02602-0.31105 0.14503-0.52343 0.35742-0.47726
      0.47719-1.375 4.1069-1.9941 8.0664l-0.92774 5.9434c-0.20574 0.98688-0.67052
      0.85973-2.4492-0.54297l-0.28906-0.23047c-1.0214-0.81531-1.6087-1.3776-1.8848-1.957-0.0034
      0.01149-0.00838 0.02567-0.01172 0.03711-0.0084 0.03106-0.01654 0.06725-0.03321 0.09765-0.0084
      0.04254-0.00677 0.07612-0.02343 0.11719-0.38248 1.5427 0.03775 2.1762 1.9531 3.7051l0.28906
      0.23047c1.7787 1.4027 2.2435 1.5298 2.4492 0.54297l0.92774-5.9434c0.61909-3.9595 1.5169-7.5892
      1.9941-8.0664 0.56636-0.56637 0.86719-0.46844 0.86719 0.2832 0 1.3987 6.4194 14.919 8.2051 17.281
      1.2067 1.5963 1.3989 1.6078 3.4024 0.21289 1.1678-0.81282 3.2385-2.9694 4.6035-4.791 1.5801-2.1083
      2.1265-2.8864 1.8613-3.5312-0.10866-0.10456-0.33327-0.29019-0.47461-0.41797-0.3153 0.49718-0.74601
      1.0944-1.3867 1.9492-1.365 1.8216-3.4357 3.9782-4.6035 4.791-2.0035 1.3949-2.1957
      1.3834-3.4024-0.21289-1.7857-2.3621-8.2051-15.883-8.2051-17.281
      0-0.46977-0.117-0.68399-0.34376-0.64062zm97.936 9.6133c-0.21623 2.2295 0.12401 3.2476 1.0742 3.2129
      0.00333-0.00267 0.00287-0.00124 0.01953-0.00391 0.41268-0.12661 0.76864-0.24485 1.0957-0.35351
      0.48565-0.32783 0.56469-0.96353 0.34571-2.4258-0.07825 0.1811-0.18903 0.32002-0.34571
      0.42578-0.32706 0.10866-0.68302 0.2269-1.0957 0.35351-0.01666 0.00267-0.0162 0.00124-0.01953
      0.00391-0.59341 0.02169-0.93927-0.38333-1.0742-1.2129zm30.66 0.16016c-0.07028 2.8334-0.52422
      6.0225-1.4199 8.8008-0.09507 0.29513-0.18955 0.65171-0.28516 0.9707-0.90879 3.0256-1.8154
      6.9386-2.0996 9.1992-0.42869 3.4092-1.4699 5.7299-4.1719 9.2988-1.9806 2.6161-4.3249 6.3522-5.209
      8.3008-0.7576 1.6691-2.8654 4.3284-4.9922 6.3711-1.7069 1.2772-3.5472 3.1041-5.0976 5.0371-1.096
      1.2654-2.0477 2.51-2.6074 3.4629-1.4925 2.541-2.672 3.6708-5.5664 4.9688-0.33308 0.14018-0.66149
      0.28024-0.99023 0.42578-0.36528 0.15018-0.72786 0.30027-1.1445 0.46094-2.9101 1.1225-5.5466
      2.6871-8.1191 4.8164-1.177 0.8823-2.1908 1.7619-2.9531 2.6055-0.15686 0.17281-0.35406 0.3593-0.54297
      0.54296-2.5959 2.2525-5.9662 4.5493-8.0918 5.459-2.4937 1.0674-5.7299 2.753-7.1914 3.7441-1.0493
      0.71169-2.6114 1.9435-3.9883 3.1191-0.09679 0.08307-0.19181 0.16175-0.2871 0.24414-0.36144
      0.29847-0.67449 0.57862-0.94532 0.84375-0.08173 0.07587-0.18524 0.16099-0.26367 0.23438l-2.2129
      2.0684-0.50195 2.0996c0.06358 0.09494 0.15857 0.13103 0.28711 0.10157l2.4277-2.2695c0.07843-0.07339
      0.18194-0.15851 0.26367-0.23438 0.27083-0.26513 0.58388-0.54528 0.94532-0.84375 0.09529-0.08239
      0.19031-0.16107 0.2871-0.24414 1.3769-1.1757 2.939-2.4074 3.9883-3.1191 1.4615-0.99109 4.6977-2.6767
      7.1914-3.7441 2.1256-0.90973 5.4959-3.2065 8.0918-5.459 0.18891-0.18366 0.38611-0.37015
      0.54297-0.54296 0.76228-0.84359 1.7762-1.7232 2.9531-2.6055 2.5725-2.1293 5.209-3.6939 8.1191-4.8164
      0.41668-0.16067 0.77926-0.31076 1.1445-0.46094 0.32874-0.14554 0.65715-0.2856 0.99023-0.42578
      2.8944-1.2979 4.0739-2.4278 5.5664-4.9688 0.55968-0.95284 1.5114-2.1975 2.6074-3.4629 1.5504-1.933
      3.3907-3.7599 5.0976-5.0371 2.1268-2.0427 4.2346-4.702 4.9922-6.3711 0.88409-1.9486 3.2284-5.6847
      5.209-8.3008 2.702-3.569 3.7432-5.8896 4.1719-9.2988 0.28419-2.2606 1.1908-6.1737 2.0996-9.1992
      0.09561-0.31899 0.19009-0.67557 0.28516-0.9707 1.113-3.4524 1.5774-7.568 1.4199-10.801zm78.904
      0.90429c-0.04576 0.02553-0.08505 0.05973-0.11328 0.11328 0.0016 0.40651 0.01572 0.9112 0.05078
      1.5352 0.09395 0.58347 0.21842 1.2584 0.37696 2.1289 0.51864 2.8382 0.70914 8.2114 0.65234 14.408
      0.01904 1.0449 0.0096 2.0874 0.00781 3.1309 0.02469-1.708 0.0234-3.4183-0.00781-5.1309
      0.0568-6.1968-0.1337-11.57-0.65234-14.408-0.13235-0.72672-0.22748-1.2625-0.31446-1.7774zm-218.8
      11.541c-1.258 0.29089-0.10721 2.2176 3.252 7.0117 4.7826 6.8253 12.814 22.724 14.074 27.861l0.12891
      0.52148c0.35009 0.88149 0.66049 1.4059 1.0039 1.5508l1.5781-1.4844 1.1133-1.043c0.35494-0.54672
      0.54791-0.99439
      0.53125-1.5488-0.03174-0.15676-0.06648-0.30887-0.11328-0.48828l-0.17969-0.36328c-0.0685
      0.1295-0.14805 0.26141-0.23828 0.40039l-1.1133 1.043-1.5781 1.4844c-0.34341-0.14485-0.65381-0.66929-
      1.0039-1.5508l-0.12891-0.52148c-1.2604-5.1373-9.2916-21.036-14.074-27.861-1.6047-2.2901-2.6769-
      3.8956-3.252-5.0117zm-119.57 24.215c-1.931 1.3653-4.3086 7.6202-4.3086 11.422 0 0.45701-0.01648
      0.70748-0.02148 1.0644-0.01836 0.13917-0.03437 0.357-0.05273 0.48242-0.19925 1.0854-0.43408
      1.7077-0.73829
      1.9688-0.24179-0.04826-0.55281-0.19481-0.95898-0.41211-1.6337-0.87438-2.0257-0.92034-1.2891 1.4492
      0.27319 0.02886 0.69824 0.23457 1.2891 0.55078 0.40617 0.2173 0.71719 0.36385 0.95898 0.41211
      0.30421-0.26102 0.53904-0.88333 0.73829-1.9688 0.01836-0.12542 0.03437-0.34325 0.05273-0.48242 5e-3
      -0.35697 0.02148-0.60744 0.02148-1.0644 0-3.8715 2.4673-10.3 4.416-11.504 0.09528-0.05889
      0.18276-0.13773 0.26953-0.2168 0.27034-0.47064 0.47258-0.86596
      0.62109-1.1953-0.02668-0.21287-0.39659-0.38017-0.99804-0.50586zm-14 1.7676c-0.21727 0.36547-0.31344
      0.79015-0.27539 1.3398l0.68359 1.6406 0.41406 0.99023 0.89062
      0.13086-1.3047-3.1211-0.4082-0.98047zm-2.6777 5.5352c-0.4283 0.00107-0.69587 0.10385-0.74414 0.40234
      0.2171 0.53013 0.96537 2.084 1.9941 4.1113 0.5656 1.1146 0.93372 1.9054 1.1855 2.541
      0.021422-0.01535 0.056155-0.02497 0.076171-0.04101 0.14685 0.0452 0.26888 0.06739 0.36133 0.05859
      0.091773-8e-3 0.15579-0.0494 0.1875-0.125l0.41016 0.09961-0.73047-1.3086c-0.061747-0.1355-0.11672-
      0.26442-0.19531-0.42383-0.2448-0.66371-0.65947-1.5486-1.2949-2.8008-0.49409-0.97369-0.91336-1.8192-
      1.25-2.5137zm143.72 0.65039c-0.12405 0.64009-0.03989 2.3486 0.24219 4.3652 0.26783 1.9181 0.4654
      4.5257 0.51758 6.584 0.00107-0.05945-0.00333-0.1055 0-0.16993
      0.07173-2.0704-0.16047-5.8566-0.51758-8.4141-0.12323-0.88095-0.19464-1.6614-0.24219-2.3652zm8.2188
      5.3379-0.92187 0.75781c-1.2082 0.99235-2.806 3.2982-3.5527 5.125-0.89761 2.1962-1.6829 3.2507-2.2246
      3.1797-0.3591-0.30994-0.61892-1.2774-0.75976-2.7695 0.00307 0.39791 0.01125 0.82362 0 1.1484-0.01667
      0.3229 0 0.57161 0 0.85157 0.14084 1.4921 0.40066 2.4596 0.75976 2.7695 0.54167 0.07104
      1.327-0.98348 2.2246-3.1797 0.74676-1.8268 2.3446-4.1326 3.5527-5.125l1.2402-1.0195c0.3002-0.39951
      0.53841-0.73864 0.6836-0.98828l-1.002-0.75zm-148.9 2.9766c-0.034194 0.06196-0.091133 0.10021-0.17383
      0.10742-0.092447 0.0088-0.21448-0.01339-0.36133-0.05859-0.12031 0.09642-0.26396 0.17965-0.45703
      0.24804-0.54 0.19167-0.60552 0.47187-0.1875 0.88672 0.2161 0.17983 0.46072 0.3673 0.74024 0.5625
      0.016693 0 0.017578 0.00186 0.017578 0.00586 0.33959 0.22047 0.73996 0.45832 1.2598 0.73828 0.52235
      0.28131 0.99564 0.57022 1.4316 0.85352 1.0592-0.1218 1.748-0.28084 1.748-0.45703
      0-0.37635-1.4312-1.4548-3.1797-2.3965-0.34559-0.18612-0.58027-0.33394-0.83789-0.49023zm0.23633
      5.502c-0.71319 0.03558-1.494 0.05412-2.3184 0.06055 0.078171 0.26765 0.27858 0.79809 0.59961 1.5918
      0.86321 0.08839 2.4384 0.48226 4.3066 1.125 2.584 0.88904 4.8968 1.4233 5.4043 1.2676
      0.10956-0.29432 0.05515-1.0244-0.1289-1.9863-0.67391
      0.07043-2.8448-0.44501-5.2754-1.2812-0.96669-0.33258-1.8199-0.57861-2.5879-0.77735zm90.98
      7.8281c-0.27484 2.4369-0.76809 4.196-1.7715 6.4766l-2.8516 5.4648c-2.5433 4.8715-8.0726 13.84-12.285
      19.93-14.223 20.56-19.982 33.335-22.062 48.936-0.61634 4.6246-0.87445 7.4512-0.79883 10.482
      0.05965-2.3698 0.31758-4.8715 0.79883-8.4824 2.0804-15.601 7.8398-28.376 22.062-48.936 4.2126-6.0893
      9.7418-15.058 12.285-19.93l2.8516-5.4648c1.0034-2.2806 1.4966-4.0396 1.7715-6.4766v-2zm-84.311
      16.025c-0.012882 0.05388-0.018524 0.10794-0.033203 0.16211-0.04172 0.1288-0.074126 0.26111-0.13086
      0.38476-0.061746 0.136-0.12811 0.3717-0.19336 0.55664-0.090107 0.23767-0.17357 0.46595-0.2832
      0.74024-1.0193 2.5474-1.4169 5.1521-1.2832 7.5859 0.11992-1.8336 0.53909-3.7262 1.2832-5.5859
      0.10964-0.27429 0.1931-0.50257 0.2832-0.74024 0.065245-0.18494 0.13161-0.42064 0.19336-0.55664
      0.056734-0.12365 0.08914-0.25596 0.13086-0.38476 0.10514-0.38796 0.16406-0.76677
      0.16406-1.1719-0.009298-0.28957-0.06008-0.62627-0.13086-0.99023zm8.0508 8.375c-0.0582 1.1557-0.03111
      2.1791 0.07813 3.043 0.11247 0.47425 0.2473 0.93536 0.41601 1.3711 0.2725 0.70305 0.49701 1.1778
      0.73047 1.4941 0.26917 0.22494 0.57606 0.34642 0.92383 0.34375 0.38831-0.03441 0.8253-0.18252
      1.3164-0.44531 0.13968-0.07484 0.27023-0.13195 0.40039-0.18555 1.8912-0.88772 2.7405-0.55615 4.4277
      1.7734 0.11464 0.14451 0.22441 0.31994 0.33789 0.48047 0.11247 0.16145 0.21384 0.29499 0.33398
      0.47266 1.2937 1.9038 2.0369 3.7386 2.2441 5.4961 0.29224-2.3509-0.45112-4.8574-2.2441-7.4961-
      0.12014-0.17767-0.22151-0.31121-0.33398-0.47266-0.11348-0.16053-0.22325-0.33596-0.33789-0.48047-
      1.6872-2.3296-2.5366-2.6612-4.4277-1.7734-0.13016 0.0536-0.26071 0.11071-0.40039 0.18555-0.4911
      0.26279-0.92809 0.4109-1.3164 0.44531-0.34777 0.00267-0.65466-0.11881-0.92383-0.34375-0.23346-
      0.31637-0.45797-0.79109-0.73047-1.4941-0.16871-0.43573-0.30354-0.89684-0.41601-1.3711-0.04055-
      0.32061-0.06004-0.68051-0.07813-1.043zm293.44 8.6719c-0.00996-7.5e-4 -0.02416 0.00499-0.03516
      0.00586-0.68691 8.5657-1.5358 14.975-1.3125 17.83 0.11262-3.5459 0.83652-9.4492 1.4141-17.037
      0.12541-0.51174 0.11131-0.78531-0.06641-0.79883zm-297.67 4.4883c-0.04091 0.02435-0.083
      0.04762-0.12109 0.07421v0.00391c-0.85617 0.60007-1.1064 1.7164-0.77344 3.0781 0.14639-0.44139
      0.39577-0.81342 0.77344-1.0781v-0.00391c0.06207-0.04333 0.12885-0.08322 0.19726-0.12109
      0.2131-0.17459 0.49805-0.26944 0.88086-0.30664 0.19374-0.03333 0.39965-0.05264 0.6211-0.05664
      0.5662-0.01035 0.89223-0.05412 0.95898-0.15625v-0.00195c0.00333-0.01734-0.01758-0.0417-0.01758-
      0.0625-0.0287-0.0658-0.10535-0.14401-0.24219-0.24414-0.29536-0.19112-0.84123-0.45418-1.6699-0.81446-
      0.21056-0.09154-0.40627-0.20487-0.60742-0.31054zm6.3164 1.6777c-0.35509 0.1155-0.61719
      0.43973-0.61719 0.83203 1.7e-4 0.48713 0.39783 0.88477 0.88476 0.88477 0.43037 0 0.77509-0.31645
      0.85352-0.72461 5e-3 -0.04902 0.02148-0.09595
      0.02148-0.14649-0.04484-0.41984-0.44319-0.72851-1.1406-0.8457h-0.00195zm256.18
      10.738c-0.08751-0.01533-0.29723 0.10279-0.5625 0.28125-3.1039 11.734-4.4558 18.087-4.1035 20.42
      0.30194-3.459 1.8317-9.9914 4.6914-20.664-0.0084-0.01067-0.00873-0.03444-0.02539-0.03711zm-44.793
      17.934c-0.01719 0.00562-0.03568 0.00551-0.05274 0.01172-0.08343 0.03494-0.16424 0.07146-0.23437
      0.11133-0.01333 0.00747-0.01654 0.01677-0.0332 0.02344-0.1884 0.20892-0.33484 0.41383-0.43164
      0.61914-3.4e-4 0.02267 0 0.04698 0 0.07031 0.12149 0.58196 1.0542 1.5895 2.9219 3.3711 0.66165
      0.53252 1.399 1.1027 2.3008 1.7578 4.0408 2.9355 4.5942 3.0973 3.0176 0.88476-0.39871-0.55954-
      0.78542-1.0841-1.1602-1.5781-0.53068-0.36335-1.0751-0.73833-1.8574-1.3066-0.90177-0.65515-1.6391-
      1.2253-2.3008-1.7578-0.97968-0.93454-1.6869-1.648-2.1699-2.207zm10.922 7.5742c-0.33145
      0.59801-0.55946 1.0458-0.59179 1.2031 4.3674 7.7773 39.531 6.9311 54.814 2.8359 27.824-5.0377 54.296
      16.574 65.699 41.342 0.0116 0.03014 0.01654 0.06127 0.0332 0.0918 1.1937 3.2069 2.0849 6.5805 2.7148
      10.254 1.7264 6.4431 2.6287 12.9 2.7305 19.158 0.07995-6.878-0.81929-14.026-2.7305-21.158-0.62995-
      3.6734-1.5212-7.047-2.7148-10.254-0.01666-0.03053-0.0216-0.06166-0.0332-0.0918-11.403-24.768-37.875-
      46.379-65.699-41.342-14.739 3.9492-47.957 4.8751-54.223-2.0391zm88.133 86.783c-0.47426 8.3289-7.8952
      15.452-20.895 19.973-33.886 7.2437-82.378-3.1483-99.85 26.105-3.5905 7.1718-5.0496 13.726-4.8711
      19.629 0.17345-5.3739 1.6813-11.257 4.8711-17.629 17.471-29.254 65.964-18.862 99.85-26.105
      13.322-4.6331 20.807-11.995 20.938-20.592-0.00137-0.47287-0.01648-0.93291-0.04297-1.3809zm-211.41
      20.453c-0.22946 0.32346-0.51179 0.68223-0.86914 1.1074l-0.27734 0.33594c-0.38881 0.45341-0.83274
      0.96036-1.3457 1.5469l-0.76563 0.87695-0.96484
      1.0488-1.8418-0.72657-2.4473-0.96484-4.3262-1.7051v2l4.3262 1.7051 2.4473 0.96484 1.8418 0.72657
      0.96484-1.0488 0.76563-0.87695c0.51296-0.58652 0.95689-1.0935
      1.3457-1.5469l0.27734-0.33594c1.3264-1.5782 1.7872-2.3778 1.2617-2.9668l-0.39258-0.14063zm-12.838
      4.2676c-1.7e-4 0.18733-0.01562 0.34857-0.01562 0.50977-0.0384 0.84358-0.27002 1.4123-0.75195
      1.7637-0.2413 0.024-0.54564-0.02887-0.95313-0.15821-1.9631-0.62308-3.067 0.99539-3.4316 5-0.14848
      1.1316-0.20114 2.3873-0.14258 3.7129 0.02623-0.59388 0.07129-1.1696 0.14258-1.7129 0.36463-4.0046
      1.4686-5.6231 3.4316-5 0.40749 0.12934 0.71183 0.18221 0.95313 0.15821 0.48193-0.35135
      0.71355-0.92009 0.75195-1.7637 0-0.1612 0.01545-0.32244 0.01562-0.50977v-2zm48.42 3.4551c-0.23696
      0.23929-0.45268 0.50495-0.625 0.82031-1.0971 1.1772-1.3488 1.9477-1.0762 3.7207 0.15942-0.59333
      0.496-1.0982 1.0762-1.7207 0.26416-0.48343 0.60096-0.88704 1.0215-1.1816 0.1894-0.13268
      0.34563-0.24525 0.49414-0.35352l0.74805-0.74804c0.01384-0.14712-0.16745-0.25901-0.51172-0.36914l-
      1.127-0.16797zm-8.5391 3.4121c-0.01348 0.36378-0.03125 0.70773-0.03125 1.1328 1.6e-4 2.4193 0.38725
      5.4171 0.86133 6.6641 0.05892 0.15497 0.10179 0.28766 0.14844 0.42578 0.39068-0.60697
      0.29335-1.2638-0.14844-2.4258-0.4196-1.1036-0.7547-3.5648-0.83008-5.7969zm-17.354 1.6562c-0.41088
      0.09354-0.23578 0.93539 0.0664 2.3281 0.35678 1.6442 1.4842 4.447 2.5039 6.2285 0.58232 1.0173
      0.95676 1.7428 1.1641 2.3555 0.43731-1.2389 0.12411-2.1051-1.1641-4.3555-1.0198-1.7816-2.1471-
      4.5843-2.5039-6.2285-0.0273-0.12583-0.04141-0.21129-0.0664-0.32812zm-11.814 4.166c-0.03883
      0.3497-0.06846 0.72746-0.07617 1.168 0.06024 2.209 1.3897 5.8155 3.9844 10.775 1.1436 2.1861 2.1059
      4.1188 2.7832 5.5527l1.3535 0.85546-0.51368-0.98242c-0.412-1.0775-1.8415-4.0202-3.623-7.4258-2.293-
      4.3832-3.5943-7.7048-3.9082-9.9434zm61.111 3.3125c-0.05458 1.5909-0.20733 3.2823-0.49804
      4.9766-0.27413 1.5978-0.35382 2.5994-0.20313 3.3418 0.0479-0.3967 0.11681-0.83867 0.20313-1.3418
      0.4183-2.4378 0.55685-4.861 0.49804-6.9766zm135.62 0.84571c-2.5168 2.0221-8.0411 6.0916-18.238
      14.305l-17.379 13.996 0.04492 0.08203 0.6875 1.3281 16.646-13.406c20.432-16.457 22.143-16.303
      18.369-16.303-0.04319 0-0.08765-0.00193-0.13086-0.00195zm-92.609 21.395c-1.3286 19.779 38.26 41.711
      63.689 15.455 1.4536-1.4116 2.4653-2.5866
      2.875-3.2637-0.07092-0.20498-0.40331-0.24482-0.95117-0.16015-0.19425 0.10085-0.55815 0.23756-0.875
      0.36523-0.31887 0.33453-0.66562 0.68648-1.0488 1.0586-24.574 25.373-62.373 5.7436-63.689-13.455z
    "
    fill="#fff"
    opacity=".2"
    stroke-width=".88572"
  />
</svg>
