<svg xmlns="http://www.w3.org/2000/svg" xml:space="preserve" width="1190.551" height="841.89" viewBox="0 0 1190.551 841.89"><g fill="#fff"><path d="M307.259 476.064q-6.909 1.729-18.238 3.669-11.33 1.942-26.223 1.941c-8.633 0-15.901-1.261-21.8-3.774q-8.85-3.775-14.244-10.685-5.397-6.908-7.771-16.296c-1.584-6.259-2.373-13.197-2.373-20.828V367.07h20.072v58.704q0 20.508 6.475 29.354 6.473 8.85 21.798 8.85c2.159 0 4.387-.073 6.692-.219q3.45-.212 6.474-.539 3.02-.322 5.504-.646 2.477-.324 3.56-.754v-94.75h20.073v108.994zM356.25 372.034q3.668-2.373 11.115-4.963 7.446-2.591 17.159-2.59c8.055 0 15.217 1.439 21.475 4.315 6.258 2.88 11.547 6.907 15.863 12.089q6.475 7.769 9.82 18.561c2.228 7.196 3.346 15.107 3.346 23.739q-.002 13.6-3.993 24.498-3.997 10.9-11.333 18.452-7.337 7.559-17.698 11.654-10.359 4.1-23.31 4.101-14.03 0-24.82-1.94-10.795-1.942-17.698-3.885V315.269l20.072-3.451v60.216zm0 89.785q3.02.865 8.525 1.618 5.5.756 13.706.755 16.186 0 25.9-10.683 9.712-10.683 9.712-30.325-.001-8.625-1.727-16.187c-1.154-5.035-3.021-9.387-5.611-13.057q-3.887-5.503-10.036-8.635-6.154-3.126-14.785-3.128c-5.47 0-10.505.938-15.108 2.806q-6.91 2.808-10.576 5.826zM547.042 476.064q-6.908 1.729-18.239 3.669-11.33 1.942-26.223 1.941c-8.635 0-15.902-1.261-21.8-3.774q-8.852-3.775-14.244-10.685-5.397-6.908-7.771-16.296c-1.583-6.259-2.374-13.197-2.374-20.828V367.07h20.074v58.704q-.001 20.508 6.475 29.354 6.472 8.85 21.799 8.85 3.235 0 6.689-.219a142 142 0 0 0 6.475-.539q3.021-.322 5.504-.646 2.479-.324 3.562-.754v-94.75h20.072v108.994zM575.96 370.308c4.603-1.15 10.715-2.375 18.346-3.671q11.44-1.941 26.33-1.941c8.922 0 16.33 1.262 22.23 3.776 5.898 2.521 10.611 6.043 14.137 10.576 3.523 4.532 6.008 9.967 7.447 16.296q2.159 9.5 2.16 20.937V479.3h-20.074v-58.705q0-10.357-1.404-17.698c-.936-4.888-2.479-8.848-4.639-11.868q-3.24-4.533-8.633-6.584-5.402-2.051-13.381-2.051c-2.158 0-4.393.074-6.691.216q-3.455.218-6.582.54-3.136.326-5.613.756-2.484.435-3.562.646V479.3h-20.07zM713.011 367.071h42.518v16.835h-42.518v51.796c0 5.613.428 10.252 1.295 13.921q1.293 5.509 3.883 8.634 2.592 3.133 6.475 4.425 3.884 1.296 9.066 1.297 9.28.001 14.676-2.051c3.594-1.366 6.043-2.339 7.338-2.913l4.316 16.404q-3.024 1.512-10.684 3.881-7.66 2.374-17.375 2.375-11.438 0-18.883-2.913-7.448-2.915-11.979-8.739-4.533-5.83-6.367-14.354-1.835-8.525-1.836-19.749V335.775l20.074-3.451zM864.737 476.064q-6.909 1.729-18.238 3.669-11.33 1.942-26.221 1.941c-8.635 0-15.902-1.261-21.801-3.774q-8.85-3.775-14.248-10.685-5.394-6.908-7.77-16.296c-2.376-9.388-2.373-13.197-2.373-20.828V367.07h20.074v58.704q0 20.508 6.473 29.354c4.318 5.9 11.582 8.85 21.801 8.85q3.236 0 6.691-.219 3.447-.212 6.473-.539c2.016-.215 3.848-.43 5.506-.646q2.478-.324 3.559-.754v-94.75h20.074z"/></g><circle cx="928.615" cy="357.135" r="45.325" fill="#fff"/><path d="M905.093 357.135a5.828 5.828 0 1 1-11.656 0 5.828 5.828 0 0 1 11.656 0m33.154 28.335a5.828 5.828 0 0 0 10.092-5.827 5.826 5.826 0 0 0-10.092 5.827m10.092-50.842a5.823 5.823 0 0 0-2.133-7.958 5.827 5.827 0 1 0 2.133 7.958m-19.723 5.889c8.684 0 15.809 6.656 16.553 15.146l8.434-.132a24.96 24.96 0 0 0-7.354-16.167 8.18 8.18 0 0 1-7.057-.546 8.18 8.18 0 0 1-4.002-5.845 25 25 0 0 0-6.574-.874c-3.988 0-7.758.933-11.105 2.592l4.104 7.369a16.6 16.6 0 0 1 7.001-1.543m-16.619 16.618c0-5.622 2.793-10.592 7.066-13.599l-4.33-7.237a25.07 25.07 0 0 0-10.328 14.448 8.19 8.19 0 0 1 3.061 6.388 8.18 8.18 0 0 1-3.061 6.389 25.08 25.08 0 0 0 10.328 14.45l4.33-7.238c-4.273-3.007-7.066-7.977-7.066-13.601m16.619 16.621c-2.5 0-4.875-.555-7.002-1.545l-4.104 7.369a24.9 24.9 0 0 0 11.105 2.592 25 25 0 0 0 6.574-.873 8.18 8.18 0 0 1 4.002-5.845 8.18 8.18 0 0 1 7.057-.546 24.97 24.97 0 0 0 7.354-16.168l-8.434-.132c-.743 8.49-7.868 15.148-16.552 15.148"/></svg>