<svg width="64" height="64" viewBox="0 0 64 64" fill="none" xmlns="http://www.w3.org/2000/svg">
  <defs>
    <linearGradient id="weatherGradient" x1="10" y1="8" x2="52" y2="52" gradientUnits="userSpaceOnUse">
      <stop offset="0" stop-color="#02101C" />
      <stop offset="1" stop-color="#38BDF8" />
    </linearGradient>
  </defs>
  <rect x="4" y="4" width="56" height="56" rx="14" fill="url(#weatherGradient)" />
  <circle cx="26" cy="26" r="10" fill="#F8FAFC" fill-opacity="0.9" />
  <path d="M38 28C33 28 29 32 29 37C29 40 31 43 34 44H46C50 44 54 40 54 36C54 32 51 29 47 28C46 22 42 20 38 20C40 22 41 24 41 26C41 26.7 40.9 27.4 40.7 28H38Z" fill="#0F172A" fill-opacity="0.7" />
  <path d="M20 46H44" stroke="#F8FAFC" stroke-width="3" stroke-linecap="round" />
</svg>
