<svg viewBox="0 0 64 64" xmlns="http://www.w3.org/2000/svg" role="img" aria-labelledby="title desc">
  <title id="title">Asteroids arcade icon</title>
  <desc id="desc">A minimalist spaceship weaving between floating asteroids.</desc>
  <rect width="64" height="64" rx="8" fill="#08111f"/>
  <g fill="#354a66" stroke="#99b3d9" stroke-width="2" stroke-linejoin="round">
    <path d="M15 17l6-4 5 2 2 6-4 5-6-1-3-4z"/>
    <path d="M45 10l6 4 1 6-4 4-6-1-3-5 2-5z"/>
    <path d="M46 41l5 3-1 6-5 5-6-2-2-5 3-5z"/>
    <path d="M19 41l6 2 2 6-4 5-6 1-4-4 1-6z"/>
  </g>
  <g fill="none" stroke-linecap="round" stroke-width="2">
    <path d="M32 44c2.5-6 4.5-12.5 5-20" stroke="#4fd1ff"/>
    <path d="M32 44c-2.5-6-4.5-12.5-5-20" stroke="#4fd1ff"/>
    <path d="M27 24l5-12 5 12" stroke="#e0ecff" stroke-linejoin="round"/>
  </g>
  <path d="M32 45l-5 9h10z" fill="#ff6f59"/>
  <circle cx="32" cy="26" r="3" fill="#e0ecff"/>
  <path d="M29 52c-1.5 3.5-3.5 6-6 7 4.5.5 8.2-1.2 9-5z" fill="#4fd1ff" opacity="0.7"/>
  <path d="M35 52c1.5 3.5 3.5 6 6 7-4.5.5-8.2-1.2-9-5z" fill="#4fd1ff" opacity="0.7"/>
</svg>
