<svg xmlns="http://www.w3.org/2000/svg" viewBox="0 0 64 64" role="img" aria-labelledby="title desc">
  <title id="title">Battleship icon</title>
  <desc id="desc">Stylized side profile of a battleship with twin turrets on a wavy sea</desc>
  <defs>
    <linearGradient id="hullGradient" x1="0%" y1="0%" x2="0%" y2="100%">
      <stop offset="0%" stop-color="#5f6b7b" />
      <stop offset="100%" stop-color="#343c47" />
    </linearGradient>
    <linearGradient id="seaGradient" x1="0%" y1="0%" x2="100%" y2="0%">
      <stop offset="0%" stop-color="#1d87d9" />
      <stop offset="100%" stop-color="#0a5ba8" />
    </linearGradient>
  </defs>
  <rect x="4" y="44" width="56" height="8" rx="4" fill="url(#seaGradient)" />
  <path d="M8 36h48l-4 8H12z" fill="url(#hullGradient)" />
  <path d="M18 30h28v6H18z" fill="#7b8898" />
  <rect x="24" y="22" width="16" height="8" fill="#8f9cad" />
  <rect x="29" y="16" width="6" height="6" fill="#a6b3c3" />
  <path d="M32 12l3 4h-6z" fill="#c5d0dd" />
  <g fill="#2b333d">
    <rect x="20" y="28" width="6" height="4" rx="1" />
    <rect x="38" y="28" width="6" height="4" rx="1" />
  </g>
  <g fill="#e6ecf5">
    <rect x="18" y="32" width="10" height="2" rx="1" />
    <rect x="36" y="32" width="10" height="2" rx="1" />
  </g>
  <g fill="#1c242e">
    <circle cx="20" cy="40" r="2.5" />
    <circle cx="32" cy="40" r="2.5" />
    <circle cx="44" cy="40" r="2.5" />
  </g>
  <path d="M6 48c2-2 4 2 6 0s4 2 6 0 4 2 6 0 4 2 6 0 4 2 6 0 4 2 6 0 4 2 6 0" fill="none" stroke="#0b4f8b" stroke-width="1.5" stroke-linecap="round" />
  <!-- Original artwork by OpenAI Assistant (2024). Released under CC0-1.0. -->
</svg>
