<svg xmlns="http://www.w3.org/2000/svg" viewBox="0 0 128 128" role="img" aria-labelledby="title">
  <title>Calculator icon</title>
  <rect x="16" y="12" width="96" height="104" rx="16" fill="#1a1f26" stroke="#2f3b4a" stroke-width="4" />
  <rect x="28" y="24" width="72" height="24" rx="6" fill="#0f7abf" />
  <rect x="28" y="54" width="18" height="18" rx="4" fill="#2d3748" />
  <rect x="52" y="54" width="18" height="18" rx="4" fill="#2d3748" />
  <rect x="76" y="54" width="18" height="18" rx="4" fill="#2d3748" />
  <rect x="28" y="78" width="18" height="18" rx="4" fill="#2d3748" />
  <rect x="52" y="78" width="18" height="18" rx="4" fill="#2d3748" />
  <rect x="76" y="78" width="18" height="18" rx="4" fill="#1793d1" />
  <line x1="37" y1="59" x2="37" y2="67" stroke="#f6f6f5" stroke-width="4" stroke-linecap="round" />
  <line x1="32" y1="63" x2="42" y2="63" stroke="#f6f6f5" stroke-width="4" stroke-linecap="round" />
  <line x1="57" y1="59" x2="65" y2="67" stroke="#f6f6f5" stroke-width="4" stroke-linecap="round" />
  <line x1="65" y1="59" x2="57" y2="67" stroke="#f6f6f5" stroke-width="4" stroke-linecap="round" />
  <line x1="80" y1="59" x2="90" y2="69" stroke="#f6f6f5" stroke-width="4" stroke-linecap="round" />
  <line x1="80" y1="69" x2="90" y2="59" stroke="#f6f6f5" stroke-width="4" stroke-linecap="round" />
  <line x1="32" y1="83" x2="42" y2="93" stroke="#f6f6f5" stroke-width="4" stroke-linecap="round" />
  <line x1="32" y1="93" x2="42" y2="83" stroke="#f6f6f5" stroke-width="4" stroke-linecap="round" />
  <line x1="57" y1="83" x2="65" y2="91" stroke="#f6f6f5" stroke-width="4" stroke-linecap="round" />
  <line x1="57" y1="91" x2="65" y2="83" stroke="#f6f6f5" stroke-width="4" stroke-linecap="round" />
  <line x1="82" y1="84" x2="88" y2="84" stroke="#f6f6f5" stroke-width="4" stroke-linecap="round" />
  <line x1="82" y1="90" x2="88" y2="90" stroke="#f6f6f5" stroke-width="4" stroke-linecap="round" />
</svg>
