<svg xmlns="http://www.w3.org/2000/svg" width="512" height="512" viewBox="0 0 384 384"><path fill="#5e616e" d="M192.02 23.25V192h-.016V23.27H50.574c-14.059.078-25.547 10.5-27.328 24.074v144.68h.032v140.95a27.694 27.694 0 0 0 27.754 27.754h140.96v.031h141.18c15.156-.082 27.34-12.184 27.582-27.297v-141.46h-.086V50.962c0-15.059-11.875-27.21-26.805-27.71z"/><path fill="#4a4c5c" d="M191.99 192v168.75h141.18c15.152-.082 27.336-12.184 27.578-27.297v-141.46z"/><path fill="#73757f" d="M23.281 192.01v140.95a27.694 27.694 0 0 0 27.754 27.754h140.97v-168.71z"/><path fill="#4a4c5c" d="M23.25 184.52v7.5h.031v-7.5zm.031 140.95v7.5a27.694 27.694 0 0 0 27.754 27.754h140.96v.031h141.18c15.156-.082 27.34-12.184 27.582-27.297v-7.5c-.242 15.113-12.426 27.215-27.582 27.297h-141.18v-.031H51.035a27.694 27.694 0 0 1-27.754-27.754"/><path d="M368.43 282.53c0 51.016-41.359 92.375-92.379 92.375s-92.379-41.359-92.379-92.375c0-51.02 41.359-92.379 92.379-92.379s92.379 41.359 92.379 92.379" opacity=".3"/><path fill="#b8174a" d="M368.43 275.03c0 51.016-41.359 92.375-92.379 92.375s-92.379-41.359-92.379-92.375c0-51.02 41.359-92.379 92.379-92.379s92.379 41.359 92.379 92.379"/><path fill="#b3b3b3" d="M50.578 23.266c-14.059.078-25.547 10.5-27.328 24.074v144.68h168.76V23.27z"/><path d="M114.32 79.055v29.453h29.344v13.266H114.32v29.457h-13.375v-29.457H71.601v-13.266h29.344V79.055z" opacity=".3"/><path fill="#fff" d="M114.32 71.555v29.453h29.344v13.266H114.32v29.457h-13.375v-29.457H71.601v-13.266h29.344V71.555z"/><path d="M250.49 112.43h70.375v14.5H250.49z" opacity=".3"/><path fill="#fff" d="M250.49 104.93h70.375v14.5H250.49z"/><path d="m141.48 259.53-24.398 24.395 24.398 24.281-9.445 9.445-24.395-24.285-24.395 24.285-9.446-9.445 24.395-24.281L73.8 259.53l9.446-9.445 24.395 24.395 24.395-24.395z" opacity=".3"/><path fill="#fff" d="m141.48 252.03-24.398 24.395 24.398 24.281-9.445 9.445-24.395-24.285-24.395 24.285-9.446-9.445 24.395-24.281L73.8 252.03l9.446-9.445 24.395 24.395 24.395-24.395z"/><path d="M240.02 263.08h72.062v13.207H240.02zm0 25.574h72.062v13.324H240.02z" opacity=".3"/><path fill="#fff" d="M240.02 255.58h72.062v13.207H240.02zm0 25.574h72.062v13.324H240.02z"/><path fill="#fff" d="M192.022 23.25v7.5h141.84c14.93.5 26.804 12.652 26.804 27.71v-7.5c0-15.058-11.874-27.21-26.804-27.71zm-141.442.016c-14.059.078-25.547 10.5-27.329 24.074v7.5c1.782-13.575 13.27-23.996 27.329-24.074h141.428v-7.5zm141.428 168.728v7.5h.016v-7.5zm168.66 0v7.5h.086v-7.5z" opacity=".3"/></svg>