<svg width="64" height="64" viewBox="0 0 64 64" xmlns="http://www.w3.org/2000/svg" role="img" aria-labelledby="title desc">
  <title id="title">Calendar</title>
  <desc id="desc">Stylized calendar with highlighted header bar</desc>
  <rect x="6" y="10" width="52" height="48" rx="8" fill="#1f2937"/>
  <rect x="6" y="12" width="52" height="16" rx="8" fill="#2563eb"/>
  <rect x="16" y="6" width="8" height="12" rx="4" fill="#f9fafb"/>
  <rect x="40" y="6" width="8" height="12" rx="4" fill="#f9fafb"/>
  <rect x="12" y="32" width="10" height="10" rx="2" fill="#d1d5db"/>
  <rect x="26" y="32" width="10" height="10" rx="2" fill="#d1d5db"/>
  <rect x="40" y="32" width="10" height="10" rx="2" fill="#2563eb"/>
  <rect x="12" y="46" width="10" height="10" rx="2" fill="#d1d5db"/>
  <rect x="26" y="46" width="10" height="10" rx="2" fill="#d1d5db"/>
  <rect x="40" y="46" width="10" height="10" rx="2" fill="#d1d5db"/>
  <rect x="18" y="18" width="8" height="4" rx="2" fill="#bfdbfe" opacity="0.7"/>
  <rect x="38" y="18" width="8" height="4" rx="2" fill="#bfdbfe" opacity="0.7"/>
</svg>
