<svg xmlns="http://www.w3.org/2000/svg" viewBox="0 0 64 64">
  <defs>
    <linearGradient id="csp-bg" x1="0%" y1="0%" x2="100%" y2="100%">
      <stop offset="0%" stop-color="#1f2937" />
      <stop offset="100%" stop-color="#111827" />
    </linearGradient>
  </defs>
  <rect width="64" height="64" rx="8" fill="url(#csp-bg)" />
  <path
    d="M32 10a1.5 1.5 0 0 0-.64.14l-14 6.22a1.5 1.5 0 0 0-.88 1.36v11.21c0 11.62 8.03 18.79 14.48 22.69a1.5 1.5 0 0 0 1.48 0c6.45-3.9 14.48-11.07 14.48-22.69V17.72a1.5 1.5 0 0 0-.88-1.36l-14-6.22A1.5 1.5 0 0 0 32 10Z"
    fill="#0ea5e9"
  />
  <path
    d="M32 18c-4.97 0-9 4.02-9 9v4h-1a1 1 0 0 0-1 1v11a1 1 0 0 0 1 1h20a1 1 0 0 0 1-1v-11a1 1 0 0 0-1-1h-1v-4c0-4.98-4.03-9-9-9Zm0 4a5 5 0 0 1 5 5v4h-10v-4a5 5 0 0 1 5-5Z"
    fill="#f8fafc"
  />
  <path
    d="M27.5 39.5a1.5 1.5 0 0 0-1.06 2.56l3 3a1.5 1.5 0 0 0 2.12 0l6-6a1.5 1.5 0 1 0-2.12-2.12L30 41.38l-1.44-1.44a1.5 1.5 0 0 0-1.06-.44Z"
    fill="#34d399"
  />
</svg>
