<svg xmlns="http://www.w3.org/2000/svg" viewBox="0 0 96 96" role="img" aria-labelledby="title">
  <title>Disk Analyzer</title>
  <defs>
    <linearGradient id="treemap" x1="0%" y1="0%" x2="100%" y2="100%">
      <stop offset="0%" stop-color="#f9a825" />
      <stop offset="100%" stop-color="#f57c00" />
    </linearGradient>
    <linearGradient id="sunburst" x1="0%" y1="0%" x2="0%" y2="100%">
      <stop offset="0%" stop-color="#42a5f5" />
      <stop offset="100%" stop-color="#1e88e5" />
    </linearGradient>
  </defs>
  <rect x="6" y="6" width="84" height="84" rx="18" fill="#1c1f2b" />
  <g transform="translate(16 16)">
    <rect x="0" y="0" width="36" height="36" fill="#263238" rx="6" />
    <rect x="0" y="0" width="20" height="18" fill="url(#treemap)" rx="4" />
    <rect x="22" y="0" width="14" height="10" fill="#ffb300" rx="3" />
    <rect x="22" y="12" width="14" height="22" fill="#ffca28" rx="3" />
    <rect x="0" y="20" width="20" height="16" fill="#ff6f00" rx="4" />
  </g>
  <g transform="translate(52 28)">
    <circle cx="20" cy="20" r="20" fill="#0d47a1" />
    <path d="M20 0A20 20 0 0 1 34.142 5.858L20 20Z" fill="#90caf9" />
    <path d="M34.142 5.858A20 20 0 0 1 38 20H20Z" fill="#64b5f6" />
    <path d="M38 20A20 20 0 0 1 24 38L20 20Z" fill="#1e88e5" />
    <path d="M24 38A20 20 0 0 1 20 40V20Z" fill="#0d47a1" />
    <circle cx="20" cy="20" r="7" fill="url(#sunburst)" />
  </g>
  <rect x="22" y="64" width="52" height="12" rx="6" fill="#263238" />
  <rect x="22" y="64" width="28" height="12" rx="6" fill="#66bb6a" />
  <circle cx="24" cy="24" r="4" fill="#ffeb3b" />
  <circle cx="30" cy="24" r="4" fill="#29b6f6" />
  <circle cx="36" cy="24" r="4" fill="#ab47bc" />
</svg>
