<svg xmlns="http://www.w3.org/2000/svg" viewBox="0 0 128 128" role="img" aria-labelledby="title desc">
  <title id="title">Firefox</title>
  <desc id="desc">A simplified orange and purple fox forming a circular browser icon.</desc>
  <defs>
    <linearGradient id="firefox-gradient" x1="14%" y1="12%" x2="86%" y2="88%">
      <stop offset="0%" stop-color="#ff9d00" />
      <stop offset="45%" stop-color="#ff5f1f" />
      <stop offset="100%" stop-color="#7a1fff" />
    </linearGradient>
  </defs>
  <circle cx="64" cy="64" r="60" fill="url(#firefox-gradient)" />
  <path
    d="M93 40c-6.6-11.5-17.7-18-29-18-18.6 0-34 15.4-34 34 0 16.6 11.9 31 28.2 33.6 7.7 1.2 15-0.4 21-4.4 6.9-4.6 10.8-11.9 10.8-20.3 0-7.6-3.1-13.9-9.2-18.8-2.2-1.8-5 1-3.8 3.4 1.6 3.1 2.4 6.6 2.4 10.3 0 10.8-7.5 18.8-17.7 18.8-11.2 0-19.9-8.9-19.9-20.8 0-12.5 9-21.2 21.8-21.2 1.9 0 3.7 0.2 5.4 0.6 2.7 0.7 4.6-2.6 2.8-4.7-3.2-3.9-7.5-6.6-12.6-7.7 10.2-4.4 21.8-0.5 29.8 11.6 0.9 1.3 2.8 1.1 3.6-0.3 0.8-1.2 0.9-2.6 0.2-3.6z"
    fill="#fff2dd"
    opacity="0.85"
  />
</svg>
