<svg xmlns="http://www.w3.org/2000/svg" aria-labelledby="title desc" viewBox="0 0 512 512"><title>Firefox</title><desc>A fiery gradient Firefox logo with swirling shapes in orange, red, and purple hues.</desc><defs><radialGradient id="b" cx="-7907.2" cy="-8515.1" r="80.797" gradientTransform="translate(44909 47998)scale(5.6273)" gradientUnits="userSpaceOnUse"><stop offset=".129" stop-color="#fc4"/><stop offset=".186" stop-color="#fd9733"/><stop offset=".247" stop-color="#fd8a19"/><stop offset=".283" stop-color="#fd8a19"/><stop offset=".403" stop-color="#fd4949"/><stop offset=".467" stop-color="#fd4949"/><stop offset=".71" stop-color="#bf2e5e"/><stop offset=".782" stop-color="#bf2e5e"/><stop offset=".86" stop-color="#b8174c"/></radialGradient><radialGradient id="c" cx="-7936.7" cy="-8482.1" r="80.797" gradientTransform="translate(44909 47998)scale(5.6273)" gradientUnits="userSpaceOnUse"><stop offset=".3" stop-color="#951212"/><stop offset=".351" stop-color="#b22525" stop-opacity=".74"/><stop offset=".435" stop-color="#d83030" stop-opacity=".343"/><stop offset=".497" stop-color="#fd3535" stop-opacity=".094"/><stop offset=".53" stop-color="#fd4949" stop-opacity="0"/></radialGradient><radialGradient id="d" cx="-7927" cy="-8533.5" r="58.534" gradientTransform="translate(44909 47998)scale(5.6273)" gradientUnits="userSpaceOnUse"><stop offset=".132" stop-color="#f8de68"/><stop offset=".252" stop-color="#fc4"/><stop offset=".506" stop-color="#fd8a19"/><stop offset=".526" stop-color="#fd8a19"/></radialGradient><radialGradient id="f" cx="-7937.7" cy="-8518.4" r="27.676" gradientTransform="translate(44909 47998)scale(5.6273)" gradientUnits="userSpaceOnUse"><stop offset="0" stop-color="#ffc730"/><stop offset=".121" stop-color="#ffc730"/><stop offset=".295" stop-color="#ffc730"/><stop offset=".502" stop-color="#fd9733"/><stop offset=".732" stop-color="#fd9733"/><stop offset=".792" stop-color="#fd5d5d"/></radialGradient><radialGradient id="h" cx="-7916" cy="-8536" r="118.08" gradientTransform="translate(44909 47998)scale(5.6273)" gradientUnits="userSpaceOnUse"><stop offset=".113" stop-color="#f8de68"/><stop offset=".456" stop-color="#fd8a19"/><stop offset=".622" stop-color="#fd4949"/><stop offset=".716" stop-color="#fd3535"/><stop offset=".904" stop-color="#bf2e5e"/></radialGradient><radialGradient id="i" cx="-7927.2" cy="-8522.9" r="86.499" gradientTransform="matrix(.59087 5.5992 -3.6746 .38829 -26328 47695)" gradientUnits="userSpaceOnUse"><stop offset="0" stop-color="#f8de68"/><stop offset=".06" stop-color="#ffd259"/><stop offset=".168" stop-color="#ffc730"/><stop offset=".304" stop-color="#fd8a19"/><stop offset=".356" stop-color="#fd8a19"/><stop offset=".455" stop-color="#fd8a19"/><stop offset=".57" stop-color="#fd3535"/><stop offset=".737" stop-color="#bf2e5e"/></radialGradient><radialGradient id="j" cx="-7938.4" cy="-8508.2" r="73.72" gradientTransform="translate(44909 47998)scale(5.6273)" gradientUnits="userSpaceOnUse"><stop offset=".137" stop-color="#f8de68"/><stop offset=".48" stop-color="#fd8a19"/><stop offset=".592" stop-color="#fd4949"/><stop offset=".655" stop-color="#fd3535"/><stop offset=".904" stop-color="#bf2e5e"/></radialGradient><radialGradient id="k" cx="-7918.9" cy="-8503.9" r="80.686" gradientTransform="translate(44909 47998)scale(5.6273)" gradientUnits="userSpaceOnUse"><stop offset=".094" stop-color="#f8de68"/><stop offset=".231" stop-color="#fc4"/><stop offset=".509" stop-color="#ffc730"/><stop offset=".626" stop-color="#fd8a19"/></radialGradient><radialGradient id="e" cx="255.2" cy="267.3" r="96.869" gradientTransform="matrix(1.829 0 0 2.0032 -211.57 -258.89)" gradientUnits="userSpaceOnUse"><stop offset="0" stop-color="#367bf0"/><stop offset=".3" stop-color="#367bf0"/><stop offset="1" stop-color="#d41919"/></radialGradient><linearGradient id="a" x1="70.786" x2="6.447" y1="12.393" y2="74.468" gradientTransform="translate(30.855 30.977)scale(5.6273)" gradientUnits="userSpaceOnUse"><stop offset=".048" stop-color="#f8de68"/><stop offset=".111" stop-color="#ffd259"/><stop offset=".225" stop-color="#ffc730"/><stop offset=".368" stop-color="#fd8a19"/><stop offset=".401" stop-color="#fd8a19"/><stop offset=".462" stop-color="#fd8a19"/><stop offset=".534" stop-color="#fd3535"/><stop offset=".705" stop-color="#bf2e5e"/></linearGradient><linearGradient id="l" x1="70.013" x2="15.267" y1="12.061" y2="66.806" gradientTransform="translate(30.855 30.977)scale(5.6273)" gradientUnits="userSpaceOnUse"><stop offset=".167" stop-color="#f8de68" stop-opacity=".8"/><stop offset=".266" stop-color="#f8de68" stop-opacity=".634"/><stop offset=".489" stop-color="#f8de68" stop-opacity=".217"/><stop offset=".6" stop-color="#f8de68" stop-opacity="0"/></linearGradient></defs><g stroke-width="5.627"><path fill="url(#a)" d="M458.06 181.96c-9.476-22.802-28.699-47.421-43.752-55.204a226.6 226.6 0 0 1 22.087 66.2l.04.366c-24.66-61.478-66.477-86.267-100.63-140.24-1.728-2.73-3.456-5.464-5.138-8.351a69 69 0 0 1-2.403-4.502 39.7 39.7 0 0 1-3.253-8.638.563.563 0 0 0-.495-.563.8.8 0 0 0-.41 0c-.029 0-.074.051-.108.062s-.107.062-.157.085l.084-.147c-54.782 32.076-73.369 91.455-75.08 121.16a109.1 109.1 0 0 0-60.02 23.134 65 65 0 0 0-5.628-4.265 101.1 101.1 0 0 1-.614-53.308 161.5 161.5 0 0 0-52.497 40.573h-.1c-8.644-10.956-8.037-47.084-7.541-54.63a39 39 0 0 0-7.282 3.866 159 159 0 0 0-21.316 18.26 190.5 190.5 0 0 0-20.388 24.463v.034-.04a184.2 184.2 0 0 0-29.262 66.082l-.293 1.44c-.41 1.92-1.89 11.53-2.144 13.619 0 .163-.034.315-.05.478a208 208 0 0 0-3.54 30.067v1.126a218.11 218.11 0 0 0 433.04 36.88c.366-2.813.664-5.599.99-8.44a224.3 224.3 0 0 0-14.147-109.56zM206.69 352.68c1.019.49 1.975 1.019 3.022 1.486l.152.095q-1.587-.76-3.174-1.581m229.759-159.305v-.208l.04.23z"/><path fill="url(#b)" d="M458.06 181.96c-9.476-22.802-28.699-47.421-43.752-55.204a226.6 226.6 0 0 1 22.087 66.2v.208l.04.23a197.52 197.52 0 0 1-6.787 147.2c-24.997 53.635-85.502 108.61-180.21 105.93-102.33-2.897-192.45-78.832-209.3-178.29-3.067-15.682 0-23.634 1.542-36.38a162.5 162.5 0 0 0-3.506 30.095v1.125a218.11 218.11 0 0 0 433.04 36.881c.366-2.813.664-5.599.99-8.44a224.3 224.3 0 0 0-14.147-109.56z"/><path fill="url(#c)" d="M458.06 181.96c-9.476-22.802-28.699-47.421-43.752-55.204a226.6 226.6 0 0 1 22.087 66.2v.208l.04.23a197.52 197.52 0 0 1-6.787 147.2c-24.997 53.635-85.502 108.61-180.21 105.93-102.33-2.897-192.45-78.832-209.3-178.29-3.067-15.682 0-23.634 1.542-36.38a162.5 162.5 0 0 0-3.506 30.095v1.125a218.11 218.11 0 0 0 433.04 36.881c.366-2.813.664-5.599.99-8.44a224.3 224.3 0 0 0-14.147-109.56z"/><path fill="url(#d)" d="M352.07 207.6c.473.332.912.664 1.356.996a118.7 118.7 0 0 0-20.258-26.42c-67.787-67.798-17.765-147-9.33-151.03l.084-.124c-54.782 32.076-73.369 91.455-75.08 121.16 2.544-.174 5.065-.388 7.665-.388A110.07 110.07 0 0 1 352.07 207.6"/><path fill="url(#e)" d="M256.65 221.14c-.36 5.425-19.527 24.136-26.229 24.136-62.019 0-72.086 37.517-72.086 37.517 2.746 31.592 24.76 57.613 51.372 71.377a76 76 0 0 0 3.68 1.756q3.203 1.418 6.404 2.622a97 97 0 0 0 28.38 5.475c108.7 5.099 129.76-129.99 51.315-169.19a75.3 75.3 0 0 1 52.587 12.768c-28.124-35.274-65.395-58.03-103.23-55.418a109.1 109.1 0 0 0-60.02 23.134c3.325 2.814 7.078 6.573 14.985 14.367 14.8 14.58 52.756 29.684 52.841 31.457z"/><path fill="url(#f)" d="M178.66 168.06a140 140 0 0 1 4.502 2.988 101.1 101.1 0 0 1-.614-53.308 161.5 161.5 0 0 0-52.497 40.573c1.064-.028 32.7-.596 48.61 9.747z"/><path fill="url(#h)" d="M40.162 268.24c16.831 99.457 106.97 175.39 209.3 178.29 94.708 2.679 155.21-52.3 180.21-105.93a197.52 197.52 0 0 0 6.787-147.2v-.208c0-.163-.034-.26 0-.208l.039.365c7.738 50.516-17.957 99.457-58.125 132.55l-.124.282c-78.265 63.74-153.16 38.457-168.32 28.137q-1.587-.76-3.174-1.582c-45.632-21.812-64.483-63.386-60.443-99.04a56.01 56.01 0 0 1-51.664-32.499 82.26 82.26 0 0 1 80.184-3.218 108.6 108.6 0 0 0 81.89 3.218c-.085-1.772-38.042-16.882-52.842-31.457-7.906-7.793-11.66-11.547-14.986-14.367a65 65 0 0 0-5.627-4.265 306 306 0 0 0-4.502-2.988c-15.908-10.343-47.545-9.775-48.592-9.747h-.101c-8.644-10.956-8.036-47.084-7.54-54.63a39 39 0 0 0-7.282 3.866 159 159 0 0 0-21.316 18.261 190.5 190.5 0 0 0-20.472 24.406v.034-.04A184.2 184.2 0 0 0 44.2 216.354c-.107.444-7.856 34.32-4.035 51.89z"/><path fill="url(#i)" d="M333.18 182.18a118.7 118.7 0 0 1 20.258 26.448c1.199.906 2.319 1.806 3.27 2.679 49.446 45.58 23.538 110.01 21.608 114.6 40.168-33.094 65.84-82.035 58.125-132.55-24.67-61.507-66.486-86.295-100.64-140.27-1.727-2.73-3.455-5.464-5.137-8.351a69 69 0 0 1-2.403-4.502 39.7 39.7 0 0 1-3.253-8.638.563.563 0 0 0-.495-.563.8.8 0 0 0-.41 0c-.029 0-.074.05-.108.062-.033.011-.107.062-.157.084-8.436 4.001-58.457 83.206 9.341 151z"/><path fill="url(#j)" d="M356.68 211.28c-.951-.872-2.07-1.773-3.27-2.679-.444-.332-.883-.664-1.356-.996a75.3 75.3 0 0 0-52.587-12.768c78.445 39.222 57.4 174.29-51.316 169.19a97 97 0 0 1-28.379-5.475q-3.202-1.199-6.404-2.622c-1.232-.563-2.464-1.126-3.68-1.756l.152.096c15.16 10.349 90.037 35.632 168.32-28.137l.124-.282c1.953-4.558 27.86-69.008-21.61-114.57z"/><path fill="url(#k)" d="M158.34 282.79s10.067-37.517 72.086-37.517c6.702 0 25.886-18.711 26.229-24.136a108.6 108.6 0 0 1-81.889-3.219 82.26 82.26 0 0 0-80.184 3.219 56.01 56.01 0 0 0 51.664 32.498c-4.04 35.66 14.811 77.235 60.443 99.041 1.019.49 1.975 1.019 3.022 1.486-26.634-13.76-48.626-39.78-51.372-71.371z"/><path fill="url(#l)" d="M458.06 181.96c-9.476-22.802-28.699-47.421-43.752-55.204a226.6 226.6 0 0 1 22.087 66.2l.04.366c-24.66-61.478-66.477-86.267-100.63-140.24-1.728-2.73-3.456-5.464-5.138-8.351a69 69 0 0 1-2.403-4.502 39.7 39.7 0 0 1-3.253-8.638.563.563 0 0 0-.495-.563.8.8 0 0 0-.41 0c-.029 0-.074.051-.108.062s-.107.062-.157.085l.084-.147c-54.782 32.076-73.369 91.455-75.08 121.16 2.544-.174 5.065-.388 7.665-.388a110.07 110.07 0 0 1 95.563 55.806 75.3 75.3 0 0 0-52.587-12.768c78.445 39.222 57.399 174.29-51.316 169.19a97 97 0 0 1-28.38-5.475q-3.201-1.199-6.403-2.623c-1.233-.562-2.465-1.125-3.68-1.755l.151.095q-1.587-.76-3.174-1.58c1.02.489 1.976 1.018 3.022 1.485-26.634-13.764-48.626-39.785-51.372-71.377 0 0 10.067-37.517 72.086-37.517 6.702 0 25.886-18.711 26.23-24.136-.085-1.773-38.042-16.882-52.842-31.457-7.906-7.794-11.66-11.547-14.986-14.367a65 65 0 0 0-5.627-4.266 101.1 101.1 0 0 1-.613-53.308 161.5 161.5 0 0 0-52.497 40.573h-.102c-8.643-10.956-8.035-47.084-7.54-54.63a39 39 0 0 0-7.282 3.866 159 159 0 0 0-21.316 18.261 190.5 190.5 0 0 0-20.388 24.462v.034-.04a184.2 184.2 0 0 0-29.262 66.083l-.293 1.44c-.41 1.92-2.25 11.665-2.515 13.76a254 254 0 0 0-3.219 30.403v1.126a218.11 218.11 0 0 0 433.04 36.88c.366-2.813.664-5.599.99-8.44a224.3 224.3 0 0 0-14.146-109.56zm-21.637 11.204.04.23z"/><path d="M255.93 151.99a86 86 0 0 0-7.086.195 109.1 109.1 0 0 0-60.02 23.135c1.71 1.448 3.598 3.21 6.044 5.58a109.1 109.1 0 0 1 53.977-18.715c30.56-2.11 60.752 12.34 86.055 36.562a75.3 75.3 0 0 1 17.174 8.856c-26.367-33.07-60.772-55.137-96.143-55.613zm53.965 52.219a75 75 0 0 0-10.41.627c30.029 15.006 45.46 44.064 46.992 73.93 1.451-27.75-9.042-56.061-31.998-74.357a75 75 0 0 0-4.584-.2zm-57.592 24.266c-6.138 7.408-17.131 16.805-21.883 16.805-62.019 0-72.086 37.518-72.086 37.518a77 77 0 0 0 1.008 7.316c3.634-8.509 19.055-34.834 71.078-34.834 6.702 0 25.868-18.712 26.229-24.137-.017-.362-1.679-1.307-4.346-2.668z" opacity=".3"/></g></svg>