<svg width="64" height="64" viewBox="0 0 64 64" fill="none" xmlns="http://www.w3.org/2000/svg">
  <rect width="64" height="64" rx="12" fill="#1F2937"/>
  <path d="M16 24H48" stroke="#60A5FA" stroke-width="4" stroke-linecap="round" stroke-opacity="0.8"/>
  <path d="M16 32H44" stroke="#60A5FA" stroke-width="4" stroke-linecap="round" stroke-opacity="0.6"/>
  <path d="M16 40H40" stroke="#60A5FA" stroke-width="4" stroke-linecap="round" stroke-opacity="0.4"/>
  <path d="M33 18C28.5817 18 25 21.5817 25 26V44C25 45.6569 26.3431 47 28 47C29.1046 47 30 46.1046 30 45V34C30 32.8954 30.8954 32 32 32C33.1046 32 34 32.8954 34 34V45C34 46.1046 34.8954 47 36 47C37.1046 47 38 46.1046 38 45V36C38 34.8954 38.8954 34 40 34C41.1046 34 42 34.8954 42 36V42C42 43.1046 42.8954 44 44 44C45.1046 44 46 43.1046 46 42V31C46 24.3726 40.6274 19 34 19H33Z" fill="#FBBF24"/>
  <circle cx="20" cy="20" r="6" fill="#F9FAFB" fill-opacity="0.9"/>
</svg>
