<svg xmlns="http://www.w3.org/2000/svg" viewBox="0 0 128 128" role="img" aria-labelledby="title">
  <title>Settings gear icon</title>
  <circle cx="64" cy="64" r="48" fill="#1a1f26" stroke="#2f3b4a" stroke-width="6" />
  <g fill="#1793d1">
    <rect x="60" y="16" width="8" height="20" rx="3" />
    <rect x="60" y="92" width="8" height="20" rx="3" />
    <rect x="92" y="60" width="20" height="8" rx="3" />
    <rect x="16" y="60" width="20" height="8" rx="3" />
    <rect x="84" y="28" width="8" height="20" rx="3" transform="rotate(45 88 38)" />
    <rect x="84" y="80" width="8" height="20" rx="3" transform="rotate(135 88 90)" />
    <rect x="36" y="80" width="8" height="20" rx="3" transform="rotate(45 40 90)" />
    <rect x="36" y="28" width="8" height="20" rx="3" transform="rotate(135 40 38)" />
  </g>
  <circle cx="64" cy="64" r="26" fill="#0f7abf" />
  <circle cx="64" cy="64" r="12" fill="#f6f6f5" />
</svg>
