<svg width="64" height="64" viewBox="0 0 64 64" xmlns="http://www.w3.org/2000/svg" role="img" aria-labelledby="title desc">
  <title id="title">Help Hub icon</title>
  <desc id="desc">Question mark inside a rounded gradient square</desc>
  <defs>
    <linearGradient id="grad" x1="0%" y1="0%" x2="100%" y2="100%">
      <stop offset="0%" stop-color="#3b82f6" />
      <stop offset="100%" stop-color="#9333ea" />
    </linearGradient>
  </defs>
  <rect x="4" y="4" width="56" height="56" rx="14" fill="url(#grad)" />
  <path
    fill="#f9fafb"
    d="M32 16c-8.284 0-14 5.048-14 11.6 0 4.116 2.11 7.336 5.88 9.092-.088 1.572-.73 3.632-2.108 5.652a2 2 0 0 0 1.672 3.156c3.716-.176 6.796-1.164 8.924-2.956 5.468-.3 9.632-4.48 9.632-9.944C42 21.048 36.284 16 32 16Zm0 6c2.642 0 6 1.708 6 5.6 0 2.756-1.996 4.4-4.8 4.4h-.4a2 2 0 0 0-1.76 1.032c-.54.94-1.492 1.884-2.908 2.716.484-1.388.76-2.76.76-3.884a2 2 0 0 0-1.24-1.844C26.96 28.988 26 27.724 26 25.6 26 23.708 28.23 22 32 22Zm0 18a4 4 0 1 0 0 8 4 4 0 0 0 0-8Z"
  />
</svg>
