<svg xmlns="http://www.w3.org/2000/svg" viewBox="0 0 100 100" role="img" aria-labelledby="title desc">
  <title id="title">Input Lab controls</title>
  <desc id="desc">Stylised control console with sliders and lab glassware</desc>
  <defs>
    <linearGradient id="bg" x1="0%" y1="0%" x2="100%" y2="100%">
      <stop offset="0%" stop-color="#1f2937"/>
      <stop offset="100%" stop-color="#0f172a"/>
    </linearGradient>
    <linearGradient id="panel" x1="0%" y1="0%" x2="0%" y2="100%">
      <stop offset="0%" stop-color="#f9fafb"/>
      <stop offset="100%" stop-color="#d1d5db"/>
    </linearGradient>
    <linearGradient id="table" x1="0%" y1="0%" x2="100%" y2="0%">
      <stop offset="0%" stop-color="#374151"/>
      <stop offset="100%" stop-color="#4b5563"/>
    </linearGradient>
    <linearGradient id="glass" x1="0%" y1="0%" x2="0%" y2="100%">
      <stop offset="0%" stop-color="#60a5fa" stop-opacity="0.9"/>
      <stop offset="100%" stop-color="#2563eb" stop-opacity="0.8"/>
    </linearGradient>
    <linearGradient id="glass2" x1="0%" y1="0%" x2="0%" y2="100%">
      <stop offset="0%" stop-color="#fbbf24" stop-opacity="0.95"/>
      <stop offset="100%" stop-color="#f97316" stop-opacity="0.85"/>
    </linearGradient>
    <linearGradient id="slider" x1="0%" y1="0%" x2="0%" y2="100%">
      <stop offset="0%" stop-color="#94a3b8"/>
      <stop offset="100%" stop-color="#64748b"/>
    </linearGradient>
    <linearGradient id="knob" x1="0%" y1="0%" x2="100%" y2="100%">
      <stop offset="0%" stop-color="#cbd5f5"/>
      <stop offset="100%" stop-color="#818cf8"/>
    </linearGradient>
  </defs>
  <rect width="100" height="100" fill="url(#bg)" rx="12"/>
  <rect x="10" y="60" width="80" height="18" rx="5" fill="url(#table)"/>
  <rect x="18" y="25" width="64" height="42" rx="6" fill="url(#panel)" stroke="#9ca3af" stroke-width="1"/>
  <g opacity="0.5" fill="none" stroke="#cbd5f5" stroke-width="0.8">
    <path d="M24 32h52"/>
    <path d="M24 38h52"/>
    <path d="M24 44h52"/>
    <path d="M24 50h52"/>
  </g>
  <rect x="28" y="33" width="44" height="2.5" rx="1.25" fill="#60a5fa" opacity="0.7"/>
  <rect x="28" y="39" width="34" height="2.5" rx="1.25" fill="#34d399" opacity="0.8"/>
  <rect x="28" y="45" width="18" height="2.5" rx="1.25" fill="#f97316" opacity="0.85"/>
  <g transform="translate(30 53)">
    <rect x="0" y="0" width="40" height="4" rx="2" fill="url(#slider)"/>
    <circle cx="26" cy="2" r="5" fill="url(#knob)" stroke="#1e293b" stroke-width="0.6"/>
  </g>
  <g transform="translate(20 54)">
    <rect x="0" y="0" width="4" height="10" rx="2" fill="#e5e7eb" stroke="#94a3b8" stroke-width="0.7"/>
    <rect x="9" y="0" width="4" height="10" rx="2" fill="#e5e7eb" stroke="#94a3b8" stroke-width="0.7"/>
  </g>
  <g transform="translate(68 18)">
    <rect x="-4" y="37" width="12" height="18" rx="3" fill="#1f2937" stroke="#475569" stroke-width="0.8"/>
    <path d="M-1 37h6" stroke="#6366f1" stroke-width="1.2" stroke-linecap="round"/>
  </g>
  <g transform="translate(28 23)">
    <path d="M0 28c0-8 5-15 12-15s12 7 12 15v9h-24z" fill="url(#glass)" stroke="#1d4ed8" stroke-width="1"/>
    <path d="M10 13h4l-1 5h-2z" fill="#bfdbfe"/>
    <path d="M9 8h6l1 5H8z" fill="#93c5fd"/>
  </g>
  <g transform="translate(52 18)">
    <path d="M6 42H2l-2-24h10l-2 24z" fill="url(#glass2)" stroke="#f97316" stroke-width="1"/>
    <rect x="1" y="7" width="6" height="4" rx="1" fill="#fef3c7"/>
    <path d="M0 6c0-3.5 3-6 6-6s6 2.5 6 6" fill="none" stroke="#fde68a" stroke-width="1"/>
  </g>
  <circle cx="25" cy="72" r="3" fill="#facc15"/>
  <circle cx="75" cy="72" r="3" fill="#22d3ee"/>
</svg>
