<svg width="128" height="128" viewBox="0 0 128 128" fill="none" xmlns="http://www.w3.org/2000/svg" role="img" aria-labelledby="title desc">
  <title id="title">Media Manager Icon</title>
  <desc id="desc">Stylised play button and stacked cards representing playlists.</desc>
  <rect x="12" y="18" width="88" height="92" rx="12" fill="url(#paint0)" />
  <rect x="24" y="30" width="76" height="18" rx="6" fill="url(#paint1)" />
  <rect x="24" y="56" width="64" height="14" rx="6" fill="#0f172a" opacity="0.85" />
  <rect x="24" y="78" width="52" height="14" rx="6" fill="#0f172a" opacity="0.65" />
  <g filter="url(#shadow)">
    <circle cx="90" cy="82" r="26" fill="url(#paint2)" />
    <path d="M83 82V72.5C83 71.1193 84.1193 70 85.5 70C85.9456 70 86.3848 70.132 86.7639 70.3795L98.7639 78.3795C99.9391 79.1641 100.259 80.7736 99.4745 81.9488C99.278 82.2428 99.0197 82.4985 98.7157 82.7004L86.7157 90.7004C85.554 91.4688 84.0196 91.1544 83.2511 89.9927C83.0868 89.7414 83 89.4454 83 89.1426V82Z" fill="#0f172a" />
  </g>
  <defs>
    <linearGradient id="paint0" x1="12" y1="18" x2="120" y2="126" gradientUnits="userSpaceOnUse">
      <stop stop-color="#0f172a" />
      <stop offset="1" stop-color="#1e3a8a" />
    </linearGradient>
    <linearGradient id="paint1" x1="24" y1="30" x2="100" y2="48" gradientUnits="userSpaceOnUse">
      <stop stop-color="#38bdf8" />
      <stop offset="1" stop-color="#22d3ee" />
    </linearGradient>
    <linearGradient id="paint2" x1="64" y1="56" x2="112" y2="104" gradientUnits="userSpaceOnUse">
      <stop stop-color="#38bdf8" />
      <stop offset="1" stop-color="#0ea5e9" />
    </linearGradient>
    <filter id="shadow" x="60" y="52" width="60" height="60" filterUnits="userSpaceOnUse" color-interpolation-filters="sRGB">
      <feFlood flood-opacity="0" result="BackgroundImageFix" />
      <feColorMatrix in="SourceAlpha" type="matrix" values="0 0 0 0 0 0 0 0 0 0 0 0 0 0 0 0 0 0 127 0" result="hardAlpha" />
      <feOffset dy="2" />
      <feGaussianBlur stdDeviation="4" />
      <feComposite in2="hardAlpha" operator="out" />
      <feColorMatrix type="matrix" values="0 0 0 0 0 0 0 0 0 0.6 0 0 0 0 0.9 0 0 0 0.3 0" />
      <feBlend mode="normal" in2="BackgroundImageFix" result="effect1_dropShadow" />
      <feBlend mode="normal" in="SourceGraphic" in2="effect1_dropShadow" result="shape" />
    </filter>
  </defs>
</svg>
