<svg xmlns="http://www.w3.org/2000/svg" viewBox="0 0 64 64" role="img" aria-label="NetHunter icon">
  <defs>
    <linearGradient id="nethunter-bg" x1="0%" y1="0%" x2="100%" y2="100%">
      <stop offset="0%" stop-color="#0f1317" />
      <stop offset="100%" stop-color="#1a1f26" />
    </linearGradient>
    <linearGradient id="nethunter-accent" x1="0%" y1="0%" x2="100%" y2="100%">
      <stop offset="0%" stop-color="#1793d1" />
      <stop offset="100%" stop-color="#0f6fa1" />
    </linearGradient>
  </defs>
  <rect width="64" height="64" rx="8" ry="8" fill="url(#nethunter-bg)" />
  <path
    d="M12 46c6-12 12-18 20-18s14 6 20 18c-6 4-12 6-20 6s-14-2-20-6z"
    fill="rgba(23,147,209,0.25)"
  />
  <path
    d="M32 14c6 0 12 3 16 8-4 3-8 5-16 5s-12-2-16-5c4-5 10-8 16-8z"
    fill="url(#nethunter-accent)"
  />
  <path
    d="M20 28c4 2 8 3 12 3s8-1 12-3l4 6c-5 3-10 4-16 4s-11-1-16-4l4-6z"
    fill="#0f6fa1"
    opacity="0.85"
  />
  <circle cx="32" cy="32" r="6" fill="#0f1317" stroke="#1793d1" stroke-width="2" />
  <path
    d="M32 27l3 5-3 5-3-5 3-5z"
    fill="#1793d1"
  />
</svg>
