<svg width="64" height="64" viewBox="0 0 64 64" fill="none" xmlns="http://www.w3.org/2000/svg">
  <defs>
    <linearGradient id="note-bg" x1="12" y1="6" x2="52" y2="58" gradientUnits="userSpaceOnUse">
      <stop offset="0" stop-color="#38bdf8" />
      <stop offset="1" stop-color="#6366f1" />
    </linearGradient>
  </defs>
  <rect x="8" y="6" width="48" height="52" rx="8" fill="url(#note-bg)" />
  <path d="M40 6H48C52.4183 6 56 9.58172 56 14V30L40 14V6Z" fill="rgba(15,23,42,0.2)" />
  <rect x="16" y="20" width="24" height="4" rx="2" fill="#e2e8f0" opacity="0.9" />
  <rect x="16" y="30" width="32" height="4" rx="2" fill="#e2e8f0" opacity="0.85" />
  <rect x="16" y="40" width="28" height="4" rx="2" fill="#e2e8f0" opacity="0.8" />
  <path d="M40 14L56 30V50C56 54.4183 52.4183 58 48 58H24C19.5817 58 16 54.4183 16 50V48H38C39.6569 48 41 46.6569 41 45V22L40 21.0016V14Z" fill="rgba(15,23,42,0.12)" />
</svg>
