<svg xmlns="http://www.w3.org/2000/svg" viewBox="0 0 64 64" role="img" aria-labelledby="title desc">
  <title id="title">Pinball machine icon</title>
  <desc id="desc">Stylized purple pinball cabinet with glowing playfield and chrome legs.</desc>
  <defs>
    <linearGradient id="cabinet" x1="0" x2="0" y1="0" y2="1">
      <stop offset="0" stop-color="#9b5de5"/>
      <stop offset="1" stop-color="#5a189a"/>
    </linearGradient>
    <linearGradient id="screen" x1="0" x2="1" y1="0" y2="1">
      <stop offset="0" stop-color="#f8f9fa" stop-opacity="0.85"/>
      <stop offset="1" stop-color="#dee2ff"/>
    </linearGradient>
    <linearGradient id="playfield" x1="0" x2="0" y1="0" y2="1">
      <stop offset="0" stop-color="#f9f7ff"/>
      <stop offset="1" stop-color="#ffd6a5"/>
    </linearGradient>
    <linearGradient id="leg" x1="0" x2="1" y1="0" y2="1">
      <stop offset="0" stop-color="#f1f3f5"/>
      <stop offset="1" stop-color="#adb5bd"/>
    </linearGradient>
    <radialGradient id="glow" cx="0.5" cy="0.3" r="0.65">
      <stop offset="0" stop-color="#fffae5"/>
      <stop offset="1" stop-color="#ff8fab" stop-opacity="0.2"/>
    </radialGradient>
  </defs>
  <rect width="64" height="64" fill="#14181f" rx="6"/>
  <g transform="translate(8 4)">
    <rect x="10" y="0" width="28" height="12" rx="2" fill="url(#cabinet)"/>
    <rect x="12" y="2" width="24" height="8" rx="1.5" fill="url(#screen)"/>
    <rect x="4" y="10" width="40" height="36" rx="3" fill="url(#cabinet)"/>
    <rect x="8" y="14" width="32" height="28" rx="2" fill="url(#playfield)"/>
    <ellipse cx="24" cy="21" rx="12" ry="7" fill="url(#glow)"/>
    <circle cx="24" cy="22" r="3" fill="#ff006e"/>
    <path d="M14 30h20c1.1 0 2 .9 2 2v2c0 1.1-.9 2-2 2H14c-1.1 0-2-.9-2-2v-2c0-1.1.9-2 2-2z" fill="#ffbe0b"/>
    <circle cx="17" cy="32" r="1.6" fill="#3a0ca3"/>
    <circle cx="31" cy="32" r="1.6" fill="#3a0ca3"/>
    <path d="M10 42h28l-1.6 10H11.6z" fill="#3a0ca3"/>
    <rect x="6" y="46" width="4" height="10" rx="1" fill="url(#leg)"/>
    <rect x="38" y="46" width="4" height="10" rx="1" fill="url(#leg)"/>
    <rect x="7" y="54" width="4" height="2" rx="1" fill="#adb5bd"/>
    <rect x="39" y="54" width="4" height="2" rx="1" fill="#adb5bd"/>
  </g>
  <path d="M46 43c0 1.7-5.4 3-12 3s-12-1.3-12-3 5.4-3 12-3 12 1.3 12 3z" fill="#212529" opacity="0.35"/>
  <metadata>
    <rdf:RDF xmlns:rdf="http://www.w3.org/1999/02/22-rdf-syntax-ns#" xmlns:cc="http://creativecommons.org/ns#">
      <cc:Work>
        <cc:license rdf:resource="http://creativecommons.org/publicdomain/zero/1.0/"/>
        <cc:attributionName>Openclipart contributors (public domain)</cc:attributionName>
        <cc:attributionURL>https://openclipart.org/detail/191184/pinball-machine</cc:attributionURL>
      </cc:Work>
    </rdf:RDF>
  </metadata>
</svg>
