<svg xmlns="http://www.w3.org/2000/svg" viewBox="0 0 64 64">
  <title>Platformer jump icon</title>
  <metadata>Original artwork created for the Kali Linux Portfolio project (2024). Released under the CC0 1.0 Universal license.</metadata>
  <defs>
    <linearGradient id="bg" x1="0" x2="0" y1="0" y2="1">
      <stop offset="0%" stop-color="#1f1d33" />
      <stop offset="100%" stop-color="#151223" />
    </linearGradient>
    <linearGradient id="trail" x1="0" x2="1" y1="0" y2="1">
      <stop offset="0%" stop-color="#8e7bff" stop-opacity="0.9" />
      <stop offset="100%" stop-color="#4fc3f7" stop-opacity="0.2" />
    </linearGradient>
  </defs>
  <rect width="64" height="64" fill="url(#bg)" rx="10" />
  <path d="M10 48h44" stroke="url(#trail)" stroke-width="6" stroke-linecap="round" />
  <path d="M18 44h28" stroke="#5b4bff" stroke-width="4" stroke-linecap="round" />
  <g transform="translate(20 8)">
    <circle cx="16" cy="10" r="6" fill="#ffeb3b" />
    <path d="M16 16c4 0 8 3 9 7l1 4c0.8 3.2-1.2 6-4.4 6H10.4C7.2 33 5.2 30.2 6 27l1-4c1-4 5-7 9-7z" fill="#536dfe" />
    <path d="M11 27l-5-3" stroke="#40c4ff" stroke-width="4" stroke-linecap="round" />
    <path d="M21 27l5-5" stroke="#40c4ff" stroke-width="4" stroke-linecap="round" />
    <path d="M15 33l-6 7" stroke="#ff7043" stroke-width="4" stroke-linecap="round" />
    <path d="M19 33l7 9" stroke="#ff7043" stroke-width="4" stroke-linecap="round" />
  </g>
  <path d="M12 54h40" stroke="#2d2a44" stroke-width="4" stroke-linecap="round" />
</svg>
