<svg width="64" height="64" viewBox="0 0 64 64" xmlns="http://www.w3.org/2000/svg">
  <defs>
    <linearGradient id="privacyGradient" x1="0%" y1="0%" x2="0%" y2="100%">
      <stop offset="0%" stop-color="#1f2937" />
      <stop offset="100%" stop-color="#0f172a" />
    </linearGradient>
  </defs>
  <rect x="4" y="4" width="56" height="56" rx="12" fill="url(#privacyGradient)" stroke="#f97316" stroke-width="2" />
  <path
    d="M32 18c-6.627 0-12 5.373-12 12v4h-2a2 2 0 0 0-2 2v13c0 1.105.895 2 2 2h24a2 2 0 0 0 2-2V36a2 2 0 0 0-2-2h-2v-4c0-6.627-5.373-12-12-12zm0 6c3.309 0 6 2.691 6 6v4H26v-4c0-3.309 2.691-6 6-6zm0 16a3 3 0 1 1-3 3 3 3 0 0 1 3-3z"
    fill="#f8fafc"
  />
</svg>
