<svg xmlns="http://www.w3.org/2000/svg" viewBox="0 0 64 64"><path fill="#2e3436" d="M0 0h64v64H0z"/><g fill="#4caf50"><path d="M8 0h8v8H8zM16 0h8v8h-8zM40 0h8v8h-8zM48 0h8v8h-8zM0 8h8v8H0zM8 8h8v8H8zM16 8h8v8h-8zM24 8h8v8h-8zM32 8h8v8h-8zM40 8h8v8h-8zM48 8h8v8h-8zM56 8h8v8h-8zM0 16h8v8H0zM8 16h8v8H8zM16 16h8v8h-8zM24 16h8v8h-8zM32 16h8v8h-8zM40 16h8v8h-8zM48 16h8v8h-8zM56 16h8v8h-8zM0 24h8v8H0zM8 24h8v8H8zM24 24h8v8h-8zM32 24h8v8h-8zM48 24h8v8h-8zM56 24h8v8h-8zM8 32h8v8H8zM16 32h8v8h-8zM24 32h8v8h-8zM32 32h8v8h-8zM40 32h8v8h-8zM48 32h8v8h-8zM16 40h8v8h-8zM40 40h8v8h-8zM0 48h8v8H0zM56 48h8v8h-8zM8 56h8v8H8zM48 56h8v8h-8z"/></g></svg>