<svg viewBox="0 0 90 90" xmlns="http://www.w3.org/2000/svg" role="img" aria-labelledby="title desc">
  <title id="title">Sudoku grid icon</title>
  <desc id="desc">A 3 by 3 Sudoku board with highlighted cells.</desc>
  <defs>
    <linearGradient id="bg" x1="0" x2="0" y1="0" y2="1">
      <stop offset="0" stop-color="#f6f7fb"/>
      <stop offset="1" stop-color="#d9deec"/>
    </linearGradient>
  </defs>
  <rect width="90" height="90" rx="10" fill="url(#bg)"/>
  <rect x="13" y="13" width="64" height="64" rx="6" fill="#ffffff" stroke="#2b303b" stroke-width="2"/>
  <g fill="#cfe2f3">
    <rect x="35" y="13" width="21" height="21"/>
    <rect x="57" y="35" width="20" height="21"/>
    <rect x="13" y="57" width="21" height="20"/>
  </g>
  <g stroke="#2b303b" stroke-width="1.5">
    <line x1="34" y1="13" x2="34" y2="77"/>
    <line x1="56" y1="13" x2="56" y2="77"/>
    <line x1="13" y1="34" x2="77" y2="34"/>
    <line x1="13" y1="56" x2="77" y2="56"/>
  </g>
  <g stroke="#2b303b" stroke-width="3">
    <line x1="47" y1="13" x2="47" y2="77"/>
    <line x1="13" y1="47" x2="77" y2="47"/>
  </g>
  <g fill="#2b303b" font-family="'Ubuntu', 'Segoe UI', sans-serif" font-size="12" font-weight="600" text-anchor="middle" dominant-baseline="central">
    <text x="24" y="24">5</text>
    <text x="47" y="24">1</text>
    <text x="70" y="24">7</text>
    <text x="24" y="47">6</text>
    <text x="70" y="47">3</text>
    <text x="47" y="70">8</text>
    <text x="24" y="70">2</text>
    <text x="70" y="70">9</text>
  </g>
</svg>
