<svg width="360" height="520" viewBox="0 0 360 520" xmlns="http://www.w3.org/2000/svg">
  <defs>
    <linearGradient id="backGradient" x1="0" y1="0" x2="1" y2="1">
      <stop offset="0%" stop-color="#0d2f4b" />
      <stop offset="50%" stop-color="#0a1f33" />
      <stop offset="100%" stop-color="#081424" />
    </linearGradient>
    <pattern id="backPattern" width="14" height="14" patternUnits="userSpaceOnUse" patternTransform="rotate(45)">
      <rect width="14" height="14" fill="none" stroke="#1e6fa3" stroke-width="1" opacity="0.22" />
    </pattern>
    <radialGradient id="backGlow" cx="0.5" cy="0.5" r="0.65">
      <stop offset="0%" stop-color="rgba(74,171,222,0.35)" />
      <stop offset="70%" stop-color="rgba(20,64,99,0.05)" />
      <stop offset="100%" stop-color="rgba(10,27,46,0)" />
    </radialGradient>
  </defs>
  <rect x="14" y="14" width="332" height="492" rx="36" fill="#04121f" />
  <rect x="20" y="20" width="320" height="480" rx="30" fill="url(#backGradient)" />
  <rect x="34" y="34" width="292" height="452" rx="26" fill="url(#backPattern)" />
  <rect x="34" y="34" width="292" height="452" rx="26" fill="url(#backGlow)" />
  <rect x="44" y="44" width="272" height="432" rx="22" fill="none" stroke="rgba(148,210,255,0.35)" stroke-width="3" />
  <rect x="56" y="56" width="248" height="408" rx="18" fill="none" stroke="rgba(148,210,255,0.2)" stroke-width="1.5" stroke-dasharray="8 6" />
  <g fill="none" stroke="rgba(148,210,255,0.45)" stroke-width="4">
    <path d="M100 100C160 140 200 200 180 260C160 320 200 380 260 420" stroke-linecap="round" opacity="0.55" />
    <path d="M260 100C200 140 160 200 180 260C200 320 160 380 100 420" stroke-linecap="round" opacity="0.35" />
  </g>
  <circle cx="180" cy="260" r="54" fill="rgba(12,45,75,0.9)" stroke="rgba(148,210,255,0.35)" stroke-width="4" />
  <circle cx="180" cy="260" r="36" fill="rgba(148,210,255,0.1)" stroke="rgba(148,210,255,0.55)" stroke-width="3" />
  <text x="180" y="270" text-anchor="middle" font-family="'Fira Sans', 'Segoe UI', sans-serif" font-size="34" fill="#8fd0ff" letter-spacing="4">
    KL
  </text>
</svg>
