<?xml version="1.0" encoding="UTF-8"?><!DOCTYPE svg PUBLIC "-//W3C//DTD SVG 1.1//EN" "http://www.w3.org/Graphics/SVG/1.1/DTD/svg11.dtd"><svg xmlns="http://www.w3.org/2000/svg" xmlns:xlink="http://www.w3.org/1999/xlink"><defs/><symbol id="window-close-symbolic"><path fill="#fff" fill-rule="evenodd" d="m4.795 3.912-.883.883.147.146L7.117 8 4.06 11.059l-.147.146.883.883.146-.147L8 8.883l3.059 3.058.146.147.883-.883-.147-.146L8.883 8l3.058-3.059.147-.146-.883-.883-.146.147L8 7.117 4.941 4.06z" color="#000" font-family="sans-serif" font-weight="400" overflow="visible" style="line-height:normal;font-variant-ligatures:normal;font-variant-position:normal;font-variant-caps:normal;font-variant-numeric:normal;font-variant-alternates:normal;font-feature-settings:normal;text-indent:0;text-align:start;text-decoration-line:none;text-decoration-style:solid;text-decoration-color:#000;text-transform:none;text-orientation:mixed;shape-padding:0;isolation:auto;mix-blend-mode:normal"/></symbol><symbol id="window-minimize-symbolic"><path fill="#fff" d="M4 10v1h8v-1z" color="#000" font-family="sans-serif" font-weight="400" overflow="visible" style="line-height:normal;font-variant-ligatures:normal;font-variant-position:normal;font-variant-caps:normal;font-variant-numeric:normal;font-variant-alternates:normal;font-feature-settings:normal;text-indent:0;text-align:start;text-decoration-line:none;text-decoration-style:solid;text-decoration-color:#000;text-transform:none;text-orientation:mixed;shape-padding:0;isolation:auto;mix-blend-mode:normal"/></symbol><symbol id="window-maximize-symbolic"><path fill="#fff" d="M4 4v8h8V4zm1 1h6v6H5z" color="#000" font-family="sans-serif" font-weight="400" overflow="visible" style="line-height:normal;font-variant-ligatures:normal;font-variant-position:normal;font-variant-caps:normal;font-variant-numeric:normal;font-variant-alternates:normal;font-feature-settings:normal;text-indent:0;text-align:start;text-decoration-line:none;text-decoration-style:solid;text-decoration-color:#000;text-transform:none;text-orientation:mixed;shape-padding:0;isolation:auto;mix-blend-mode:normal"/></symbol><symbol id="window-restore-symbolic"><g fill="#fff" color="#000" font-family="sans-serif" font-weight="400"><path d="M4 6v6h6V6zm1 1h4v4H5z" overflow="visible" style="line-height:normal;font-variant-ligatures:normal;font-variant-position:normal;font-variant-caps:normal;font-variant-numeric:normal;font-variant-alternates:normal;font-feature-settings:normal;text-indent:0;text-align:start;text-decoration-line:none;text-decoration-style:solid;text-decoration-color:#000;text-transform:none;text-orientation:mixed;shape-padding:0;isolation:auto;mix-blend-mode:normal"/><path d="M6 4v1h5v5h1V4z" opacity=".5" overflow="visible" style="line-height:normal;font-variant-ligatures:normal;font-variant-position:normal;font-variant-caps:normal;font-variant-numeric:normal;font-variant-alternates:normal;font-feature-settings:normal;text-indent:0;text-align:start;text-decoration-line:none;text-decoration-style:solid;text-decoration-color:#000;text-transform:none;text-orientation:mixed;shape-padding:0;isolation:auto;mix-blend-mode:normal"/></g></symbol><symbol id="window-pin-symbolic" viewBox="0 0 24 24"><path d="M16 9V4h-1V2H9v2H8v5l-3 3v2h6v7l1 1 1-1v-7h6v-2z"/></symbol><symbol id="view-app-grid-symbolic"><path fill="#fff" d="M3.805 3C3.268 3 3 3 3 3.625v.75C3 5 3.268 5 3.805 5h.39C4.732 5 5 5 5 4.375v-.75C5 3.022 4.732 3 4.195 3zm4 0C7.268 3 7 3 7 3.625v.75C7 5 7.268 5 7.805 5h.39C8.732 5 9 5 9 4.375v-.75C9 3.022 8.732 3 8.195 3zm4 0C11.268 3 11 3 11 3.625v.75c0 .625.268.625.805.625h.39C12.732 5 13 5 13 4.375v-.75c0-.603-.268-.625-.805-.625zm-8 4C3.268 7 3 7 3 7.625v.75C3 9 3.268 9 3.805 9h.39C4.732 9 5 9 5 8.375v-.75C5 7.022 4.732 7 4.195 7zm4 0C7.268 7 7 7 7 7.625v.75C7 9 7.268 9 7.805 9h.39C8.732 9 9 9 9 8.375v-.75C9 7.022 8.732 7 8.195 7zm4 0C11.268 7 11 7 11 7.625v.75c0 .625.268.625.805.625h.39C12.732 9 13 9 13 8.375v-.75c0-.603-.268-.625-.805-.625zm-8 4C3.268 11 3 11 3 11.625v.75c0 .625.268.625.805.625h.39C4.732 13 5 13 5 12.375v-.75c0-.603-.268-.625-.805-.625zm4 0C7.268 11 7 11 7 11.625v.75c0 .625.268.625.805.625h.39C8.732 13 9 13 9 12.375v-.75c0-.603-.268-.625-.805-.625zm4 0c-.537 0-.805 0-.805.625v.75c0 .625.268.625.805.625h.39c.537 0 .805 0 .805-.625v-.75c0-.603-.268-.625-.805-.625z" color="#000" overflow="visible" style="marker:none"/></symbol><symbol id="projects"><g style="display:inline" transform="translate(-512 -460)"><path d="M516.994 460c-1.258.015-2.179-.03-2.932.385a1.88 1.88 0 0 0-.837.998c-.165.438-.225.96-.225 1.617v10c0 .658.06 1.179.225 1.617.164.439.461.789.837.996.753.415 1.674.372 2.932.387h5.012c1.258-.014 2.179.03 2.932-.385a1.88 1.88 0 0 0 .838-.998c.164-.438.224-.96.224-1.617v-10c0-.658-.06-1.179-.225-1.617a1.88 1.88 0 0 0-.837-.996c-.753-.415-1.674-.372-2.932-.387h-5.008zm.006 1h5c1.259.015 2.09.06 2.455.262.184.1.287.213.385.472.097.26.16.674.16 1.266v10c0 .592-.063 1.006-.16 1.266-.098.26-.202.371-.385.472-.366.202-1.196.247-2.455.262h-5c-1.259-.015-2.09-.06-2.455-.262-.183-.1-.287-.213-.385-.472-.097-.26-.16-.674-.16-1.266v-10c0-.592.063-1.006.16-1.266.098-.26.203-.371.387-.472.366-.202 1.194-.247 2.453-.262Z" style="color:#000;font-style:normal;font-variant:normal;font-weight:400;font-stretch:normal;font-size:medium;line-height:normal;font-family:sans-serif;font-variant-ligatures:normal;font-variant-position:normal;font-variant-caps:normal;font-variant-numeric:normal;font-variant-alternates:normal;font-feature-settings:normal;text-indent:0;text-align:start;text-decoration:none;text-decoration-line:none;text-decoration-style:solid;text-decoration-color:#000;letter-spacing:normal;word-spacing:normal;text-transform:none;writing-mode:lr-tb;direction:ltr;text-orientation:mixed;dominant-baseline:auto;baseline-shift:baseline;text-anchor:start;white-space:normal;shape-padding:0;clip-rule:nonzero;display:inline;overflow:visible;visibility:visible;opacity:1;isolation:auto;mix-blend-mode:normal;color-interpolation:sRGB;color-interpolation-filters:linearRGB;solid-color:#000;solid-opacity:1;vector-effect:none;fill:#fff;fill-opacity:1;fill-rule:nonzero;stroke:none;stroke-width:1.00000012;stroke-linecap:butt;stroke-linejoin:miter;stroke-miterlimit:4;stroke-dasharray:none;stroke-dashoffset:0;stroke-opacity:1;marker:none;color-rendering:auto;image-rendering:auto;shape-rendering:auto;text-rendering:auto"/><path d="M515.5 462c-.277 0-.5.223-.5.5v4c0 .277.223.5.5.5h8c.277 0 .5-.223.5-.5v-4c0-.277-.223-.5-.5-.5zm.75 1h6.5a.25.25 0 0 1 .25.25v2.5a.25.25 0 0 1-.25.25h-6.5a.25.25 0 0 1-.25-.25v-2.5a.25.25 0 0 1 .25-.25" style="opacity:1;fill:#fff;fill-opacity:1;stroke:none;stroke-width:.5;stroke-linecap:butt;stroke-linejoin:round;stroke-miterlimit:4;stroke-dasharray:none;stroke-opacity:1"/><rect width="1" height="4" x="516" y="468.5" rx=".5" ry=".5" style="opacity:1;fill:#fff;fill-opacity:1;stroke:none;stroke-width:.5;stroke-linecap:butt;stroke-linejoin:round;stroke-miterlimit:4;stroke-dasharray:none;stroke-opacity:1"/><rect width="4" height="1" x="514.5" y="470" rx=".5" ry=".5" style="opacity:1;fill:#fff;fill-opacity:1;stroke:none;stroke-width:.5;stroke-linecap:butt;stroke-linejoin:round;stroke-miterlimit:4;stroke-dasharray:none;stroke-opacity:1"/><rect width="2" height="2" x="522" y="469" rx="1" ry="1" style="opacity:1;fill:#fff;fill-opacity:1;stroke:none;stroke-width:.5;stroke-linecap:butt;stroke-linejoin:round;stroke-miterlimit:4;stroke-dasharray:none;stroke-opacity:1"/><rect width="2" height="2" x="520" y="471" rx="1" ry="1" style="opacity:1;fill:#fff;fill-opacity:1;stroke:none;stroke-width:.5;stroke-linecap:butt;stroke-linejoin:round;stroke-miterlimit:4;stroke-dasharray:none;stroke-opacity:1"/></g></symbol><symbol id="process-working-symbolic"><path fill="#fff" d="M1236 0a1 1 0 0 0-1 1 1 1 0 0 0 .01.096c.026 1.588.697 3.156 1.856 4.248 1.097 1.06 2.614 1.643 4.134 1.648V6.78a5.4 5.4 0 0 1-1.96-.345c-.196-.134-.474-.19-.686-.323-.962-.497-1.798-1.27-2.318-2.218 0-.064.06.02.053.044a5.58 5.58 0 0 0 2.96 2.424c.17-.012.34.125.514.14a5.5 5.5 0 0 0 1.438.19v-.158a5.2 5.2 0 0 1-1.877-.334c-.187-.129-.452-.182-.655-.31-.918-.476-1.72-1.214-2.216-2.121-.01-.064.056.015.05.043a5.36 5.36 0 0 0 2.827 2.316c.146-.032.298.112.449.12.462.128.942.193 1.422.194v-.156a5 5 0 0 1-1.795-.322c-.198-.126-.464-.19-.674-.32-.854-.455-1.599-1.15-2.062-2-.01-.063.059.016.049.04a5.07 5.07 0 0 0 2.695 2.208c.142-.024.284.106.43.115.44.123.9.186 1.357.187v-.16a4.7 4.7 0 0 1-1.709-.304c-.187-.123-.443-.181-.643-.307-.813-.433-1.524-1.095-1.964-1.904-.01-.061.059.013.05.039a4.83 4.83 0 0 0 2.567 2.1c.136-.026.273.1.412.109.42.117.853.176 1.287.177v-.158a4.4 4.4 0 0 1-1.617-.293c-.22-.114-.479-.198-.7-.332-.739-.411-1.387-1.023-1.79-1.767 0-.056.068-.002.057.035a4.58 4.58 0 0 0 2.443 1.994c.141-.026.287.105.432.113.383.103.78.153 1.176.154v-.152a4.2 4.2 0 0 1-1.532-.277c-.192-.108-.429-.175-.625-.295-.717-.39-1.346-.979-1.734-1.697-.01-.057.066-.001.055.033a4.33 4.33 0 0 0 2.309 1.885c.122-.032.248.092.375.097.374.105.763.157 1.152.158v-.154a4 4 0 0 1-1.45-.264c-.179-.104-.403-.165-.587-.279-.676-.368-1.272-.923-1.637-1.601-.01-.055.065-.003.055.03.485.821 1.277 1.48 2.174 1.778.104-.037.213.08.32.082.365.106.745.158 1.125.16v-.191c-1.33-.002-2.646-.704-3.357-1.838A3.94 3.94 0 0 1 1237 1a1 1 0 0 0-1-1m6.051 4.92.035.137.01-.002c0-.072-.016-.11-.041-.135zm.09.336.01.039.01-.002c0-.021-.012-.022-.016-.037zm.065.244.01.037s.01 0 .01-.002c0-.02-.014-.02-.018-.035zm.066.248.01.031.01-.002c0-.017-.013-.016-.016-.029zm.068.252.01.02c0-.012-.01-.01-.01-.02m.065.244.01.016c0-.01-.01-.007-.01-.016m.045.168.025.09a.14.14 0 0 0-.029-.09zm.07.26.012.043c0-.016 0-.029-.012-.043m-.051.14a6 6 0 0 1-.35.077c.047-.01.094-.012.141-.022a.25.25 0 0 0 .209-.054zm-.72.135a6 6 0 0 1-.315.033q.158-.012.314-.033zm-.7-11.943a5.8 5.8 0 0 0-1.824.266c-1.435.432-2.668 1.44-3.418 2.73l.187.11a5.4 5.4 0 0 1 1.282-1.528c.213-.103.401-.315.623-.432.91-.584 1.998-.923 3.08-.898.058.029-.047.044-.066.023a5.58 5.58 0 0 0-3.578 1.354c-.074.153-.279.232-.38.375a5.6 5.6 0 0 0-.882 1.15l.137.078a5.1 5.1 0 0 1 1.232-1.459c.215-.116.413-.321.64-.443.861-.538 1.882-.85 2.897-.826.06.027-.04.04-.062.021a5.36 5.36 0 0 0-3.42 1.29c-.045.142-.247.203-.328.33-.343.336-.637.72-.879 1.134l.135.078a5 5 0 0 1 1.176-1.394c.208-.109.398-.306.617-.422.821-.512 1.794-.811 2.762-.787.058.024-.043.044-.061.023a5.07 5.07 0 0 0-3.258 1.23c-.05.136-.236.194-.317.315-.327.32-.61.686-.84 1.082l.137.078a4.7 4.7 0 0 1 1.12-1.326c.2-.101.379-.294.587-.404.782-.488 1.712-.772 2.633-.748.057.023-.04.042-.059.021a4.83 4.83 0 0 0-3.101 1.174c-.046.13-.225.187-.301.303-.311.304-.58.651-.799 1.027l.139.08c.278-.478.63-.915 1.062-1.256.235-.156.466-.356.725-.492.706-.402 1.526-.638 2.338-.615.05.024-.031.06-.06.031a4.58 4.58 0 0 0-2.949 1.12c-.048.134-.232.194-.312.316-.281.28-.525.6-.725.943l.135.076a4.2 4.2 0 0 1 1.006-1.19c.19-.112.367-.282.568-.392.697-.426 1.52-.676 2.336-.652.053.023-.03.058-.055.031-1.011.01-2.036.389-2.787 1.055-.034.122-.204.17-.271.277a4.4 4.4 0 0 0-.715.92l.129.074c.25-.429.57-.818.959-1.123.18-.103.346-.267.537-.369.657-.401 1.435-.639 2.205-.615.052.022-.03.057-.055.031-.953.01-1.922.367-2.629.994-.075.178-.321.265-.422.438-.193.212-.36.447-.506.695l.164.096c.694-1.202 2.042-2.005 3.438-2a4 4 0 0 1 2.021.535v-.002a1 1 0 0 0 1.366-.365 1 1 0 0 0-.366-1.366 1 1 0 0 0-.08-.04 6.1 6.1 0 0 0-2.867-.76zm-5.488 3.48a6 6 0 0 0-.117.268 6 6 0 0 1 .117-.268m-.268.688c-.016.05-.038.099-.053.15-.01.008.001.012 0 .02l.055-.17zm.01.3c.014.005.024.013.04.012zm.197.053v.002a.2.2 0 0 0 .09.024zm.243.065v.004c.01.003.01-.003.014 0zm.242.066v.004c.01.006.014-.004.023 0zm.242.065v.004c.011.006.014-.002.023.002zm.242.064v.006c.017.01.023 0 .037.004zm.242.065v.006a.17.17 0 0 0 .096.02zm.237.064v.006c.03.018.045.006.068.012zm7.9-2.766c0 .003 0 .007-.01.01l.01-.008zm-.178.176c-.01.005 0 .01-.01.016l.012-.012v-.004zm1.072.008.094.13a2 2 0 0 0-.094-.13m-1.25.17c-.01.006 0 .012-.012.018l.014-.014v-.004zm-.183.176c-.03.017-.026.035-.04.053l.046-.045c0-.002 0-.006-.01-.008zm-.176.178a.15.15 0 0 0-.064.076l.07-.07c0-.002 0-.004-.01-.006zm2.06.146-.189.11a5.4 5.4 0 0 1 .684 1.875c-.018.235.072.504.062.753.05 1.082-.2 2.193-.762 3.118-.056.032-.015-.062.012-.069.64-1.131.87-2.508.617-3.775-.096-.14-.062-.358-.135-.516a5.6 5.6 0 0 0-.554-1.344l-.139.08a5.1 5.1 0 0 1 .648 1.8c-.01.244.073.52.065.777.036 1.014-.205 2.055-.733 2.922-.051.04-.016-.058.012-.067a5.36 5.36 0 0 0 .594-3.605c-.101-.11-.052-.316-.121-.45a5.4 5.4 0 0 0-.543-1.332l-.139.08c.306.532.528 1.112.621 1.717-.01.235.068.497.061.745.033.967-.196 1.96-.701 2.787-.049.04-.017-.06.01-.065a5.08 5.08 0 0 0 .565-3.437c-.092-.111-.05-.3-.116-.43a5.1 5.1 0 0 0-.517-1.271l-.137.08a4.7 4.7 0 0 1 .59 1.634c-.012.224.064.474.055.71.032.92-.185 1.868-.666 2.654-.048.039-.018-.055.01-.06a4.83 4.83 0 0 0 .533-3.274c-.09-.105-.047-.288-.11-.412a4.9 4.9 0 0 0-.49-1.207l-.138.08c.276.48.477 1.003.556 1.549.021.298.077.618.062.927-.013.796-.22 1.603-.636 2.28-.05.028-.035-.057 0-.067a4.58 4.58 0 0 0 .504-3.113c-.092-.11-.052-.3-.118-.43a4.6 4.6 0 0 0-.455-1.097l-.135.078c.263.455.455.953.528 1.47.036.362.083.744.049 1.116-.05.67-.239 1.347-.594 1.918-.044.037-.036-.057 0-.065.497-.88.682-1.958.48-2.941-.088-.09-.046-.262-.105-.373a4.4 4.4 0 0 0-.437-1.079l-.13.075c.247.43.421.902.49 1.39 0 .208.06.434.054.65.019.77-.165 1.563-.57 2.217-.043.037-.035-.052 0-.062.468-.83.643-1.848.453-2.773-.117-.154-.066-.413-.166-.586a4 4 0 0 0-.352-.784l-.164.096c.704 1.219.716 2.813-.014 4.025a4 4 0 0 1-1.445 1.434 1 1 0 0 0-.363 1.365 1 1 0 0 0 1.363.367v-.002l.019-.011.04-.026.015-.01c1.4-.838 2.44-2.259 2.783-3.859.33-1.447.074-3.004-.66-4.287zm-2.236.03c-.037.02-.036.043-.053.064l.06-.059c0-.002 0-.004-.01-.006z" color="#000" font-family="sans-serif" font-weight="400" overflow="visible" style="line-height:normal;font-variant-ligatures:normal;font-variant-position:normal;font-variant-caps:normal;font-variant-numeric:normal;font-variant-alternates:normal;font-feature-settings:normal;text-indent:0;text-align:start;text-decoration-line:none;text-decoration-style:solid;text-decoration-color:#000;text-transform:none;text-orientation:mixed;shape-padding:0;isolation:auto;mix-blend-mode:normal" transform="translate(-1233 7)"/></symbol><symbol id="radar-symbolic" viewBox="0 0 16 16"><circle cx="8" cy="8" r="7" fill="none" stroke="currentColor" stroke-width="2"/><path stroke="currentColor" stroke-width="2" d="M8 8h6M8 8V2"/><circle cx="8" cy="8" r="3" fill="none" stroke="currentColor" stroke-width="2"/></symbol><symbol id="nessus" viewBox="0 0 100 100"><rect width="100" height="100" fill="#1b6aa5" rx="20"/><circle cx="50" cy="50" r="30" fill="none" stroke="#fff" stroke-width="8"/><circle cx="50" cy="50" r="15" fill="none" stroke="#fff" stroke-width="8" opacity=".5"/></symbol><symbol id="http" viewBox="0 0 64 64"><rect width="64" height="64" fill="#2e3440" rx="8"/><text x="32" y="37" fill="#eceff4" font-family="Arial, Helvetica, sans-serif" font-size="24" text-anchor="middle">HTTP</text></symbol><symbol id="john" viewBox="0 0 64 64"><rect width="64" height="64" fill="#2e3440" rx="8" ry="8"/><text x="32" y="42" fill="#fff" font-family="sans-serif" font-size="32" text-anchor="middle">J</text></symbol><symbol id="network-wireless-signal-good-symbolic"><g color="#000"><path fill="gray" d="M1001.003-265c-2.61 0-5.22.838-7.4 2.518l-.266.205.205.263 7.457 9.672 7.668-9.931-.264-.206a12.1 12.1 0 0 0-7.4-2.521m0 1c2.181 0 4.344.672 6.227 1.951l-6.229 8.07-6.226-8.074c1.883-1.278 4.047-1.948 6.228-1.947" font-family="sans-serif" font-weight="400" overflow="visible" style="line-height:normal;font-variant-ligatures:none;font-variant-position:normal;font-variant-caps:normal;font-variant-numeric:normal;font-variant-alternates:normal;font-feature-settings:normal;text-indent:0;text-align:start;text-decoration-line:none;text-decoration-style:solid;text-decoration-color:#000;text-transform:none;shape-padding:0;isolation:auto;mix-blend-mode:normal;marker:none" transform="translate(-993 267)"/><path fill="#fff" d="M995.427-260.103a9.129 9.125 0 0 1 11.15.003l-5.577 7.225z" overflow="visible" style="marker:none" transform="translate(-993 267)"/></g></symbol><symbol id="metasploit" viewBox="0 0 64 64"><rect width="64" height="64" fill="#1b1f3b" rx="10"/><path fill="#fff" d="M16 48V16h8l8 16 8-16h8v32h-8V26l-8 16-8-16v22z"/></symbol><symbol id="ettercap" viewBox="0 0 64 64"><circle cx="32" cy="12" r="6" fill="#4ade80"/><circle cx="12" cy="52" r="6" fill="#4ade80"/><circle cx="52" cy="52" r="6" fill="#4ade80"/><path stroke="#fff" stroke-width="4" d="M32 18 12 46M32 18l20 28M12 52h40"/></symbol><symbol id="msf-post" viewBox="0 0 64 64"><rect width="64" height="64" fill="#1e293b" rx="8"/><text x="32" y="38" fill="#38bdf8" font-family="Arial, sans-serif" font-size="20" text-anchor="middle">MSF</text></symbol><symbol id="autopsy" viewBox="0 0 64 64"><rect width="64" height="64" fill="#333" rx="8"/><circle cx="28" cy="28" r="14" fill="none" stroke="#fff" stroke-width="4"/><path stroke="#fff" stroke-linecap="round" stroke-width="4" d="m38 38 12 12"/></symbol><symbol id="information-gathering" viewBox="0 0 32 32"><circle cx="16" cy="16" r="5"/><circle cx="7" cy="7" r="3"/><circle cx="25" cy="8" r="3"/><circle cx="9" cy="25" r="3"/><path d="m9 23 4-4M10 8l4 5M22 9l-4 4"/></symbol><symbol id="vulnerability-analysis" viewBox="0 0 32 32"><path d="m16 4 10 4v6c0 6.5-4.5 12-10 14-5.5-2-10-7.5-10-14V8z"/><path d="m13 12 3 3-2 3 5 5"/></symbol><symbol id="web-application-analysis" viewBox="0 0 32 32"><rect width="22" height="16" x="5" y="6" rx="2"/><path d="M5 11h22"/><circle cx="14" cy="18" r="4"/><path d="m17 21 4 4"/></symbol><symbol id="database-assessment" viewBox="0 0 32 32"><ellipse cx="16" cy="8" rx="9" ry="4"/><path d="M7 8v8c0 2.2 4 4 9 4s9-1.8 9-4V8"/><path d="M7 16v8c0 2.2 4 4 9 4s9-1.8 9-4v-8"/><path d="m12 18 3 3 6-6"/></symbol><symbol id="password-attacks" viewBox="0 0 32 32"><circle cx="12" cy="14" r="5"/><path d="m15 17 7 7h4v-4l-5-5M20 10l2-2 2 2 2-2"/></symbol><symbol id="wireless-attacks" viewBox="0 0 32 32"><path d="M5 14a15 15 0 0 1 22 0"/><path d="M9 18a9 9 0 0 1 14 0M13 22a3 3 0 0 1 6 0M16 4l-2 4h4l-2 4"/></symbol><symbol id="reverse-engineering" viewBox="0 0 32 32"><path d="M16 9a7 7 0 1 1-7 7M9 13l-4-1 1-4"/><circle cx="16" cy="16" r="3"/><path d="m21.5 7.5 1.5-2 3 2"/></symbol><symbol id="exploitation-tools" viewBox="0 0 32 32"><circle cx="16" cy="16" r="8"/><path d="M16 6V2M16 30v-4M6 16H2M30 16h-4"/><circle cx="16" cy="16" r="3"/></symbol><symbol id="sniffing-spoofing" viewBox="0 0 32 32"><rect width="9" height="6" x="4" y="9" rx="2"/><rect width="9" height="6" x="19" y="17" rx="2"/><path d="M13 12h4l2-3M13 12h4l2 3M16 15v4l-2 3M16 19l2 3"/></symbol><symbol id="post-exploitation" viewBox="0 0 32 32"><rect width="20" height="16" x="6" y="6" rx="2"/><path d="m10 14 3 2-3 2M15 19h7M20 11h3v3M20 14l3-3"/></symbol><symbol id="forensics" viewBox="0 0 32 32"><path d="M12 21c0-6 8-6 8 0 0 5-2 7-4 7s-4-2-4-7"/><path d="M10 18c0-8 12-8 12 0"/><path d="M9 15C9 5 23 5 23 15M16 2v4"/></symbol><symbol id="reporting" viewBox="0 0 32 32"><rect width="16" height="20" x="8" y="6" rx="3"/><path d="M12 6V5a2 2 0 0 1 2-2h4a2 2 0 0 1 2 2v1M12 16v5M16 14v7M20 18v3"/></symbol><symbol id="social-engineering" viewBox="0 0 32 32"><path d="M8 6h16a2 2 0 0 1 2 2v8a2 2 0 0 1-2 2h-4l-6 6v-6H8a2 2 0 0 1-2-2V8a2 2 0 0 1 2-2"/><circle cx="12" cy="11" r="1"/><circle cx="16" cy="11" r="1"/><circle cx="20" cy="11" r="1"/></symbol><symbol id="hardware-hacking" viewBox="0 0 32 32"><rect width="12" height="12" x="8" y="8" rx="2"/><path d="m20 12 4-4M24 8l3 3-2 2M10 4v3M16 4v3M22 4v3M10 25v3M16 25v3M22 25v3"/></symbol><symbol id="extra" viewBox="0 0 32 32"><path d="m16 4 3.5 8H28l-7 5 3 9-8-5.5L8 26l3-9-7-5h8.5z"/></symbol><symbol id="top10" viewBox="0 0 32 32"><path d="M10 4h12v4a6 6 0 0 1-6 6 6 6 0 0 1-6-6zM8 4H4v3a5 5 0 0 0 5 5M24 4h4v3a5 5 0 0 1-5 5M14 22h4M12 26h8M16 18v4"/></symbol><symbol id="user-home" viewBox="0 0 64 64"><rect width="64" height="64" fill="#0f172a" rx="12"/><path fill="#0ea5e9" d="M12 29.6 32 14l20 15.6V52a2 2 0 0 1-2 2H14a2 2 0 0 1-2-2z"/><path fill="#38bdf8" d="M18 49V33.5a2.5 2.5 0 0 1 2.5-2.5H28a2 2 0 0 1 2 2v6h4v-6a2 2 0 0 1 2-2h7.5a2.5 2.5 0 0 1 2.5 2.5V49"/><path stroke="#67e8f9" stroke-linecap="round" stroke-width="2.5" d="m32 18 18 14M14 32l18-14"/><path stroke="#0f172a" stroke-linecap="round" stroke-width="2" d="M28 50v-7a2 2 0 0 1 2-2h4a2 2 0 0 1 2 2v7"/></symbol><symbol id="user-desktop" viewBox="0 0 64 64"><rect width="64" height="64" fill="#0f172a" rx="12"/><rect width="44" height="30" x="10" y="14" fill="#0ea5e9" rx="4"/><rect width="36" height="22" x="14" y="18" fill="#1e293b" rx="2"/><path fill="#38bdf8" d="M26 48h12l3 6H23z"/><path stroke="#67e8f9" stroke-linecap="round" stroke-width="2" d="M20 44h24"/><circle cx="34" cy="26" r="4" fill="#0ea5e9"/><path stroke="#67e8f9" stroke-linecap="round" stroke-width="2" d="M30 26a4 4 0 0 1 4-4"/></symbol><symbol id="folder-documents" viewBox="0 0 64 64"><rect width="64" height="64" fill="#0f172a" rx="12"/><path fill="#0ea5e9" d="M12 22a4 4 0 0 1 4-4h12l4 4h20a4 4 0 0 1 4 4v20a4 4 0 0 1-4 4H16a4 4 0 0 1-4-4z"/><rect width="24" height="18" x="20" y="26" fill="#f8fafc" rx="2"/><path stroke="#38bdf8" stroke-linecap="round" stroke-width="2" d="M24 30h16m-16 6h16m-16 6h12"/><path stroke="#67e8f9" stroke-linecap="round" stroke-width="2" d="M12 26h40" opacity=".6"/></symbol><symbol id="folder-downloads" viewBox="0 0 64 64"><rect width="64" height="64" fill="#0f172a" rx="12"/><path fill="#0ea5e9" d="M12 22a4 4 0 0 1 4-4h12l4 4h20a4 4 0 0 1 4 4v20a4 4 0 0 1-4 4H16a4 4 0 0 1-4-4z"/><path stroke="#f8fafc" stroke-linecap="round" stroke-width="3" d="M32 28v14"/><path stroke="#f8fafc" stroke-linecap="round" stroke-linejoin="round" stroke-width="3" d="m24 36 8 8 8-8"/><path stroke="#67e8f9" stroke-linecap="round" stroke-width="2" d="M18 26h28" opacity=".6"/></symbol><symbol id="folder-music" viewBox="0 0 64 64"><rect width="64" height="64" fill="#0f172a" rx="12"/><path fill="#0ea5e9" d="M12 22a4 4 0 0 1 4-4h12l4 4h20a4 4 0 0 1 4 4v20a4 4 0 0 1-4 4H16a4 4 0 0 1-4-4z"/><path fill="#f8fafc" d="M36 28v10.5a5.5 5.5 0 1 1-3-4.86V26l12-2v8.5a5.5 5.5 0 1 1-3-4.86V28z"/><path stroke="#67e8f9" stroke-linecap="round" stroke-width="2" d="M18 26h28" opacity=".6"/></symbol><symbol id="folder-pictures" viewBox="0 0 64 64"><rect width="64" height="64" fill="#0f172a" rx="12"/><path fill="#0ea5e9" d="M12 22a4 4 0 0 1 4-4h12l4 4h20a4 4 0 0 1 4 4v20a4 4 0 0 1-4 4H16a4 4 0 0 1-4-4z"/><rect width="28" height="18" x="18" y="26" fill="#1e293b" rx="2"/><path fill="#38bdf8" d="m22 40 6-7 5 5 5-6 8 8z"/><circle cx="28" cy="32" r="3" fill="#fbbf24"/><path stroke="#67e8f9" stroke-linecap="round" stroke-width="2" d="M18 26h28" opacity=".6"/></symbol><symbol id="folder-videos" viewBox="0 0 64 64"><rect width="64" height="64" fill="#0f172a" rx="12"/><path fill="#0ea5e9" d="M12 22a4 4 0 0 1 4-4h12l4 4h20a4 4 0 0 1 4 4v20a4 4 0 0 1-4 4H16a4 4 0 0 1-4-4z"/><rect width="24" height="16" x="20" y="27" fill="#1e293b" rx="2"/><path fill="#38bdf8" d="m28 31 8 4-8 4z"/><path stroke="#67e8f9" stroke-linecap="round" stroke-width="2" d="m22 25 2 4m16-4 2 4"/><path stroke="#67e8f9" stroke-linecap="round" stroke-width="2" d="M18 26h28" opacity=".6"/></symbol><symbol id="user-trash" viewBox="0 0 64 64"><rect width="64" height="64" fill="#0f172a" rx="12"/><path fill="#0ea5e9" d="M20 20h24l-2 34H22z"/><path stroke="#67e8f9" stroke-linecap="round" stroke-width="3" d="M16 20h32"/><path stroke="#38bdf8" stroke-linecap="round" stroke-linejoin="round" stroke-width="3" d="m26 18 2-4h8l2 4"/><path stroke="#f8fafc" stroke-linecap="round" stroke-width="3" d="M28 28v18m8-18v18"/></symbol><symbol id="user-trash-full" viewBox="0 0 64 64"><rect width="64" height="64" fill="#0f172a" rx="12"/><path fill="#0ea5e9" d="M20 20h24l-2 34H22z"/><path fill="#38bdf8" d="M24 26h16l-1.5 20h-13z"/><path stroke="#67e8f9" stroke-linecap="round" stroke-width="3" d="M16 20h32"/><path stroke="#38bdf8" stroke-linecap="round" stroke-linejoin="round" stroke-width="3" d="m26 18 2-4h8l2 4"/><path stroke="#f8fafc" stroke-linecap="round" stroke-width="3" d="M28 28v18m8-18v18"/></symbol><symbol id="decompiler-symbolic" viewBox="0 0 16 16"><path d="M1 3h4v10H1zM6 8h8M11 5l3 3-3 3"/></symbol></svg>