<svg xmlns="http://www.w3.org/2000/svg" width="64" height="64" fill="none" viewBox="0 0 64 64"><rect width="64" height="64" fill="#0f172a" rx="12"/><path fill="#0ea5e9" d="M12 22a4 4 0 0 1 4-4h12l4 4h20a4 4 0 0 1 4 4v20a4 4 0 0 1-4 4H16a4 4 0 0 1-4-4z"/><rect width="28" height="18" x="18" y="26" fill="#1e293b" rx="2"/><path fill="#38bdf8" d="m22 40 6-7 5 5 5-6 8 8z"/><circle cx="28" cy="32" r="3" fill="#fbbf24"/><path stroke="#67e8f9" stroke-linecap="round" stroke-width="2" d="M18 26h28" opacity=".6"/></svg>