<svg xmlns="http://www.w3.org/2000/svg" width="64" height="64" fill="none" viewBox="0 0 64 64"><rect width="64" height="64" fill="#0f172a" rx="12"/><path fill="#0ea5e9" d="M12 29.6 32 14l20 15.6V52a2 2 0 0 1-2 2H14a2 2 0 0 1-2-2z"/><path fill="#38bdf8" d="M18 49V33.5a2.5 2.5 0 0 1 2.5-2.5H28a2 2 0 0 1 2 2v6h4v-6a2 2 0 0 1 2-2h7.5a2.5 2.5 0 0 1 2.5 2.5V49"/><path stroke="#67e8f9" stroke-linecap="round" stroke-width="2.5" d="m32 18 18 14M14 32l18-14"/><path stroke="#0f172a" stroke-linecap="round" stroke-width="2" d="M28 50v-7a2 2 0 0 1 2-2h4a2 2 0 0 1 2 2v7"/></svg>