<svg viewBox="0 0 128 128" xmlns="http://www.w3.org/2000/svg">
  <defs>
    <linearGradient id="bQueenBody" x1="0%" y1="0%" x2="0%" y2="100%">
      <stop offset="0%" stop-color="#3a4256" />
      <stop offset="40%" stop-color="#222733" />
      <stop offset="100%" stop-color="#10141c" />
    </linearGradient>
    <linearGradient id="bQueenBase" x1="0%" y1="0%" x2="0%" y2="100%">
      <stop offset="0%" stop-color="#151b27" />
      <stop offset="100%" stop-color="#080b11" />
    </linearGradient>
    <filter id="bQueenShadow" x="-15%" y="-20%" width="140%" height="160%" color-interpolation-filters="sRGB">
      <feDropShadow dx="0" dy="4" stdDeviation="6" flood-color="#020304" flood-opacity="0.7" />
    </filter>
  </defs>
  <g filter="url(#bQueenShadow)">
    <path
      d="M30 104h68c2-20-8-36-22-42 8-6 14-14 14-24 0-12-8-22-20-22-6 0-12 2-16 6-4-4-10-6-16-6-12 0-20 10-20 22 0 10 6 18 14 24-14 6-24 22-22 42z"
      fill="url(#bQueenBody)"
    />
    <circle cx="40" cy="34" r="10" fill="#222836" stroke="#394156" stroke-width="3" />
    <circle cx="88" cy="34" r="10" fill="#222836" stroke="#394156" stroke-width="3" />
    <circle cx="64" cy="26" r="10" fill="#222836" stroke="#394156" stroke-width="3" />
    <rect x="32" y="104" width="64" height="10" rx="5" fill="url(#bQueenBase)" />
    <rect x="24" y="112" width="80" height="10" rx="5" fill="#06080c" />
  </g>
</svg>
