<svg viewBox="0 0 128 128" xmlns="http://www.w3.org/2000/svg">
  <defs>
    <linearGradient id="wKingBody" x1="0%" y1="0%" x2="0%" y2="100%">
      <stop offset="0%" stop-color="#fdfdfd" />
      <stop offset="40%" stop-color="#dde5fb" />
      <stop offset="100%" stop-color="#a9b7d9" />
    </linearGradient>
    <linearGradient id="wKingBase" x1="0%" y1="0%" x2="0%" y2="100%">
      <stop offset="0%" stop-color="#98a8c9" />
      <stop offset="100%" stop-color="#657293" />
    </linearGradient>
    <filter id="wKingShadow" x="-15%" y="-20%" width="140%" height="160%" color-interpolation-filters="sRGB">
      <feDropShadow dx="0" dy="4" stdDeviation="5" flood-color="#0a0d1a" flood-opacity="0.45" />
    </filter>
  </defs>
  <g filter="url(#wKingShadow)">
    <path
      d="M60 18v12h-12v14h12v14h8V44h12V30H68V18h-8zm-24 90h56c6-24-6-40-20-44 8-6 12-14 12-24 0-14-10-24-20-24s-20 10-20 24c0 10 4 18 12 24-14 4-26 20-20 44z"
      fill="url(#wKingBody)"
    />
    <rect x="28" y="112" width="72" height="10" rx="5" fill="#4a556f" />
  </g>
</svg>
