<svg viewBox="0 0 128 128" xmlns="http://www.w3.org/2000/svg">
  <defs>
    <linearGradient id="wKnightBody" x1="0%" y1="0%" x2="0%" y2="100%">
      <stop offset="0%" stop-color="#fdfdfd" />
      <stop offset="45%" stop-color="#dbe3f5" />
      <stop offset="100%" stop-color="#aab8d6" />
    </linearGradient>
    <linearGradient id="wKnightMane" x1="0%" y1="0%" x2="100%" y2="100%">
      <stop offset="0%" stop-color="#c6d4f2" />
      <stop offset="100%" stop-color="#8fa0c2" />
    </linearGradient>
    <filter id="wKnightShadow" x="-15%" y="-20%" width="140%" height="160%" color-interpolation-filters="sRGB">
      <feDropShadow dx="0" dy="4" stdDeviation="5" flood-color="#0a0d1a" flood-opacity="0.45" />
    </filter>
  </defs>
  <g filter="url(#wKnightShadow)">
    <path
      d="M36 108h60c6-26-2-46-16-58 4-6 10-10 10-18 0-10-6-18-24-18-18 0-28 10-28 24 0 10 6 17 12 22-12 6-18 20-14 48z"
      fill="url(#wKnightBody)"
    />
    <path
      d="M48 42c4-10 14-16 28-14-4 8-16 14-16 24 0 6 2 12 6 16l-14-6c-6-2-8-12-4-20z"
      fill="url(#wKnightMane)"
    />
    <circle cx="74" cy="40" r="5" fill="#2a3145" />
    <rect x="32" y="108" width="64" height="10" rx="5" fill="#56627c" />
  </g>
</svg>
