<svg xmlns="http://www.w3.org/2000/svg" width="16" height="16"><path fill="#fff" d="M8 0C6.563 0 5.405.268 4.463.7q-.29.125-.56.279c-.05.028-.094.06-.141.09-.12.072-.24.143-.352.224-.093.066-.177.14-.264.21a5.36 5.36 0 0 0-1.394 1.76c-.017.034-.039.065-.055.098-.016.034-.027.07-.043.104a6.5 6.5 0 0 0-.472 1.379c-.019.089-.022.181-.038.271q-.068.369-.101.727l-.006.064c-.024.288-.017.55-.014.819.002.1 0 .199.004.298.013.288.035.545.07.795q.034.261.079.52c.005.023.007.056.011.078v.002l.022.098c.03.17.054.343.092.51l.109.488.008-.002 1.055 5.007 1.174-.207c.66-.117 1.13-.22 1.35-.394a.53.53 0 0 0 .204-.352c.033-.169.024-.415-.047-.752l-.79-3.74c-.072-.336-.164-.568-.264-.717a.6.6 0 0 0-.344-.263c-.283-.09-.76-.024-1.424.093l-.162.03c-.182-1.069-.218-2.172-.01-3.17.247-1.183.803-2.206 1.83-2.94C5.001 1.385 6.505 1.02 8 1.023c1.494-.003 2.998.362 4.01 1.084 1.027.734 1.583 1.757 1.83 2.94.208.998.172 2.101-.01 3.17l-.162-.03c-.665-.117-1.142-.184-1.424-.093a.6.6 0 0 0-.344.263c-.1.149-.193.38-.264.717l-.79 3.74c-.072.337-.08.583-.048.752a.53.53 0 0 0 .205.352c.219.175.69.277 1.35.394l1.174.207 1.055-5.007.008.002.109-.489c.038-.166.06-.34.092-.51l.021-.097v-.002c.005-.022.007-.055.012-.078a11 11 0 0 0 .148-1.315c.005-.1.002-.198.004-.298.003-.27.01-.531-.013-.819l-.006-.064a8 8 0 0 0-.102-.727c-.015-.09-.018-.182-.037-.271a6.5 6.5 0 0 0-.473-1.38c-.015-.033-.026-.069-.043-.103s-.038-.064-.054-.097a5.36 5.36 0 0 0-1.395-1.76c-.087-.07-.17-.145-.264-.211-.112-.08-.232-.152-.351-.225l-.14-.09A6 6 0 0 0 11.536.7C10.595.268 9.437 0 8 0" color="#000" font-family="sans-serif" font-weight="400" overflow="visible" style="line-height:normal;text-indent:0;text-align:start;text-decoration-line:none;text-decoration-style:solid;text-decoration-color:#000;text-transform:none;isolation:auto;marker:none"/></svg>