<svg xmlns="http://www.w3.org/2000/svg" width="16" height="16"><g fill="#fff"><path d="M8 1.333 4.5 5H1.87S1 5.893 1 8.001C1 10.11 1.87 11 1.87 11H4.5L8 14.667z"/><path d="m10.524 4.926-.707.707.354.354a3 3 0 0 1 0 4.242l-.354.353.707.707.354-.353a4 4 0 0 0 0-5.656z" color="#000" font-family="sans-serif" font-weight="400" overflow="visible" style="line-height:normal;font-variant-ligatures:normal;font-variant-position:normal;font-variant-caps:normal;font-variant-numeric:normal;font-variant-alternates:normal;font-feature-settings:normal;text-indent:0;text-align:start;text-decoration-line:none;text-decoration-style:solid;text-decoration-color:#000;text-transform:none;text-orientation:mixed;shape-padding:0;isolation:auto;mix-blend-mode:normal"/><path d="m12.645 2.805-.707.707.354.353a6 6 0 0 1 0 8.485l-.354.353.707.707.354-.353a7 7 0 0 0 0-9.899z" color="#000" font-family="sans-serif" font-weight="400" opacity=".5" overflow="visible" style="line-height:normal;font-variant-ligatures:normal;font-variant-position:normal;font-variant-caps:normal;font-variant-numeric:normal;font-variant-alternates:normal;font-feature-settings:normal;text-indent:0;text-align:start;text-decoration-line:none;text-decoration-style:solid;text-decoration-color:#000;text-transform:none;text-orientation:mixed;shape-padding:0;isolation:auto;mix-blend-mode:normal"/></g></svg>