<svg xmlns="http://www.w3.org/2000/svg" width="16" height="16"><rect width="100%" height="100%" fill="none"/><g class="currentLayer"><title>Layer 1</title><g fill="#fff" class="selected" style="display:inline"><path d="M1 0v1h9v4h4v4.75l1 .625V4.25L10.75 0H10z" style="color:#000;display:inline;overflow:visible;visibility:visible;fill-rule:nonzero;stroke:none;stroke-width:4;marker:none"/><path d="M0 3v10h16zm1.033 1.842c3.8 2.38 7.604 4.752 11.404 7.129-3.803.005-7.607.003-11.41.004 0-2.143-.002-4.287.002-6.43h.002z" style="display:inline;opacity:1;vector-effect:none;stroke:none;stroke-width:1.00157;stroke-linecap:round;stroke-linejoin:round;stroke-miterlimit:4;stroke-dasharray:none;stroke-dashoffset:0;stroke-opacity:1"/><path d="M2.047 6.676v.377l-.002-.002q-.002 1.954 0 3.908 3.43 0 6.86-.002-3.428-2.144-6.858-4.281zM3.06 8.502l2.306 1.44H3.061V8.82zM1 15h14v1H1z" style="display:inline;opacity:1;vector-effect:none;stroke:none;stroke-width:1.00157;stroke-linecap:round;stroke-linejoin:round;stroke-miterlimit:4;stroke-dasharray:none;stroke-dashoffset:0;stroke-opacity:1"/><path d="M1 14h1v2H1zM14.054 14h1v2h-1zM1 0h1v2.6L1 2z" style="display:inline;opacity:1;vector-effect:none;stroke:none;stroke-width:1.00157;stroke-linecap:round;stroke-linejoin:round;stroke-miterlimit:4;stroke-dasharray:none;stroke-dashoffset:0;stroke-opacity:1"/></g></g></svg>