<svg xmlns="http://www.w3.org/2000/svg" width="60" height="60" viewBox="0 0 100 100"><path d="M22.06 19.48c-3.91 0-8.09.17-12.42.51a1.998 1.998 0 0 0 .16 3.99c13.91.02 26.67 1.71 34.82 4.44-2.49-.21-5.01-.33-7.56-.33-19 0-33.26 5.82-33.85 6.06-.97.41-1.46 1.48-1.14 2.48a2.015 2.015 0 0 0 2.39 1.31c.15-.04 16.02-3.94 32-3.94 2.06 0 4.04.07 5.92.19-17.69 2.82-30.92 12.8-31.56 13.29a2.005 2.005 0 0 0-.44 2.71c.39.57 1.02.88 1.66.88.35 0 .7-.09 1.02-.28.19-.11 18.89-11.1 37.71-11.1.52 0 1.03 0 1.54.02h.06c-2.49 2.08-5.76 6.08-5.51 12.6.32 8.23 6.3 13.18 12.08 14.44 2.38.52 4.41.64 6.37.75 3.61.22 6.74.4 11.6 3.11 5.43 3.02 9.54 10.98 10.48 20.26.1 1.01.95 1.79 1.97 1.8h.02c1.01 0 1.86-.75 1.99-1.75.06-.49 1.06-9.32-4.41-17.99 2.05 1.85 3.8 4.42 4.38 7.94.16.96 1 1.67 1.97 1.67h.03c.99-.02 1.82-.75 1.96-1.73.03-.25.77-6.19-4.28-11.61-5.24-5.63-14.04-8.48-26.17-8.48-3.68 0-6.53-1.01-8.44-3.01-2.1-2.19-2.75-5.27-2.67-7.24.13-3.15 2.65-6.83 9.33-6.83 3.65 0 10.2 3.07 13.34 4.73.2 1.1.66 2.36 1.71 3 .28.18.59.31.98.47 1.14.49 3.05 1.3 5.31 3.82.39.43.94.66 1.49.66.38 0 .76-.11 1.1-.33l3.01-1.98a2.01 2.01 0 0 0 .87-2.05c-.16-.79-.77-1.42-1.56-1.58-1.04-.22-2.35-.73-3.06-1.14-.03-.46-.17-.93-.47-1.38-.14-.21-.31-.41-.49-.64-.39-.46-.91-1.09-1.36-2.05-.16-.33-.56-.95-1.39-1.34.23-.2.43-.44.55-.73.31-.75.14-1.61-.44-2.18C74 32.3 66.64 30.5 66.33 30.43c-.15-.04-.3-.06-.46-.06A2 2 0 0 0 64 31.68c-.35.94.06 2 .95 2.47.05.02 2.76 1.44 5.83 3.46h-.06c-.46.03-.88.23-1.2.52-.97-.38-2.21-.79-3.57-1.02-1.21-.21-2.49-.24-3.61-.26-.98-.02-2.47-.06-2.85-.28-.13-.11-.3-.24-.48-.38-.97-.72-2.44-1.81-2.98-8.48a1.97 1.97 0 0 0-.74-1.39c-.34-.28-8.76-6.84-33.23-6.84m0 2c24.05 0 31.98 6.4 31.98 6.4.68 8.46 2.94 9.2 4.21 10.25 1.26 1.06 4.62.48 7.36.95s4.94 1.74 4.94 1.74l.32-1.21c.88 2.07 3 2.78 3 2.78v-1.63c.79 1.9 3 3.21 3 3.21v-1.56s.74 1.13 1.47 1.93c.74.81 1.52 1.26 1.52 1.26s.49-.12 1.02-.12c.5 0 1.04.11 1.25.54.76 1.63 1.68 2.48 2 2.95.31.47 0 1.03 0 1.03.52.98 3.26 2.02 4.78 2.34l-3.01 1.98c-3.22-3.58-5.96-4.17-6.73-4.65-.78-.48-.9-2.56-.9-2.56s-9.74-5.47-15.2-5.47c-8.05 0-11.17 4.82-11.33 8.75-.16 3.92 1.99 12.33 13.11 12.33 12.81 0 20.47 3.3 24.71 7.84 4.46 4.79 3.76 9.98 3.76 9.98-1.95-11.73-15.2-14.11-15.2-14.11C91.21 76 89.38 90.67 89.38 90.67c-.89-8.82-4.81-18.08-11.5-21.81-7.96-4.44-11.94-2.63-18.52-4.06-4.77-1.04-10.21-5.08-10.5-12.56-.35-9.01 7.05-12.52 7.05-12.52l-3.39-9.69C45.98 25.12 28.7 22 9.8 21.98c4.49-.34 8.57-.5 12.26-.5m15 8.61c4.34 0 8.91.31 13.61 1.08 0 .01.01.01.02.02l.52 2.17C46.56 32.38 41.5 32 36.46 32c-16.43 0-32.49 4-32.49 4s14.27-5.91 33.09-5.91m28.84 2.29c.48.12 7.29 1.94 15.35 9.96h-1.69c-3.94-4.83-13.09-9.66-13.66-9.96m-14.44 3.07h.08l.84 2.26c-.54-.02-1.07-.02-1.61-.02-19.31 0-38.13 11.03-38.72 11.37.55-.41 18.09-13.61 39.41-13.61m30.452 12.48s-.09.568 0 .726c.172.304 1.2.721 1.2.721z"/></svg>