<svg xmlns="http://www.w3.org/2000/svg" xml:space="preserve" viewBox="0 0 958 654.5"><path d="M835.8 137.4c-2.8-.7-5.6-1-8.5-.9H128.6c-10.4.1-19.7 6.7-23.2 16.6-1.1 3.2-1.6 6.5-1.5 9.8v330.5c.2 13.6 11.2 24.5 24.8 24.5 28.6 0 87.5-.1 87.5-.1l-.1-25.6h-85.9c-.4-2.8-.3-326.2.1-327.7 2.6-.4 695.2-.2 696.7.1.4 2.5.3 326-.2 327.7h-579V518h581.7c10.4-.1 19.6-6.6 23.1-16.4q1.65-4.65 1.5-9.6V160.9c-.4-11-7.7-20.5-18.3-23.5m-588 284.1v-66.1c-.1-1.4.5-2.7 1.6-3.5 5.1-4 10.1-8.2 15.2-12.3.5-.4 1-.7 1.6-1.2.6.7 1 1.3 1.4 1.9 8.6 12.4 17.1 24.7 25.7 37.1 10.5 15.2 21 30.4 31.5 45.5.4.9 1.4 1.6 2.4 1.5h33.1c.4 0 .9-.1 1.3-.2-24.4-35.6-48.7-70.9-73.1-106.4 4.9-5.7 9.6-11.2 14.4-16.8s9.5-11 14.2-16.6 9.5-11.1 14.2-16.6c4.8-5.5 9.5-11.1 14.2-16.6s9.4-11 14.4-16.9h-2.8c-10 0-20 .1-30 0-1.7-.1-3.2.7-4.2 2-24.5 29.1-49.1 58.1-73.8 87.2-.3.4-.8.7-1.5 1.4v-72.4c0-6 .1-12 0-18H217V424c2.4.4 29.3.3 30.9-.1v-2.4zm164.8 2.8c.2-.7.5-1.3.7-2 5-14.2 10-28.4 15-42.5.8-2.3 1.7-4.6 2.4-6.9.3-1 .8-1.5 1.8-1.3H504c6.4 17.6 12.7 35.2 19 52.7h33c-23.8-63.7-47.5-127.3-71.1-190.7h-33.7c-.2.3-.3.7-.5 1-23.5 63-46.9 125.9-70.4 188.8-.1.1-.1.3-.1.4v.2c0 .1.1.1.1.2zm28.5-81.7c6.5-18.8 13.1-37.5 19.4-56.4 2.5-7.6 4.5-15.4 6.6-23.1.2-.6.3-1.2.5-2.1.3.3.5.7.7 1.1 5.2 19.3 12.2 37.9 18.6 56.8 2.7 7.9 5.4 15.7 8.1 23.5.2.7.4 1.4.7 2.3h-55.3c.3-.7.5-1.4.7-2.1M608 249.1c0-4.9.2-9.8-.1-14.6h-30.4c-.5 2.4-.4 188.3.1 189.9h111.1V398h-67.2c-4.5 0-8.8.2-13.4-.1zm132.6-13.5c0-.3 0-.6-.1-.9 0-.1-.1-.1-.1-.2s-.1-.1-.1-.1h-30.6v189.8h30.8c.1-.2.2-.5.2-.7z" style="fill:#367bf0"/></svg>