<svg xmlns="http://www.w3.org/2000/svg" width="16" height="16" viewBox="0 0 16 16"><g fill="#2e3436"><path d="M6.5 0A2.5 2.5 0 0 0 4 2.5V3H1c-.55 0-1 .45-1 1s.45 1 1 1h.66a15.94 15.94 0 0 0-.133 8.23l.02.07A3.55 3.55 0 0 0 5 16h6a3.56 3.56 0 0 0 3.457-2.7l.016-.07a16 16 0 0 0-.13-8.23H15c.55 0 1-.45 1-1s-.45-1-1-1h-3.02v-.5c0-1.379-1.12-2.5-2.5-2.5zm0 2h2.98c.286 0 .5.21.5.5V3H6v-.5c0-.29.21-.5.5-.5M3.746 5h8.512l.105.352c.719 2.406.778 4.957.172 7.39l-.02.074A1.555 1.555 0 0 1 11 14H5c-.723 0-1.34-.484-1.516-1.184l-.015-.074c-.61-2.433-.551-4.984.172-7.39zm0 0"/><path d="M6.5 7.191a5.75 5.75 0 0 0-.46 2.403c.023.761.194 1.5.468 2.234a.498.498 0 0 1-.555.668.49.49 0 0 1-.383-.324c-.601-1.625-.808-3.39.004-5.363a.5.5 0 0 1 .926.383M10.43 6.809c.797 1.93.633 3.707.008 5.367a.502.502 0 0 1-.938-.352c.559-1.484.695-2.96.008-4.633a.499.499 0 1 1 .922-.382m0 0"/></g></svg>