<svg xmlns="http://www.w3.org/2000/svg" viewBox="0 0 96 96">
  <rect width="96" height="96" rx="16" fill="#0f1317"/>
  <path fill="#1f2937" d="M28 14c-3.3 0-6 2.7-6 6v56c0 3.3 2.7 6 6 6h40c3.3 0 6-2.7 6-6V32L54 14H28z"/>
  <path fill="#111827" d="M54 14v18c0 2.2 1.8 4 4 4h16L54 14z"/>
  <g fill="none" stroke="#c084fc" stroke-width="2.5" stroke-linecap="round">
    <circle cx="40" cy="52" r="6"/>
    <circle cx="58" cy="62" r="5"/>
    <circle cx="54" cy="42" r="4"/>
    <line x1="45" y1="56" x2="53" y2="46"/>
    <line x1="46" y1="58" x2="54" y2="64"/>
  </g>
  <text x="48" y="74" fill="#c084fc" font-family="'Fira Code', 'Courier New', monospace" font-size="16" font-weight="700" text-anchor="middle">PCAP</text>
</svg>
